Barlow-Bold Condensed.ufo
<glyph name="numbersign" format="1">
  <advance width="633"/>
  <unicode hex="0023"/>
  <outline>
    <contour>
      <point x="341" y="672" type="line"/>
      <point x="153" y="672" type="line"/>
      <point x="59" y="34" type="line"/>
      <point x="247" y="34" type="line"/>
    </contour>
    <contour>
      <point x="581" y="672" type="line"/>
      <point x="393" y="672" type="line"/>
      <point x="299" y="34" type="line"/>
      <point x="487" y="34" type="line"/>
    </contour>
    <contour>
      <point x="56" y="548" type="line"/>
      <point x="56" y="387" type="line"/>
      <point x="613" y="387" type="line"/>
      <point x="613" y="548" type="line"/>
    </contour>
    <contour>
      <point x="20" y="318" type="line"/>
      <point x="20" y="158" type="line"/>
      <point x="577" y="158" type="line"/>
      <point x="577" y="318" type="line"/>
    </contour>
  </outline>
</glyph>
<glyph name="dollar" format="1">
  <advance width="465"/>
  <unicode hex="0024"/>
  <outline>
    <contour>
      <point x="283" y="-68" type="line"/>
      <point x="280" y="53" type="line"/>
      <point x="167" y="53" type="line"/>
      <point x="164" y="-68" type="line"/>
    </contour>
    <contour>
      <point x="280" y="657" type="line"/>
      <point x="283" y="778" type="line"/>
      <point x="166" y="778" type="line"/>
      <point x="169" y="657" type="line"/>
    </contour>
    <component base="S"/>
  </outline>
</glyph>
<glyph name="percent" format="1">
  <advance width="756"/>
  <unicode hex="0025"/>
  <outline>
    <contour>
      <point x="630" y="700" type="line"/>
      <point x="498" y="700" type="line"/>
      <point x="121" y="0" type="line"/>
      <point x="253" y="0" type="line"/>
    </contour>
    <contour>
      <point x="657" y="-8"/>
      <point x="730" y="67"/>
      <point x="730" y="161" type="curve" smooth="yes"/>
      <point x="730" y="254"/>
      <point x="656" y="329"/>
      <point x="565" y="329" type="curve" smooth="yes"/>
      <point x="473" y="329"/>
      <point x="399" y="254"/>
      <point x="399" y="161" type="curve" smooth="yes"/>
      <point x="399" y="67"/>
      <point x="473" y="-8"/>
      <point x="565" y="-8" type="curve" smooth="yes"/>
    </contour>
    <contour>
      <point x="526" y="86"/>
      <point x="495" y="119"/>
      <point x="495" y="161" type="curve" smooth="yes"/>
      <point x="495" y="202"/>
      <point x="526" y="235"/>
      <point x="565" y="235" type="curve" smooth="yes"/>
      <point x="603" y="235"/>
      <point x="634" y="202"/>
      <point x="634" y="161" type="curve" smooth="yes"/>
      <point x="634" y="119"/>
      <point x="604" y="86"/>
      <point x="565" y="86" type="curve" smooth="yes"/>
    </contour>
    <contour>
      <point x="284" y="371"/>
      <point x="357" y="446"/>
      <point x="357" y="540" type="curve" smooth="yes"/>
      <point x="357" y="633"/>
      <point x="283" y="708"/>
      <point x="192" y="708" type="curve" smooth="yes"/>
      <point x="100" y="708"/>
      <point x="26" y="633"/>
      <point x="26" y="540" type="curve" smooth="yes"/>
      <point x="26" y="446"/>
      <point x="100" y="371"/>
      <point x="192" y="371" type="curve" smooth="yes"/>
    </contour>
    <contour>
      <point x="153" y="465"/>
      <point x="122" y="498"/>
      <point x="122" y="540" type="curve" smooth="yes"/>
      <point x="122" y="581"/>
      <point x="153" y="614"/>
      <point x="192" y="614" type="curve" smooth="yes"/>
      <point x="230" y="614"/>
      <point x="261" y="581"/>
      <point x="261" y="540" type="curve" smooth="yes"/>
      <point x="261" y="498"/>
      <point x="231" y="465"/>
      <point x="192" y="465" type="curve" smooth="yes"/>
    </contour>
  </outline>
</glyph>
<glyph name="ampersand" format="1">
  <advance width="644"/>
  <unicode hex="0026"/>
  <outline>
    <contour>
      <point x="381" y="-10"/>
      <point x="521" y="81"/>
      <point x="608" y="270" type="curve"/>
      <point x="465" y="351" type="line"/>
      <point x="441" y="284"/>
      <point x="336" y="161"/>
      <point x="258" y="150" type="curve" smooth="yes"/>
      <point x="217" y="144"/>
      <point x="204" y="176"/>
      <point x="204" y="195" type="curve" smooth="yes"/>
      <point x="204" y="274"/>
      <point x="479" y="297"/>
      <point x="479" y="506" type="curve" smooth="yes"/>
      <point x="479" y="626"/>
      <point x="385" y="708"/>
      <point x="256" y="708" type="curve" smooth="yes"/>
      <point x="130" y="708"/>
      <point x="46" y="628"/>
      <point x="46" y="513" type="curve" smooth="yes"/>
      <point x="46" y="428"/>
      <point x="84" y="395"/>
      <point x="121" y="358" type="curve"/>
      <point x="420" y="0" type="line"/>
      <point x="626" y="0" type="line"/>
      <point x="262" y="443" type="line"/>
      <point x="243" y="470"/>
      <point x="234" y="485"/>
      <point x="234" y="504" type="curve" smooth="yes"/>
      <point x="234" y="523"/>
      <point x="244" y="538"/>
      <point x="262" y="538" type="curve" smooth="yes"/>
      <point x="278" y="538"/>
      <point x="291" y="525"/>
      <point x="291" y="502" type="curve" smooth="yes"/>
      <point x="291" y="402"/>
      <point x="18" y="405"/>
      <point x="16" y="185" type="curve" smooth="yes"/>
      <point x="15" y="57"/>
      <point x="109" y="-10"/>
      <point x="234" y="-10" type="curve" smooth="yes"/>
    </contour>
  </outline>
</glyph>
<glyph name="asterisk" format="1">
  <advance width="378"/>
  <unicode hex="002A"/>
  <outline>
    <contour>
      <point x="320" y="708" type="line"/>
      <point x="239" y="660" type="line"/>
      <point x="244" y="747" type="line"/>
      <point x="134" y="747" type="line"/>
      <point x="139" y="660" type="line"/>
      <point x="58" y="708" type="line"/>
      <point x="6" y="612" type="line"/>
      <point x="97" y="571" type="line"/>
      <point x="6" y="528" type="line"/>
      <point x="58" y="432" type="line"/>
      <point x="139" y="482" type="line"/>
      <point x="134" y="393" type="line"/>
      <point x="244" y="393" type="line"/>
      <point x="239" y="482" type="line"/>
      <point x="320" y="432" type="line"/>
      <point x="372" y="528" type="line"/>
      <point x="284" y="571" type="line"/>
      <point x="372" y="612" type="line"/>
    </contour>
  </outline>
</glyph>
<glyph name="plus" format="1">
  <advance width="472"/>
  <unicode hex="002B"/>
  <outline>
    <contour>
      <point x="454" y="266" type="line"/>
      <point x="454" y="406" type="line"/>
      <point x="18" y="406" type="line"/>
      <point x="18" y="266" type="line"/>
    </contour>
    <contour>
      <point x="306" y="574" type="line"/>
      <point x="166" y="574" type="line"/>
      <point x="166" y="98" type="line"/>
      <point x="306" y="98" type="line"/>
    </contour>
  </outline>
</glyph>
<glyph name="hyphen" format="1">
  <advance width="323"/>
  <unicode hex="002D"/>
  <outline>
    <contour>
      <point x="305" y="215" type="line"/>
      <point x="305" y="355" type="line"/>
      <point x="18" y="355" type="line"/>
      <point x="18" y="215" type="line"/>
    </contour>
  </outline>
</glyph>
<glyph name="period" format="1">
  <advance width="308"/>
  <unicode hex="002E"/>
  <outline>
    <contour>
      <point x="211" y="-8"/>
      <point x="254" y="39"/>
      <point x="254" y="97" type="curve" smooth="yes"/>
      <point x="254" y="155"/>
      <point x="202" y="201"/>
      <point x="149" y="201" type="curve" smooth="yes"/>
      <point x="96" y="201"/>
      <point x="44" y="155"/>
      <point x="44" y="97" type="curve" smooth="yes"/>
      <point x="44" y="39"/>
      <point x="87" y="-8"/>
      <point x="149" y="-8" type="curve" smooth="yes"/>
    </contour>
  </outline>
</glyph>
<glyph name="slash" format="1">
  <advance width="458"/>
  <unicode hex="002F"/>
  <outline>
    <contour>
      <point x="8" y="0" type="line"/>
      <point x="196" y="0" type="line"/>
      <point x="450" y="700" type="line"/>
      <point x="262" y="700" type="line"/>
    </contour>
  </outline>
</glyph>
<glyph name="zero" format="1">
  <advance width="443"/>
  <unicode hex="0030"/>
  <outline>
    <contour>
      <point x="350" y="-12"/>
      <point x="435" y="75"/>
      <point x="435" y="206" type="curve" smooth="yes"/>
      <point x="435" y="494" type="line" smooth="yes"/>
      <point x="435" y="625"/>
      <point x="350" y="712"/>
      <point x="221" y="712" type="curve" smooth="yes"/>
      <point x="93" y="712"/>
      <point x="8" y="625"/>
      <point x="8" y="494" type="curve" smooth="yes"/>
      <point x="8" y="206" type="line" smooth="yes"/>
      <point x="8" y="75"/>
      <point x="93" y="-12"/>
      <point x="221" y="-12" type="curve" smooth="yes"/>
    </contour>
    <contour>
      <point x="206" y="149"/>
      <point x="196" y="167"/>
      <point x="196" y="195" type="curve" smooth="yes"/>
      <point x="196" y="505" type="line" smooth="yes"/>
      <point x="196" y="533"/>
      <point x="206" y="551"/>
      <point x="221" y="551" type="curve" smooth="yes"/>
      <point x="237" y="551"/>
      <point x="247" y="533"/>
      <point x="247" y="505" type="curve" smooth="yes"/>
      <point x="247" y="195" type="line" smooth="yes"/>
      <point x="247" y="167"/>
      <point x="237" y="149"/>
      <point x="221" y="149" type="curve" smooth="yes"/>
    </contour>
  </outline>
</glyph>
<glyph name="one" format="1">
  <advance width="254"/>
  <unicode hex="0031"/>
  <outline>
    <contour>
      <point x="244" y="0" type="line"/>
      <point x="244" y="700" type="line"/>
      <point x="56" y="700" type="line"/>
      <point x="56" y="0" type="line"/>
    </contour>
    <contour>
      <point x="9" y="539" type="line"/>
      <point x="56" y="539" type="line"/>
      <point x="56" y="700" type="line"/>
      <point x="9" y="673" type="line"/>
    </contour>
  </outline>
</glyph>
<glyph name="two" format="1">
  <advance width="451"/>
  <unicode hex="0032"/>
  <outline>
    <contour>
      <point x="446" y="0" type="line"/>
      <point x="446" y="161" type="line"/>
      <point x="268" y="161" type="line"/>
      <point x="307" y="211"/>
      <point x="347" y="261"/>
      <point x="386" y="311" type="curve" smooth="yes"/>
      <point x="433" y="372"/>
      <point x="440" y="434"/>
      <point x="440" y="487" type="curve" smooth="yes"/>
      <point x="440" y="654"/>
      <point x="349" y="708"/>
      <point x="230" y="708" type="curve" smooth="yes"/>
      <point x="95" y="708"/>
      <point x="15" y="639"/>
      <point x="7" y="520" type="curve"/>
      <point x="7" y="455" type="line"/>
      <point x="197" y="455" type="line"/>
      <point x="197" y="512" type="line"/>
      <point x="197" y="533"/>
      <point x="208" y="547"/>
      <point x="224" y="547" type="curve" smooth="yes"/>
      <point x="239" y="547"/>
      <point x="250" y="536"/>
      <point x="250" y="505" type="curve" smooth="yes"/>
      <point x="250" y="471"/>
      <point x="237" y="422"/>
      <point x="186" y="361" type="curve" smooth="yes"/>
      <point x="129" y="293"/>
      <point x="69" y="228"/>
      <point x="11" y="161" type="curve"/>
      <point x="11" y="0" type="line"/>
    </contour>
  </outline>
</glyph>
<glyph name="three" format="1">
  <advance width="438"/>
  <unicode hex="0033"/>
  <outline>
    <contour>
      <point x="23" y="700" type="line"/>
      <point x="23" y="540" type="line"/>
      <point x="206" y="540" type="line"/>
      <point x="77" y="417" type="line"/>
      <point x="178" y="312" type="line"/>
      <point x="191" y="329"/>
      <point x="209" y="340"/>
      <point x="223" y="340" type="curve" smooth="yes"/>
      <point x="240" y="340"/>
      <point x="252" y="325"/>
      <point x="252" y="303" type="curve" smooth="yes"/>
      <point x="252" y="190" type="line" smooth="yes"/>
      <point x="252" y="168"/>
      <point x="240" y="153"/>
      <point x="223" y="153" type="curve" smooth="yes"/>
      <point x="206" y="153"/>
      <point x="195" y="168"/>
      <point x="195" y="190" type="curve" smooth="yes"/>
      <point x="195" y="232" type="line"/>
      <point x="7" y="232" type="line"/>
      <point x="7" y="172" type="line" smooth="yes"/>
      <point x="7" y="66"/>
      <point x="96" y="-8"/>
      <point x="223" y="-8" type="curve" smooth="yes"/>
      <point x="345" y="-8"/>
      <point x="430" y="66"/>
      <point x="430" y="172" type="curve" smooth="yes"/>
      <point x="430" y="276" type="line" smooth="yes"/>
      <point x="430" y="373"/>
      <point x="353" y="447"/>
      <point x="264" y="405" type="curve"/>
      <point x="262" y="363" type="line"/>
      <point x="430" y="540" type="line"/>
      <point x="430" y="700" type="line"/>
    </contour>
  </outline>
</glyph>
<glyph name="four" format="1">
  <advance width="522"/>
  <unicode hex="0034"/>
  <outline>
    <contour>
      <point x="279" y="0" type="line"/>
      <point x="467" y="0" type="line"/>
      <point x="467" y="426" type="line"/>
      <point x="279" y="426" type="line"/>
    </contour>
    <contour>
      <point x="222" y="337" type="line"/>
      <point x="329" y="700" type="line"/>
      <point x="132" y="700" type="line"/>
      <point x="4" y="302" type="line"/>
      <point x="4" y="167" type="line"/>
      <point x="518" y="167" type="line"/>
      <point x="518" y="337" type="line"/>
    </contour>
  </outline>
</glyph>
<glyph name="five" format="1">
  <advance width="459"/>
  <unicode hex="0035"/>
  <outline>
    <contour>
      <point x="231" y="-8" type="curve" smooth="yes"/>
      <point x="360" y="-8"/>
      <point x="445" y="58"/>
      <point x="445" y="171" type="curve" smooth="yes"/>
      <point x="445" y="188"/>
      <point x="445" y="204"/>
      <point x="445" y="221" type="curve" smooth="yes"/>
      <point x="445" y="234"/>
      <point x="445" y="247"/>
      <point x="445" y="260" type="curve" smooth="yes"/>
      <point x="445" y="374"/>
      <point x="386" y="444"/>
      <point x="291" y="444" type="curve" smooth="yes"/>
      <point x="235" y="444"/>
      <point x="178" y="401"/>
      <point x="178" y="350" type="curve"/>
      <point x="205" y="343" type="line"/>
      <point x="205" y="539" type="line"/>
      <point x="443" y="539" type="line"/>
      <point x="443" y="700" type="line"/>
      <point x="17" y="700" type="line"/>
      <point x="17" y="257" type="line"/>
      <point x="205" y="257" type="line"/>
      <point x="205" y="272"/>
      <point x="215" y="282"/>
      <point x="231" y="282" type="curve" smooth="yes"/>
      <point x="247" y="282"/>
      <point x="257" y="269"/>
      <point x="257" y="250" type="curve" smooth="yes"/>
      <point x="257" y="241"/>
      <point x="257" y="231"/>
      <point x="257" y="222" type="curve" smooth="yes"/>
      <point x="257" y="209"/>
      <point x="257" y="197"/>
      <point x="257" y="184" type="curve" smooth="yes"/>
      <point x="257" y="165"/>
      <point x="247" y="152"/>
      <point x="231" y="152" type="curve" smooth="yes"/>
      <point x="220" y="152"/>
      <point x="211" y="159"/>
      <point x="208" y="180" type="curve" smooth="yes"/>
      <point x="207" y="186"/>
      <point x="206" y="194"/>
      <point x="206" y="204" type="curve"/>
      <point x="18" y="204" type="line"/>
      <point x="18" y="190"/>
      <point x="19" y="176"/>
      <point x="20" y="164" type="curve" smooth="yes"/>
      <point x="34" y="46"/>
      <point x="114" y="-8"/>
    </contour>
  </outline>
</glyph>
<glyph name="six" format="1">
  <advance width="440"/>
  <unicode hex="0036"/>
  <outline>
    <contour>
      <point x="348" y="-8"/>
      <point x="433" y="58"/>
      <point x="433" y="171" type="curve" smooth="yes"/>
      <point x="433" y="260" type="line" smooth="yes"/>
      <point x="433" y="390"/>
      <point x="357" y="444"/>
      <point x="277" y="444" type="curve" smooth="yes"/>
      <point x="163" y="444"/>
      <point x="157" y="339"/>
      <point x="158" y="327" type="curve"/>
      <point x="197" y="327" type="line"/>
      <point x="197" y="511" type="line" smooth="yes"/>
      <point x="197" y="530"/>
      <point x="207" y="543"/>
      <point x="221" y="543" type="curve" smooth="yes"/>
      <point x="230" y="543"/>
      <point x="240" y="530"/>
      <point x="240" y="511" type="curve" smooth="yes"/>
      <point x="240" y="470" type="line"/>
      <point x="428" y="470" type="line"/>
      <point x="428" y="524" type="line" smooth="yes"/>
      <point x="428" y="638"/>
      <point x="343" y="708"/>
      <point x="221" y="708" type="curve" smooth="yes"/>
      <point x="94" y="708"/>
      <point x="9" y="638"/>
      <point x="9" y="524" type="curve" smooth="yes"/>
      <point x="9" y="171" type="line" smooth="yes"/>
      <point x="9" y="58"/>
      <point x="94" y="-8"/>
      <point x="221" y="-8" type="curve" smooth="yes"/>
    </contour>
    <contour>
      <point x="207" y="152"/>
      <point x="197" y="165"/>
      <point x="197" y="184" type="curve" smooth="yes"/>
      <point x="197" y="252" type="line" smooth="yes"/>
      <point x="197" y="271"/>
      <point x="207" y="284"/>
      <point x="221" y="284" type="curve" smooth="yes"/>
      <point x="235" y="284"/>
      <point x="245" y="271"/>
      <point x="245" y="252" type="curve" smooth="yes"/>
      <point x="245" y="184" type="line" smooth="yes"/>
      <point x="245" y="165"/>
      <point x="235" y="152"/>
      <point x="221" y="152" type="curve" smooth="yes"/>
    </contour>
  </outline>
</glyph>
<glyph name="seven" format="1">
  <advance width="429"/>
  <unicode hex="0037"/>
  <outline>
    <contour>
      <point x="259" y="0" type="line"/>
      <point x="426" y="539" type="line"/>
      <point x="426" y="700" type="line"/>
      <point x="4" y="700" type="line"/>
      <point x="3" y="490" type="line"/>
      <point x="154" y="490" type="line"/>
      <point x="154" y="539" type="line"/>
      <point x="228" y="539" type="line"/>
      <point x="63" y="0" type="line"/>
    </contour>
  </outline>
</glyph>
<glyph name="eight" format="1">
  <advance width="444"/>
  <unicode hex="0038"/>
  <outline>
    <contour>
      <point x="350" y="-8"/>
      <point x="435" y="63"/>
      <point x="435" y="184" type="curve" smooth="yes"/>
      <point x="435" y="201" type="line" smooth="yes"/>
      <point x="435" y="324"/>
      <point x="350" y="371"/>
      <point x="222" y="403" type="curve"/>
      <point x="94" y="371"/>
      <point x="9" y="324"/>
      <point x="9" y="201" type="curve" smooth="yes"/>
      <point x="9" y="185" type="line" smooth="yes"/>
      <point x="9" y="63"/>
      <point x="94" y="-8"/>
      <point x="222" y="-8" type="curve" smooth="yes"/>
    </contour>
    <contour>
      <point x="207" y="153"/>
      <point x="197" y="169"/>
      <point x="197" y="192" type="curve" smooth="yes"/>
      <point x="197" y="248" type="line" smooth="yes"/>
      <point x="197" y="272"/>
      <point x="207" y="288"/>
      <point x="222" y="288" type="curve"/>
      <point x="237" y="288"/>
      <point x="247" y="272"/>
      <point x="247" y="248" type="curve" smooth="yes"/>
      <point x="247" y="192" type="line" smooth="yes"/>
      <point x="247" y="169"/>
      <point x="237" y="153"/>
      <point x="222" y="153" type="curve" smooth="yes"/>
    </contour>
    <contour>
      <point x="350" y="332"/>
      <point x="436" y="379"/>
      <point x="436" y="496" type="curve" smooth="yes"/>
      <point x="436" y="505" type="line" smooth="yes"/>
      <point x="436" y="627"/>
      <point x="350" y="708"/>
      <point x="222" y="708" type="curve" smooth="yes"/>
      <point x="94" y="708"/>
      <point x="8" y="627"/>
      <point x="8" y="505" type="curve" smooth="yes"/>
      <point x="8" y="497" type="line" smooth="yes"/>
      <point x="8" y="380"/>
      <point x="94" y="333"/>
      <point x="222" y="294" type="curve"/>
    </contour>
    <contour>
      <point x="207" y="422"/>
      <point x="197" y="438"/>
      <point x="197" y="462" type="curve" smooth="yes"/>
      <point x="197" y="508" type="line" smooth="yes"/>
      <point x="197" y="531"/>
      <point x="207" y="547"/>
      <point x="222" y="547" type="curve" smooth="yes"/>
      <point x="237" y="547"/>
      <point x="247" y="531"/>
      <point x="247" y="508" type="curve" smooth="yes"/>
      <point x="247" y="462" type="line" smooth="yes"/>
      <point x="247" y="438"/>
      <point x="237" y="422"/>
      <point x="222" y="422" type="curve" smooth="yes"/>
    </contour>
  </outline>
</glyph>
<glyph name="colon" format="1">
  <advance width="318"/>
  <unicode hex="003A"/>
  <outline>
    <contour>
      <point x="161" y="321" type="curve" smooth="yes"/>
      <point x="223" y="321"/>
      <point x="266" y="368"/>
      <point x="266" y="426" type="curve" smooth="yes"/>
      <point x="266" y="484"/>
      <point x="214" y="530"/>
      <point x="161" y="530" type="curve" smooth="yes"/>
      <point x="108" y="530"/>
      <point x="56" y="484"/>
      <point x="56" y="426" type="curve" smooth="yes"/>
      <point x="56" y="368"/>
      <point x="99" y="321"/>
    </contour>
    <contour>
      <point x="161" y="0" type="curve" smooth="yes"/>
      <point x="223" y="0"/>
      <point x="266" y="47"/>
      <point x="266" y="105" type="curve" smooth="yes"/>
      <point x="266" y="163"/>
      <point x="214" y="209"/>
      <point x="161" y="209" type="curve" smooth="yes"/>
      <point x="108" y="209"/>
      <point x="56" y="163"/>
      <point x="56" y="105" type="curve" smooth="yes"/>
      <point x="56" y="47"/>
      <point x="99" y="0"/>
    </contour>
  </outline>
</glyph>
<glyph name="semicolon" format="1">
  <advance width="258"/>
  <unicode hex="003B"/>
  <outline>
    <contour>
      <point x="154" y="-111" type="line"/>
      <point x="217" y="160" type="line"/>
      <point x="49" y="160" type="line"/>
      <point x="32" y="-111" type="line"/>
    </contour>
    <contour>
      <point x="191" y="291"/>
      <point x="234" y="338"/>
      <point x="234" y="396" type="curve" smooth="yes"/>
      <point x="234" y="454"/>
      <point x="182" y="500"/>
      <point x="129" y="500" type="curve" smooth="yes"/>
      <point x="76" y="500"/>
      <point x="24" y="454"/>
      <point x="24" y="396" type="curve" smooth="yes"/>
      <point x="24" y="338"/>
      <point x="67" y="291"/>
      <point x="129" y="291" type="curve" smooth="yes"/>
    </contour>
  </outline>
</glyph>
<glyph name="equal" format="1">
  <advance width="442"/>
  <unicode hex="003D"/>
  <outline>
    <contour>
      <point x="424" y="340" type="line"/>
      <point x="424" y="480" type="line"/>
      <point x="18" y="480" type="line"/>
      <point x="18" y="340" type="line"/>
    </contour>
    <contour>
      <point x="424" y="170" type="line"/>
      <point x="424" y="310" type="line"/>
      <point x="18" y="310" type="line"/>
      <point x="18" y="170" type="line"/>
    </contour>
  </outline>
</glyph>
<glyph name="greater" format="1">
  <advance width="436"/>
  <unicode hex="003E"/>
  <outline>
    <contour>
      <point x="18" y="42" type="line"/>
      <point x="418" y="217" type="line"/>
      <point x="418" y="377" type="line"/>
      <point x="18" y="552" type="line"/>
      <point x="18" y="374" type="line"/>
      <point x="239" y="297" type="line"/>
      <point x="18" y="220" type="line"/>
    </contour>
  </outline>
</glyph>
<glyph name="question" format="1">
  <advance width="483"/>
  <unicode hex="003F"/>
  <outline>
    <contour>
      <point x="321" y="236" type="line"/>
      <point x="321" y="252" type="line"/>
      <point x="321" y="339"/>
      <point x="473" y="338"/>
      <point x="473" y="503" type="curve" smooth="yes"/>
      <point x="473" y="627"/>
      <point x="386" y="710"/>
      <point x="249" y="710" type="curve" smooth="yes"/>
      <point x="107" y="710"/>
      <point x="10" y="620"/>
      <point x="10" y="488" type="curve" smooth="yes"/>
      <point x="10" y="478" type="line"/>
      <point x="198" y="469" type="line"/>
      <point x="198" y="488" type="line" smooth="yes"/>
      <point x="198" y="517"/>
      <point x="214" y="539"/>
      <point x="244" y="539" type="curve" smooth="yes"/>
      <point x="268" y="539"/>
      <point x="283" y="522"/>
      <point x="283" y="494" type="curve" smooth="yes"/>
      <point x="283" y="418"/>
      <point x="135" y="410"/>
      <point x="135" y="264" type="curve"/>
      <point x="135" y="236" type="line"/>
    </contour>
    <contour>
      <point x="288" y="-5"/>
      <point x="332" y="38"/>
      <point x="332" y="91" type="curve" smooth="yes"/>
      <point x="332" y="144"/>
      <point x="287" y="187"/>
      <point x="236" y="187" type="curve" smooth="yes"/>
      <point x="184" y="187"/>
      <point x="140" y="144"/>
      <point x="140" y="90" type="curve" smooth="yes"/>
      <point x="140" y="38"/>
      <point x="182" y="-5"/>
      <point x="235" y="-5" type="curve" smooth="yes"/>
    </contour>
  </outline>
</glyph>
<glyph name="at" format="1">
  <advance width="760"/>
  <unicode hex="0040"/>
  <outline>
    <contour>
      <point x="391" y="-66"/>
      <point x="454" y="-39"/>
      <point x="506" y="-4" type="curve"/>
      <point x="449" y="97" type="line"/>
      <point x="420" y="76"/>
      <point x="388" y="52"/>
      <point x="333" y="52" type="curve" smooth="yes"/>
      <point x="238" y="52"/>
      <point x="131" y="123"/>
      <point x="153" y="300" type="curve" smooth="yes"/>
      <point x="172" y="453"/>
      <point x="273" y="567"/>
      <point x="415" y="567" type="curve" smooth="yes"/>
      <point x="541" y="567"/>
      <point x="625" y="476"/>
      <point x="608" y="337" type="curve" smooth="yes"/>
      <point x="602" y="288"/>
      <point x="584" y="235"/>
      <point x="547" y="235" type="curve" smooth="yes"/>
      <point x="525" y="235"/>
      <point x="501" y="253"/>
      <point x="509" y="311" type="curve" smooth="yes"/>
      <point x="533" y="479" type="line"/>
      <point x="409" y="479" type="line"/>
      <point x="384" y="286" type="line" smooth="yes"/>
      <point x="370" y="179"/>
      <point x="431" y="116"/>
      <point x="529" y="116" type="curve" smooth="yes"/>
      <point x="639" y="116"/>
      <point x="721" y="194"/>
      <point x="739" y="333" type="curve" smooth="yes"/>
      <point x="765" y="537"/>
      <point x="627" y="681"/>
      <point x="426" y="681" type="curve" smooth="yes"/>
      <point x="219" y="681"/>
      <point x="50" y="527"/>
      <point x="22" y="301" type="curve" smooth="yes"/>
      <point x="-6" y="75"/>
      <point x="128" y="-66"/>
      <point x="311" y="-66" type="curve" smooth="yes"/>
    </contour>
    <contour>
      <point x="352" y="118"/>
      <point x="432" y="123"/>
      <point x="432" y="234" type="curve" smooth="yes"/>
      <point x="432" y="239"/>
      <point x="405" y="284"/>
      <point x="407" y="299" type="curve"/>
      <point x="412" y="338"/>
      <point x="407" y="305"/>
      <point x="415" y="362" type="curve" smooth="yes"/>
      <point x="432" y="485"/>
      <point x="363" y="486"/>
      <point x="351" y="486" type="curve" smooth="yes"/>
      <point x="283" y="486"/>
      <point x="245" y="456"/>
      <point x="229" y="362" type="curve" smooth="yes"/>
      <point x="228" y="357"/>
      <point x="224" y="330"/>
      <point x="222" y="310" type="curve" smooth="yes"/>
      <point x="220" y="286"/>
      <point x="217" y="261"/>
      <point x="216" y="241" type="curve" smooth="yes"/>
      <point x="214" y="201"/>
      <point x="232" y="118"/>
      <point x="328" y="118" type="curve" smooth="yes"/>
    </contour>
    <contour>
      <point x="342" y="217"/>
      <point x="336" y="227"/>
      <point x="337" y="242" type="curve" smooth="yes"/>
      <point x="338" y="248"/>
      <point x="341" y="271"/>
      <point x="344" y="295" type="curve" smooth="yes"/>
      <point x="347" y="318"/>
      <point x="350" y="342"/>
      <point x="352" y="355" type="curve" smooth="yes"/>
      <point x="354" y="369"/>
      <point x="362" y="379"/>
      <point x="375" y="379" type="curve" smooth="yes"/>
      <point x="387" y="379"/>
      <point x="393" y="369"/>
      <point x="391" y="355" type="curve" smooth="yes"/>
      <point x="390" y="348"/>
      <point x="387" y="327"/>
      <point x="384" y="302" type="curve" smooth="yes"/>
      <point x="381" y="280"/>
      <point x="379" y="256"/>
      <point x="377" y="242" type="curve" smooth="yes"/>
      <point x="375" y="227"/>
      <point x="367" y="217"/>
      <point x="355" y="217" type="curve" smooth="yes"/>
    </contour>
  </outline>
</glyph>
<glyph name="A" format="1">
  <advance width="531"/>
  <unicode hex="0041"/>
  <outline>
    <contour>
      <point x="200" y="0" type="line"/>
      <point x="270" y="438" type="line"/>
      <point x="327" y="0" type="line"/>
      <point x="519" y="0" type="line"/>
      <point x="371" y="700" type="line"/>
      <point x="161" y="700" type="line"/>
      <point x="12" y="0" type="line"/>
    </contour>
    <contour>
      <point x="399" y="95" type="line"/>
      <point x="399" y="239" type="line"/>
      <point x="129" y="239" type="line"/>
      <point x="129" y="95" type="line"/>
    </contour>
    <contour>
      <point x="266" y="700" type="move" name="top"/>
    </contour>
  </outline>
</glyph>
<glyph name="B" format="1">
  <advance width="464"/>
  <unicode hex="0042"/>
  <outline>
    <contour>
      <point x="201" y="539" type="line"/>
      <point x="212" y="539" type="line"/>
      <point x="242" y="539"/>
      <point x="257" y="520"/>
      <point x="257" y="483" type="curve" smooth="yes"/>
      <point x="257" y="447"/>
      <point x="242" y="427"/>
      <point x="212" y="427" type="curve"/>
      <point x="201" y="427" type="line"/>
    </contour>
    <contour>
      <point x="178" y="319" type="line" smooth="yes"/>
      <point x="353" y="319"/>
      <point x="441" y="369"/>
      <point x="441" y="503" type="curve" smooth="yes"/>
      <point x="441" y="640"/>
      <point x="348" y="700"/>
      <point x="209" y="700" type="curve"/>
      <point x="13" y="700" type="line"/>
      <point x="13" y="319" type="line"/>
    </contour>
    <contour>
      <point x="201" y="293" type="line"/>
      <point x="225" y="293" type="line" smooth="yes"/>
      <point x="250" y="293"/>
      <point x="267" y="266"/>
      <point x="267" y="225" type="curve" smooth="yes"/>
      <point x="267" y="182"/>
      <point x="249" y="161"/>
      <point x="224" y="161" type="curve" smooth="yes"/>
      <point x="201" y="161" type="line"/>
    </contour>
    <contour>
      <point x="239" y="0" type="line" smooth="yes"/>
      <point x="358" y="0"/>
      <point x="457" y="65"/>
      <point x="455" y="201" type="curve" smooth="yes"/>
      <point x="452" y="368"/>
      <point x="307" y="418"/>
      <point x="176" y="418" type="curve"/>
      <point x="13" y="418" type="line"/>
      <point x="13" y="0" type="line"/>
    </contour>
  </outline>
</glyph>
<glyph name="C" format="1">
  <advance width="457"/>
  <unicode hex="0043"/>
  <outline>
    <contour>
      <point x="360" y="-8"/>
      <point x="448" y="75"/>
      <point x="448" y="205" type="curve" smooth="yes"/>
      <point x="448" y="224" type="line"/>
      <point x="260" y="231" type="line"/>
      <point x="260" y="189" type="line" smooth="yes"/>
      <point x="260" y="167"/>
      <point x="248" y="153"/>
      <point x="229" y="153" type="curve" smooth="yes"/>
      <point x="210" y="153"/>
      <point x="198" y="167"/>
      <point x="198" y="189" type="curve" smooth="yes"/>
      <point x="198" y="510" type="line" smooth="yes"/>
      <point x="198" y="532"/>
      <point x="210" y="547"/>
      <point x="229" y="547" type="curve" smooth="yes"/>
      <point x="248" y="547"/>
      <point x="260" y="532"/>
      <point x="260" y="510" type="curve" smooth="yes"/>
      <point x="260" y="470" type="line"/>
      <point x="448" y="477" type="line"/>
      <point x="448" y="497" type="line" smooth="yes"/>
      <point x="448" y="627"/>
      <point x="360" y="708"/>
      <point x="229" y="708" type="curve" smooth="yes"/>
      <point x="97" y="708"/>
      <point x="10" y="627"/>
      <point x="10" y="497" type="curve" smooth="yes"/>
      <point x="10" y="205" type="line" smooth="yes"/>
      <point x="10" y="75"/>
      <point x="97" y="-8"/>
      <point x="229" y="-8" type="curve" smooth="yes"/>
    </contour>
    <contour>
      <point x="229" y="708" type="move" name="top"/>
    </contour>
  </outline>
</glyph>
<glyph name="D" format="1">
  <advance width="458"/>
  <unicode hex="0044"/>
  <outline>
    <contour>
      <point x="225" y="0" type="line" smooth="yes"/>
      <point x="359" y="0"/>
      <point x="448" y="80"/>
      <point x="448" y="200" type="curve" smooth="yes"/>
      <point x="448" y="500" type="line" smooth="yes"/>
      <point x="448" y="620"/>
      <point x="359" y="700"/>
      <point x="225" y="700" type="curve" smooth="yes"/>
      <point x="13" y="700" type="line"/>
      <point x="13" y="0" type="line"/>
    </contour>
    <contour>
      <point x="201" y="539" type="line"/>
      <point x="220" y="539" type="line" smooth="yes"/>
      <point x="244" y="539"/>
      <point x="260" y="519"/>
      <point x="260" y="488" type="curve"/>
      <point x="260" y="213" type="line"/>
      <point x="258" y="183"/>
      <point x="242" y="163"/>
      <point x="221" y="162" type="curve" smooth="yes"/>
      <point x="201" y="161" type="line"/>
    </contour>
  </outline>
</glyph>
<glyph name="E" format="1">
  <advance width="419"/>
  <unicode hex="0045"/>
  <outline>
    <contour>
      <point x="413" y="0" type="line"/>
      <point x="413" y="161" type="line"/>
      <point x="201" y="161" type="line"/>
      <point x="201" y="539" type="line"/>
      <point x="413" y="539" type="line"/>
      <point x="413" y="700" type="line"/>
      <point x="13" y="700" type="line"/>
      <point x="13" y="0" type="line"/>
    </contour>
    <contour>
      <point x="321" y="270" type="line"/>
      <point x="321" y="431" type="line"/>
      <point x="89" y="431" type="line"/>
      <point x="89" y="270" type="line"/>
    </contour>
    <contour>
      <point x="213" y="713" type="move" name="top"/>
    </contour>
  </outline>
</glyph>
<glyph name="F" format="1">
  <advance width="422"/>
  <unicode hex="0046"/>
  <outline>
    <contour>
      <point x="204" y="0" type="line"/>
      <point x="204" y="539" type="line"/>
      <point x="416" y="539" type="line"/>
      <point x="416" y="700" type="line"/>
      <point x="16" y="700" type="line"/>
      <point x="16" y="0" type="line"/>
    </contour>
    <contour>
      <point x="324" y="270" type="line"/>
      <point x="324" y="431" type="line"/>
      <point x="92" y="431" type="line"/>
      <point x="92" y="270" type="line"/>
    </contour>
  </outline>
</glyph>
<glyph name="G" format="1">
  <advance width="458"/>
  <unicode hex="0047"/>
  <outline>
    <contour>
      <point x="362" y="-8"/>
      <point x="450" y="72"/>
      <point x="450" y="196" type="curve" smooth="yes"/>
      <point x="450" y="395" type="line"/>
      <point x="233" y="395" type="line"/>
      <point x="233" y="250" type="line"/>
      <point x="262" y="250" type="line"/>
      <point x="262" y="195" type="line" smooth="yes"/>
      <point x="262" y="170"/>
      <point x="250" y="153"/>
      <point x="231" y="153" type="curve" smooth="yes"/>
      <point x="212" y="153"/>
      <point x="200" y="170"/>
      <point x="200" y="195" type="curve" smooth="yes"/>
      <point x="200" y="505" type="line" smooth="yes"/>
      <point x="200" y="530"/>
      <point x="212" y="547"/>
      <point x="231" y="547" type="curve" smooth="yes"/>
      <point x="250" y="547"/>
      <point x="262" y="530"/>
      <point x="262" y="505" type="curve" smooth="yes"/>
      <point x="262" y="455" type="line"/>
      <point x="450" y="455" type="line"/>
      <point x="450" y="503" type="line" smooth="yes"/>
      <point x="450" y="628"/>
      <point x="362" y="708"/>
      <point x="231" y="708" type="curve" smooth="yes"/>
      <point x="99" y="708"/>
      <point x="12" y="629"/>
      <point x="12" y="505" type="curve" smooth="yes"/>
      <point x="12" y="196" type="line" smooth="yes"/>
      <point x="12" y="72"/>
      <point x="99" y="-8"/>
      <point x="231" y="-8" type="curve" smooth="yes"/>
    </contour>
  </outline>
</glyph>
<glyph name="H" format="1">
  <advance width="459"/>
  <unicode hex="0048"/>
  <outline>
    <contour>
      <point x="446" y="0" type="line"/>
      <point x="446" y="700" type="line"/>
      <point x="258" y="700" type="line"/>
      <point x="258" y="0" type="line"/>
    </contour>
    <contour>
      <point x="201" y="0" type="line"/>
      <point x="201" y="700" type="line"/>
      <point x="13" y="700" type="line"/>
      <point x="13" y="0" type="line"/>
    </contour>
    <contour>
      <point x="348" y="270" type="line"/>
      <point x="348" y="431" type="line"/>
      <point x="113" y="431" type="line"/>
      <point x="113" y="270" type="line"/>
    </contour>
  </outline>
</glyph>
<glyph name="I" format="1">
  <advance width="214"/>
  <unicode hex="0049"/>
  <outline>
    <contour>
      <point x="201" y="0" type="line"/>
      <point x="201" y="700" type="line"/>
      <point x="13" y="700" type="line"/>
      <point x="13" y="0" type="line"/>
    </contour>
    <contour>
      <point x="107" y="713" type="move" name="top"/>
    </contour>
  </outline>
</glyph>
<glyph name="J" format="1">
  <advance width="453"/>
  <unicode hex="004A"/>
  <outline>
    <contour>
      <point x="352" y="-8"/>
      <point x="440" y="72"/>
      <point x="440" y="192" type="curve" smooth="yes"/>
      <point x="440" y="700" type="line"/>
      <point x="252" y="700" type="line"/>
      <point x="252" y="190" type="line" smooth="yes"/>
      <point x="252" y="168"/>
      <point x="239" y="153"/>
      <point x="221" y="153" type="curve" smooth="yes"/>
      <point x="204" y="153"/>
      <point x="192" y="168"/>
      <point x="192" y="190" type="curve" smooth="yes"/>
      <point x="192" y="265" type="line"/>
      <point x="4" y="265" type="line"/>
      <point x="4" y="192" type="line" smooth="yes"/>
      <point x="4" y="72"/>
      <point x="91" y="-8"/>
      <point x="221" y="-8" type="curve" smooth="yes"/>
    </contour>
  </outline>
</glyph>
<glyph name="K" format="1">
  <advance width="504"/>
  <unicode hex="004B"/>
  <outline>
    <contour>
      <point x="204" y="0" type="line"/>
      <point x="204" y="183" type="line"/>
      <point x="235" y="249" type="line"/>
      <point x="298" y="-4" type="line"/>
      <point x="496" y="0" type="line"/>
      <point x="358" y="392" type="line"/>
      <point x="498" y="700" type="line"/>
      <point x="300" y="700" type="line"/>
      <point x="204" y="456" type="line"/>
      <point x="204" y="700" type="line"/>
      <point x="16" y="700" type="line"/>
      <point x="16" y="0" type="line"/>
    </contour>
  </outline>
</glyph>
<glyph name="L" format="1">
  <advance width="446"/>
  <unicode hex="004C"/>
  <outline>
    <contour>
      <point x="26" y="0" type="line"/>
      <point x="430" y="0" type="line"/>
      <point x="430" y="161" type="line"/>
      <point x="214" y="161" type="line"/>
      <point x="214" y="700" type="line"/>
      <point x="26" y="700" type="line"/>
    </contour>
    <contour>
      <point x="207" y="0" type="move" name="bottom"/>
    </contour>
    <contour>
      <point x="124" y="700" type="move" name="top"/>
    </contour>
  </outline>
</glyph>
<glyph name="M" format="1">
  <advance width="544"/>
  <unicode hex="004D"/>
  <outline>
    <contour>
      <point x="212" y="0" type="line"/>
      <point x="212" y="439" type="line"/>
      <point x="271" y="310" type="line"/>
      <point x="272" y="310" type="line"/>
      <point x="332" y="436" type="line"/>
      <point x="332" y="0" type="line"/>
      <point x="520" y="0" type="line"/>
      <point x="520" y="700" type="line"/>
      <point x="337" y="700" type="line"/>
      <point x="272" y="560" type="line"/>
      <point x="207" y="700" type="line"/>
      <point x="24" y="700" type="line"/>
      <point x="24" y="0" type="line"/>
    </contour>
  </outline>
</glyph>
<glyph name="N" format="1">
  <advance width="508"/>
  <unicode hex="004E"/>
  <outline>
    <contour>
      <point x="202" y="0" type="line"/>
      <point x="200" y="346" type="line"/>
      <point x="286" y="0" type="line"/>
      <point x="492" y="0" type="line"/>
      <point x="492" y="700" type="line"/>
      <point x="306" y="700" type="line"/>
      <point x="307" y="356" type="line"/>
      <point x="220" y="700" type="line"/>
      <point x="16" y="700" type="line"/>
      <point x="16" y="0" type="line"/>
    </contour>
    <contour>
      <point x="260" y="713" type="move" name="top"/>
    </contour>
  </outline>
</glyph>
<glyph name="O" format="1">
  <advance width="464"/>
  <unicode hex="004F"/>
  <outline>
    <contour>
      <point x="366" y="-8"/>
      <point x="454" y="75"/>
      <point x="454" y="206" type="curve" smooth="yes"/>
      <point x="454" y="494" type="line" smooth="yes"/>
      <point x="454" y="625"/>
      <point x="366" y="708"/>
      <point x="232" y="708" type="curve" smooth="yes"/>
      <point x="97" y="708"/>
      <point x="10" y="625"/>
      <point x="10" y="494" type="curve" smooth="yes"/>
      <point x="10" y="206" type="line" smooth="yes"/>
      <point x="10" y="75"/>
      <point x="97" y="-8"/>
      <point x="232" y="-8" type="curve" smooth="yes"/>
    </contour>
    <contour>
      <point x="210" y="153"/>
      <point x="198" y="171"/>
      <point x="198" y="198" type="curve" smooth="yes"/>
      <point x="198" y="502" type="line" smooth="yes"/>
      <point x="198" y="529"/>
      <point x="210" y="547"/>
      <point x="232" y="547" type="curve" smooth="yes"/>
      <point x="254" y="547"/>
      <point x="266" y="529"/>
      <point x="266" y="502" type="curve" smooth="yes"/>
      <point x="266" y="198" type="line" smooth="yes"/>
      <point x="266" y="171"/>
      <point x="254" y="153"/>
      <point x="232" y="153" type="curve" smooth="yes"/>
    </contour>
    <contour>
      <point x="232" y="708" type="move" name="top"/>
    </contour>
  </outline>
</glyph>
<glyph name="P" format="1">
  <advance width="461"/>
  <unicode hex="0050"/>
  <outline>
    <contour>
      <point x="200" y="0" type="line"/>
      <point x="200" y="539" type="line"/>
      <point x="219" y="539" type="line" smooth="yes"/>
      <point x="248" y="539"/>
      <point x="269" y="517"/>
      <point x="269" y="471" type="curve" smooth="yes"/>
      <point x="269" y="426"/>
      <point x="248" y="405"/>
      <point x="219" y="405" type="curve" smooth="yes"/>
      <point x="184" y="405" type="line"/>
      <point x="184" y="260" type="line"/>
      <point x="262" y="260" type="line" smooth="yes"/>
      <point x="378" y="260"/>
      <point x="457" y="345"/>
      <point x="457" y="475" type="curve" smooth="yes"/>
      <point x="457" y="608"/>
      <point x="374" y="700"/>
      <point x="252" y="700" type="curve" smooth="yes"/>
      <point x="12" y="700" type="line"/>
      <point x="12" y="0" type="line"/>
    </contour>
  </outline>
</glyph>
<glyph name="Q" format="1">
  <advance width="464"/>
  <unicode hex="0051"/>
  <outline>
    <contour>
      <point x="320" y="-87" type="line"/>
      <point x="320" y="113" type="line"/>
      <point x="132" y="113" type="line"/>
      <point x="132" y="-87" type="line"/>
    </contour>
    <contour>
      <point x="209" y="153"/>
      <point x="198" y="170"/>
      <point x="198" y="195" type="curve" smooth="yes"/>
      <point x="198" y="505" type="line" smooth="yes"/>
      <point x="198" y="530"/>
      <point x="209" y="547"/>
      <point x="226" y="547" type="curve" smooth="yes"/>
      <point x="244" y="547"/>
      <point x="255" y="530"/>
      <point x="255" y="505" type="curve" smooth="yes"/>
      <point x="255" y="195" type="line" smooth="yes"/>
      <point x="255" y="170"/>
      <point x="244" y="153"/>
      <point x="226" y="153" type="curve" smooth="yes"/>
    </contour>
    <contour>
      <point x="357" y="-8"/>
      <point x="443" y="81"/>
      <point x="443" y="215" type="curve" smooth="yes"/>
      <point x="443" y="485" type="line" smooth="yes"/>
      <point x="443" y="619"/>
      <point x="357" y="708"/>
      <point x="226" y="708" type="curve" smooth="yes"/>
      <point x="96" y="708"/>
      <point x="10" y="619"/>
      <point x="10" y="485" type="curve" smooth="yes"/>
      <point x="10" y="215" type="line" smooth="yes"/>
      <point x="10" y="81"/>
      <point x="96" y="-8"/>
      <point x="226" y="-8" type="curve" smooth="yes"/>
    </contour>
  </outline>
</glyph>
<glyph name="R" format="1">
  <advance width="472"/>
  <unicode hex="0052"/>
  <outline>
    <contour>
      <point x="201" y="0" type="line"/>
      <point x="201" y="539" type="line"/>
      <point x="220" y="539" type="line" smooth="yes"/>
      <point x="249" y="539"/>
      <point x="270" y="518"/>
      <point x="270" y="475" type="curve" smooth="yes"/>
      <point x="270" y="434"/>
      <point x="249" y="412"/>
      <point x="220" y="412" type="curve" smooth="yes"/>
      <point x="185" y="412" type="line"/>
      <point x="185" y="269" type="line"/>
      <point x="263" y="269" type="line" smooth="yes"/>
      <point x="379" y="269"/>
      <point x="458" y="352"/>
      <point x="458" y="477" type="curve" smooth="yes"/>
      <point x="458" y="608"/>
      <point x="375" y="700"/>
      <point x="253" y="700" type="curve" smooth="yes"/>
      <point x="13" y="700" type="line"/>
      <point x="13" y="0" type="line"/>
    </contour>
    <contour>
      <point x="467" y="0" type="line"/>
      <point x="368" y="349" type="line"/>
      <point x="189" y="349" type="line"/>
      <point x="273" y="0" type="line"/>
    </contour>
  </outline>
</glyph>
<glyph name="S" format="1">
  <advance width="467"/>
  <unicode hex="0053"/>
  <outline>
    <contour>
      <point x="362" y="-8"/>
      <point x="449" y="70"/>
      <point x="449" y="187" type="curve" smooth="yes"/>
      <point x="449" y="287"/>
      <point x="388" y="338"/>
      <point x="283" y="412" type="curve" smooth="yes"/>
      <point x="220" y="457"/>
      <point x="203" y="479"/>
      <point x="203" y="509" type="curve" smooth="yes"/>
      <point x="203" y="533"/>
      <point x="214" y="547"/>
      <point x="231" y="547" type="curve" smooth="yes"/>
      <point x="248" y="547"/>
      <point x="260" y="533"/>
      <point x="260" y="513" type="curve" smooth="yes"/>
      <point x="260" y="472" type="line"/>
      <point x="445" y="472" type="line"/>
      <point x="445" y="509" type="line" smooth="yes"/>
      <point x="445" y="628"/>
      <point x="360" y="708"/>
      <point x="231" y="708" type="curve" smooth="yes"/>
      <point x="103" y="708"/>
      <point x="18" y="628"/>
      <point x="18" y="510" type="curve" smooth="yes"/>
      <point x="18" y="387"/>
      <point x="109" y="322"/>
      <point x="181" y="272" type="curve" smooth="yes"/>
      <point x="251" y="224"/>
      <point x="264" y="206"/>
      <point x="264" y="185" type="curve" smooth="yes"/>
      <point x="264" y="166"/>
      <point x="252" y="153"/>
      <point x="236" y="153" type="curve" smooth="yes"/>
      <point x="220" y="153"/>
      <point x="208" y="167"/>
      <point x="208" y="189" type="curve" smooth="yes"/>
      <point x="208" y="229" type="line"/>
      <point x="22" y="229" type="line"/>
      <point x="22" y="180" type="line" smooth="yes"/>
      <point x="22" y="70"/>
      <point x="106" y="-8"/>
      <point x="235" y="-8" type="curve" smooth="yes"/>
    </contour>
    <contour>
      <point x="231" y="708" type="move" name="top"/>
    </contour>
  </outline>
</glyph>
<glyph name="T" format="1">
  <advance width="499"/>
  <unicode hex="0054"/>
  <outline>
    <contour>
      <point x="154" y="0" type="line"/>
      <point x="342" y="0" type="line"/>
      <point x="342" y="689" type="line"/>
      <point x="154" y="689" type="line"/>
    </contour>
    <contour>
      <point x="18" y="539" type="line"/>
      <point x="481" y="539" type="line"/>
      <point x="481" y="700" type="line"/>
      <point x="18" y="700" type="line"/>
    </contour>
    <contour>
      <point x="243" y="0" type="move" name="bottom"/>
    </contour>
    <contour>
      <point x="252" y="700" type="move" name="top"/>
    </contour>
  </outline>
</glyph>
<glyph name="U" format="1">
  <advance width="457"/>
  <unicode hex="0055"/>
  <outline>
    <contour>
      <point x="359" y="-8"/>
      <point x="445" y="78"/>
      <point x="445" y="208" type="curve" smooth="yes"/>
      <point x="445" y="700" type="line"/>
      <point x="257" y="700" type="line"/>
      <point x="257" y="190" type="line" smooth="yes"/>
      <point x="257" y="168"/>
      <point x="246" y="153"/>
      <point x="229" y="153" type="curve" smooth="yes"/>
      <point x="211" y="153"/>
      <point x="200" y="168"/>
      <point x="200" y="190" type="curve" smooth="yes"/>
      <point x="200" y="700" type="line"/>
      <point x="12" y="700" type="line"/>
      <point x="12" y="208" type="line" smooth="yes"/>
      <point x="12" y="78"/>
      <point x="98" y="-8"/>
      <point x="229" y="-8" type="curve" smooth="yes"/>
    </contour>
    <contour>
      <point x="229" y="713" type="move" name="top"/>
    </contour>
  </outline>
</glyph>
<glyph name="V" format="1">
  <advance width="513"/>
  <unicode hex="0056"/>
  <outline>
    <contour>
      <point x="357" y="0" type="line"/>
      <point x="505" y="700" type="line"/>
      <point x="307" y="700" type="line"/>
      <point x="261" y="305" type="line"/>
      <point x="211" y="700" type="line"/>
      <point x="8" y="700" type="line"/>
      <point x="154" y="0" type="line"/>
    </contour>
  </outline>
</glyph>
<glyph name="W" format="1">
  <advance width="702"/>
  <unicode hex="0057"/>
  <outline>
    <contour>
      <point x="312" y="0" type="line"/>
      <point x="351" y="362" type="line"/>
      <point x="399" y="0" type="line"/>
      <point x="565" y="0" type="line"/>
      <point x="699" y="700" type="line"/>
      <point x="505" y="700" type="line"/>
      <point x="476" y="353" type="line"/>
      <point x="421" y="700" type="line"/>
      <point x="275" y="700" type="line"/>
      <point x="236" y="353" type="line"/>
      <point x="201" y="700" type="line"/>
      <point x="3" y="700" type="line"/>
      <point x="145" y="0" type="line"/>
    </contour>
  </outline>
</glyph>
<glyph name="X" format="1">
  <advance width="485"/>
  <unicode hex="0058"/>
  <outline>
    <contour>
      <point x="194" y="0" type="line"/>
      <point x="243" y="162" type="line"/>
      <point x="292" y="0" type="line"/>
      <point x="482" y="0" type="line"/>
      <point x="342" y="350" type="line"/>
      <point x="482" y="700" type="line"/>
      <point x="291" y="700" type="line"/>
      <point x="243" y="537" type="line"/>
      <point x="195" y="700" type="line"/>
      <point x="3" y="700" type="line"/>
      <point x="143" y="350" type="line"/>
      <point x="3" y="0" type="line"/>
    </contour>
  </outline>
</glyph>
<glyph name="Y" format="1">
  <advance width="490"/>
  <unicode hex="0059"/>
  <outline>
    <contour>
      <point x="338" y="2" type="line"/>
      <point x="338" y="251" type="line"/>
      <point x="487" y="700" type="line"/>
      <point x="289" y="700" type="line"/>
      <point x="245" y="471" type="line"/>
      <point x="201" y="700" type="line"/>
      <point x="3" y="700" type="line"/>
      <point x="150" y="251" type="line"/>
      <point x="150" y="2" type="line"/>
    </contour>
    <contour>
      <point x="245" y="699" type="move" name="top"/>
    </contour>
  </outline>
</glyph>
<glyph name="Z" format="1">
  <advance width="416"/>
  <unicode hex="005A"/>
  <outline>
    <contour>
      <point x="406" y="0" type="line"/>
      <point x="406" y="170" type="line"/>
      <point x="204" y="170" type="line"/>
      <point x="406" y="530" type="line"/>
      <point x="406" y="700" type="line"/>
      <point x="8" y="700" type="line"/>
      <point x="8" y="530" type="line"/>
      <point x="208" y="530" type="line"/>
      <point x="8" y="170" type="line"/>
      <point x="8" y="0" type="line"/>
    </contour>
    <contour>
      <point x="201" y="713" type="move" name="top"/>
    </contour>
  </outline>
</glyph>
<glyph name="bracketleft" format="1">
  <advance width="373"/>
  <unicode hex="005B"/>
  <outline>
    <contour>
      <point x="293" y="-164" type="line"/>
      <point x="293" y="6" type="line"/>
      <point x="218" y="6" type="line"/>
      <point x="218" y="648" type="line"/>
      <point x="293" y="648" type="line"/>
      <point x="293" y="818" type="line"/>
      <point x="30" y="818" type="line"/>
      <point x="30" y="-164" type="line"/>
    </contour>
  </outline>
</glyph>
<glyph name="asciicircum" format="1">
  <advance width="440"/>
  <unicode hex="005E"/>
  <outline>
    <contour>
      <point x="175" y="291" type="line"/>
      <point x="220" y="498" type="line"/>
      <point x="265" y="291" type="line"/>
      <point x="422" y="291" type="line"/>
      <point x="296" y="700" type="line"/>
      <point x="141" y="700" type="line"/>
      <point x="18" y="291" type="line"/>
    </contour>
  </outline>
</glyph>
<glyph name="a" format="1">
  <advance width="475"/>
  <unicode hex="0061"/>
  <outline>
    <contour>
      <point x="451" y="0" type="line"/>
      <point x="451" y="360" type="line" smooth="yes"/>
      <point x="451" y="461"/>
      <point x="364" y="528"/>
      <point x="234" y="528" type="curve" smooth="yes"/>
      <point x="107" y="528"/>
      <point x="19" y="459"/>
      <point x="19" y="341" type="curve"/>
      <point x="208" y="337" type="line"/>
      <point x="208" y="355"/>
      <point x="219" y="367"/>
      <point x="234" y="367" type="curve" smooth="yes"/>
      <point x="251" y="367"/>
      <point x="263" y="355"/>
      <point x="263" y="337" type="curve" smooth="yes"/>
      <point x="263" y="0" type="line"/>
    </contour>
    <contour>
      <point x="266" y="-7"/>
      <point x="302" y="59"/>
      <point x="302" y="197" type="curve"/>
      <point x="302" y="313" type="line"/>
      <point x="223" y="313" type="line"/>
      <point x="97" y="313"/>
      <point x="14" y="297"/>
      <point x="14" y="151" type="curve" smooth="yes"/>
      <point x="14" y="7"/>
      <point x="92" y="-9"/>
      <point x="161" y="-8" type="curve" smooth="yes"/>
    </contour>
    <contour>
      <point x="218" y="125"/>
      <point x="206" y="134"/>
      <point x="206" y="153" type="curve" smooth="yes"/>
      <point x="206" y="170"/>
      <point x="218" y="185"/>
      <point x="237" y="185" type="curve"/>
      <point x="263" y="185" type="line"/>
      <point x="263" y="152" type="line" smooth="yes"/>
      <point x="263" y="135"/>
      <point x="245" y="125"/>
      <point x="231" y="125" type="curve" smooth="yes"/>
    </contour>
    <contour>
      <point x="234" y="528" type="move" name="top"/>
    </contour>
  </outline>
</glyph>
<glyph name="b" format="1">
  <advance width="442"/>
  <unicode hex="0062"/>
  <outline>
    <contour>
      <point x="200" y="0" type="line"/>
      <point x="200" y="700" type="line"/>
      <point x="12" y="700" type="line"/>
      <point x="12" y="0" type="line"/>
    </contour>
    <component base="b.bowl" xOffset="166"/>
  </outline>
</glyph>
<glyph name="c" format="1">
  <advance width="439"/>
  <unicode hex="0063"/>
  <outline>
    <contour>
      <point x="354" y="-8"/>
      <point x="430" y="57"/>
      <point x="430" y="170" type="curve" smooth="yes"/>
      <point x="430" y="181"/>
      <point x="430" y="197"/>
      <point x="430" y="213" type="curve"/>
      <point x="242" y="215" type="line"/>
      <point x="242" y="205"/>
      <point x="242" y="195"/>
      <point x="242" y="185" type="curve" smooth="yes"/>
      <point x="242" y="166"/>
      <point x="233" y="153"/>
      <point x="220" y="153" type="curve" smooth="yes"/>
      <point x="206" y="153"/>
      <point x="197" y="166"/>
      <point x="197" y="185" type="curve" smooth="yes"/>
      <point x="197" y="210"/>
      <point x="197" y="235"/>
      <point x="197" y="260" type="curve" smooth="yes"/>
      <point x="197" y="285"/>
      <point x="197" y="310"/>
      <point x="197" y="335" type="curve" smooth="yes"/>
      <point x="197" y="354"/>
      <point x="206" y="367"/>
      <point x="220" y="367" type="curve" smooth="yes"/>
      <point x="233" y="367"/>
      <point x="242" y="354"/>
      <point x="242" y="335" type="curve" smooth="yes"/>
      <point x="242" y="325"/>
      <point x="242" y="316"/>
      <point x="242" y="306" type="curve"/>
      <point x="430" y="313" type="line"/>
      <point x="430" y="327"/>
      <point x="430" y="340"/>
      <point x="430" y="350" type="curve" smooth="yes"/>
      <point x="430" y="456"/>
      <point x="354" y="528"/>
      <point x="220" y="528" type="curve" smooth="yes"/>
      <point x="86" y="528"/>
      <point x="9" y="456"/>
      <point x="9" y="350" type="curve" smooth="yes"/>
      <point x="9" y="327"/>
      <point x="9" y="283"/>
      <point x="9" y="260" type="curve" smooth="yes"/>
      <point x="9" y="237"/>
      <point x="9" y="193"/>
      <point x="9" y="170" type="curve" smooth="yes"/>
      <point x="9" y="57"/>
      <point x="86" y="-8"/>
      <point x="220" y="-8" type="curve" smooth="yes"/>
    </contour>
    <contour>
      <point x="220" y="532" type="move" name="top"/>
    </contour>
  </outline>
</glyph>
<glyph name="e" format="1">
  <advance width="451"/>
  <unicode hex="0065"/>
  <outline>
    <contour>
      <point x="368" y="-8"/>
      <point x="433" y="60"/>
      <point x="435" y="181" type="curve"/>
      <point x="252" y="192" type="line"/>
      <point x="252" y="176"/>
      <point x="246" y="153"/>
      <point x="227" y="153" type="curve" smooth="yes"/>
      <point x="213" y="153"/>
      <point x="204" y="166"/>
      <point x="204" y="185" type="curve" smooth="yes"/>
      <point x="204" y="210"/>
      <point x="204" y="235"/>
      <point x="204" y="260" type="curve" smooth="yes"/>
      <point x="204" y="285"/>
      <point x="204" y="310"/>
      <point x="204" y="335" type="curve" smooth="yes"/>
      <point x="204" y="354"/>
      <point x="213" y="367"/>
      <point x="227" y="367" type="curve" smooth="yes"/>
      <point x="240" y="367"/>
      <point x="249" y="354"/>
      <point x="249" y="335" type="curve" smooth="yes"/>
      <point x="249" y="316"/>
      <point x="249" y="298"/>
      <point x="249" y="279" type="curve"/>
      <point x="312" y="305" type="line"/>
      <point x="154" y="305" type="line"/>
      <point x="154" y="213" type="line"/>
      <point x="437" y="213" type="line"/>
      <point x="437" y="221"/>
      <point x="437" y="291"/>
      <point x="437" y="350" type="curve" smooth="yes"/>
      <point x="437" y="456"/>
      <point x="361" y="528"/>
      <point x="227" y="528" type="curve" smooth="yes"/>
      <point x="93" y="528"/>
      <point x="16" y="456"/>
      <point x="16" y="350" type="curve" smooth="yes"/>
      <point x="16" y="327"/>
      <point x="16" y="283"/>
      <point x="16" y="260" type="curve" smooth="yes"/>
      <point x="16" y="230"/>
      <point x="16" y="200"/>
      <point x="16" y="170" type="curve" smooth="yes"/>
      <point x="16" y="57"/>
      <point x="93" y="-8"/>
      <point x="227" y="-8" type="curve" smooth="yes"/>
    </contour>
    <contour>
      <point x="227" y="528" type="move" name="top"/>
    </contour>
  </outline>
</glyph>
<glyph name="f" format="1">
  <advance width="298"/>
  <unicode hex="0066"/>
  <outline>
    <contour>
      <point x="235" y="0" type="line"/>
      <point x="235" y="539" type="line" smooth="yes"/>
      <point x="235" y="557"/>
      <point x="248" y="572"/>
      <point x="272" y="575" type="curve"/>
      <point x="279" y="575" type="line"/>
      <point x="279" y="700" type="line"/>
      <point x="272" y="700" type="line"/>
      <point x="130" y="707"/>
      <point x="47" y="683"/>
      <point x="47" y="556" type="curve" smooth="yes"/>
      <point x="47" y="0" type="line"/>
    </contour>
    <contour>
      <point x="293" y="390" type="line"/>
      <point x="293" y="520" type="line"/>
      <point x="6" y="520" type="line"/>
      <point x="6" y="390" type="line"/>
    </contour>
  </outline>
</glyph>
<glyph name="g" format="1">
  <advance width="441"/>
  <unicode hex="0067"/>
  <outline>
    <contour>
      <point x="376" y="-233"/>
      <point x="429" y="-115"/>
      <point x="429" y="34" type="curve" smooth="yes"/>
      <point x="429" y="520" type="line"/>
      <point x="241" y="520" type="line"/>
      <point x="241" y="54" type="line" smooth="yes"/>
      <point x="241" y="-14"/>
      <point x="234" y="-56"/>
      <point x="89" y="-45" type="curve"/>
      <point x="89" y="-207" type="line"/>
    </contour>
    <component base="b.bowl" xOffset="276" xScale="-1"/>
  </outline>
</glyph>
<glyph name="h" format="1">
  <advance width="464"/>
  <unicode hex="0068"/>
  <outline>
    <contour>
      <point x="210" y="0" type="line"/>
      <point x="210" y="700" type="line"/>
      <point x="22" y="700" type="line"/>
      <point x="22" y="0" type="line"/>
    </contour>
    <component base="n.curve" xOffset="174"/>
  </outline>
</glyph>
<glyph name="i" format="1">
  <advance width="231"/>
  <unicode hex="0069"/>
  <outline>
    <contour>
      <point x="209" y="0" type="line"/>
      <point x="209" y="520" type="line"/>
      <point x="21" y="520" type="line"/>
      <point x="21" y="0" type="line"/>
    </contour>
    <contour>
      <point x="178" y="542"/>
      <point x="219" y="584"/>
      <point x="219" y="647" type="curve" smooth="yes"/>
      <point x="219" y="710"/>
      <point x="178" y="752"/>
      <point x="115" y="752" type="curve" smooth="yes"/>
      <point x="53" y="752"/>
      <point x="11" y="710"/>
      <point x="11" y="647" type="curve" smooth="yes"/>
      <point x="11" y="584"/>
      <point x="53" y="542"/>
      <point x="115" y="542" type="curve" smooth="yes"/>
    </contour>
  </outline>
</glyph>
<glyph name="j" format="1">
  <advance width="232"/>
  <unicode hex="006A"/>
  <outline>
    <contour>
      <point x="-74" y="-201" type="line"/>
      <point x="205" y="-210"/>
      <point x="210" y="-120"/>
      <point x="210" y="29" type="curve" smooth="yes"/>
      <point x="210" y="520" type="line"/>
      <point x="22" y="520" type="line"/>
      <point x="22" y="29" type="line" smooth="yes"/>
      <point x="22" y="-19"/>
      <point x="7" y="-49"/>
      <point x="-74" y="-41" type="curve"/>
    </contour>
    <contour>
      <point x="116" y="542" type="curve" smooth="yes"/>
      <point x="177" y="542"/>
      <point x="220" y="589"/>
      <point x="220" y="647" type="curve" smooth="yes"/>
      <point x="220" y="705"/>
      <point x="168" y="752"/>
      <point x="116" y="752" type="curve" smooth="yes"/>
      <point x="63" y="752"/>
      <point x="12" y="705"/>
      <point x="12" y="647" type="curve" smooth="yes"/>
      <point x="12" y="589"/>
      <point x="54" y="542"/>
    </contour>
  </outline>
</glyph>
<glyph name="k" format="1">
  <advance width="469"/>
  <unicode hex="006B"/>
  <outline>
    <contour>
      <point x="204" y="0" type="line"/>
      <point x="204" y="136" type="line"/>
      <point x="216" y="165" type="line"/>
      <point x="269" y="0" type="line"/>
      <point x="463" y="0" type="line"/>
      <point x="332" y="315" type="line"/>
      <point x="457" y="520" type="line"/>
      <point x="262" y="520" type="line"/>
      <point x="204" y="390" type="line"/>
      <point x="204" y="700" type="line"/>
      <point x="16" y="700" type="line"/>
      <point x="16" y="0" type="line"/>
    </contour>
  </outline>
</glyph>
<glyph name="l" format="1">
  <advance width="234"/>
  <unicode hex="006C"/>
  <outline>
    <contour>
      <point x="210" y="0" type="line"/>
      <point x="210" y="700" type="line"/>
      <point x="22" y="700" type="line"/>
      <point x="22" y="0" type="line"/>
    </contour>
  </outline>
</glyph>
<glyph name="m" format="1">
  <advance width="696"/>
  <unicode hex="006D"/>
  <outline>
    <contour>
      <point x="212" y="0" type="line"/>
      <point x="212" y="520" type="line"/>
      <point x="24" y="520" type="line"/>
      <point x="24" y="0" type="line"/>
    </contour>
    <contour>
      <point x="444" y="0" type="line"/>
      <point x="444" y="348" type="line" smooth="yes"/>
      <point x="444" y="459"/>
      <point x="403" y="528"/>
      <point x="302" y="528" type="curve" smooth="yes"/>
      <point x="265" y="528"/>
      <point x="165" y="515"/>
      <point x="166" y="335" type="curve"/>
      <point x="212" y="335" type="line"/>
      <point x="212" y="356"/>
      <point x="220" y="367"/>
      <point x="235" y="367" type="curve" smooth="yes"/>
      <point x="249" y="367"/>
      <point x="256" y="356"/>
      <point x="256" y="335" type="curve" smooth="yes"/>
      <point x="256" y="0" type="line"/>
    </contour>
    <contour>
      <point x="676" y="0" type="line"/>
      <point x="676" y="348" type="line" smooth="yes"/>
      <point x="676" y="459"/>
      <point x="635" y="528"/>
      <point x="534" y="528" type="curve" smooth="yes"/>
      <point x="493" y="528"/>
      <point x="393" y="515"/>
      <point x="394" y="335" type="curve"/>
      <point x="444" y="335" type="line"/>
      <point x="444" y="356"/>
      <point x="452" y="367"/>
      <point x="467" y="367" type="curve" smooth="yes"/>
      <point x="481" y="367"/>
      <point x="488" y="356"/>
      <point x="488" y="335" type="curve" smooth="yes"/>
      <point x="488" y="0" type="line"/>
    </contour>
  </outline>
</glyph>
<glyph name="n" format="1">
  <advance width="462"/>
  <unicode hex="006E"/>
  <outline>
    <contour>
      <point x="210" y="0" type="line"/>
      <point x="210" y="520" type="line"/>
      <point x="22" y="520" type="line"/>
      <point x="22" y="0" type="line"/>
    </contour>
    <component base="n.curve" xOffset="174"/>
    <contour>
      <point x="233" y="520" type="move" name="top"/>
    </contour>
  </outline>
</glyph>
<glyph name="o" format="1">
  <advance width="445"/>
  <unicode hex="006F"/>
  <outline>
    <contour>
      <point x="359" y="-8"/>
      <point x="435" y="57"/>
      <point x="435" y="170" type="curve" smooth="yes"/>
      <point x="435" y="193"/>
      <point x="435" y="237"/>
      <point x="435" y="260" type="curve" smooth="yes"/>
      <point x="435" y="283"/>
      <point x="435" y="327"/>
      <point x="435" y="350" type="curve" smooth="yes"/>
      <point x="435" y="456"/>
      <point x="359" y="528"/>
      <point x="223" y="528" type="curve" smooth="yes"/>
      <point x="87" y="528"/>
      <point x="10" y="456"/>
      <point x="10" y="350" type="curve" smooth="yes"/>
      <point x="10" y="327"/>
      <point x="10" y="283"/>
      <point x="10" y="260" type="curve" smooth="yes"/>
      <point x="10" y="237"/>
      <point x="10" y="193"/>
      <point x="10" y="170" type="curve" smooth="yes"/>
      <point x="10" y="57"/>
      <point x="87" y="-8"/>
      <point x="223" y="-8" type="curve" smooth="yes"/>
    </contour>
    <contour>
      <point x="208" y="153"/>
      <point x="198" y="166"/>
      <point x="198" y="185" type="curve" smooth="yes"/>
      <point x="198" y="210"/>
      <point x="198" y="235"/>
      <point x="198" y="260" type="curve"/>
      <point x="198" y="285"/>
      <point x="198" y="310"/>
      <point x="198" y="335" type="curve" smooth="yes"/>
      <point x="198" y="354"/>
      <point x="208" y="367"/>
      <point x="223" y="367" type="curve" smooth="yes"/>
      <point x="237" y="367"/>
      <point x="247" y="354"/>
      <point x="247" y="335" type="curve" smooth="yes"/>
      <point x="247" y="310"/>
      <point x="247" y="285"/>
      <point x="247" y="260" type="curve" smooth="yes"/>
      <point x="247" y="235"/>
      <point x="247" y="210"/>
      <point x="247" y="185" type="curve" smooth="yes"/>
      <point x="247" y="166"/>
      <point x="237" y="153"/>
      <point x="223" y="153" type="curve" smooth="yes"/>
    </contour>
    <contour>
      <point x="223" y="528" type="move" name="top"/>
    </contour>
  </outline>
</glyph>
<glyph name="r" format="1">
  <advance width="347"/>
  <unicode hex="0072"/>
  <outline>
    <contour>
      <point x="212" y="273" type="line"/>
      <point x="212" y="294"/>
      <point x="224" y="318"/>
      <point x="243" y="327" type="curve" smooth="yes"/>
      <point x="267" y="338"/>
      <point x="306" y="333"/>
      <point x="316" y="325" type="curve"/>
      <point x="345" y="510" type="line"/>
      <point x="336" y="519"/>
      <point x="320" y="527"/>
      <point x="295" y="527" type="curve" smooth="yes"/>
      <point x="178" y="527"/>
      <point x="184" y="352"/>
      <point x="184" y="273" type="curve"/>
    </contour>
    <contour>
      <point x="212" y="1" type="line"/>
      <point x="212" y="520" type="line"/>
      <point x="24" y="520" type="line"/>
      <point x="24" y="1" type="line"/>
    </contour>
  </outline>
</glyph>
<glyph name="s" format="1">
  <advance width="431"/>
  <unicode hex="0073"/>
  <outline>
    <contour>
      <point x="341" y="-8"/>
      <point x="424" y="52"/>
      <point x="424" y="151" type="curve" smooth="yes"/>
      <point x="424" y="253"/>
      <point x="335" y="285"/>
      <point x="264" y="306" type="curve" smooth="yes"/>
      <point x="237" y="314"/>
      <point x="194" y="327"/>
      <point x="194" y="357" type="curve" smooth="yes"/>
      <point x="194" y="368"/>
      <point x="200" y="383"/>
      <point x="215" y="383" type="curve" smooth="yes"/>
      <point x="227" y="383"/>
      <point x="237" y="374"/>
      <point x="237" y="357" type="curve" smooth="yes"/>
      <point x="237" y="336" type="line"/>
      <point x="412" y="336" type="line"/>
      <point x="412" y="346" type="line" smooth="yes"/>
      <point x="412" y="455"/>
      <point x="333" y="528"/>
      <point x="210" y="528" type="curve" smooth="yes"/>
      <point x="93" y="528"/>
      <point x="14" y="463"/>
      <point x="14" y="358" type="curve" smooth="yes"/>
      <point x="14" y="258"/>
      <point x="86" y="215"/>
      <point x="142" y="197" type="curve" smooth="yes"/>
      <point x="185" y="183"/>
      <point x="235" y="177"/>
      <point x="235" y="149" type="curve" smooth="yes"/>
      <point x="235" y="138"/>
      <point x="228" y="130"/>
      <point x="216" y="130" type="curve" smooth="yes"/>
      <point x="204" y="130"/>
      <point x="187" y="139"/>
      <point x="187" y="161" type="curve" smooth="yes"/>
      <point x="187" y="174" type="line"/>
      <point x="7" y="174" type="line"/>
      <point x="7" y="156" type="line"/>
      <point x="7" y="58"/>
      <point x="90" y="-8"/>
      <point x="218" y="-8" type="curve" smooth="yes"/>
    </contour>
    <contour>
      <point x="210" y="528" type="move" name="top"/>
    </contour>
  </outline>
</glyph>
<glyph name="t" format="1">
  <advance width="317"/>
  <unicode hex="0074"/>
  <outline>
    <contour>
      <point x="290" y="7" type="line"/>
      <point x="290" y="169" type="line"/>
      <point x="273" y="169" type="line"/>
      <point x="255" y="168"/>
      <point x="242" y="173"/>
      <point x="242" y="199" type="curve"/>
      <point x="242" y="650" type="line"/>
      <point x="62" y="650" type="line"/>
      <point x="62" y="116" type="line"/>
      <point x="62" y="17"/>
      <point x="129" y="-11"/>
      <point x="227" y="0" type="curve" smooth="yes"/>
    </contour>
    <contour>
      <point x="305" y="390" type="line"/>
      <point x="305" y="520" type="line"/>
      <point x="14" y="520" type="line"/>
      <point x="14" y="390" type="line"/>
    </contour>
  </outline>
</glyph>
<glyph name="u" format="1">
  <advance width="441"/>
  <unicode hex="0075"/>
  <outline>
    <contour>
      <point x="215" y="-8"/>
      <point x="272" y="8"/>
      <point x="271" y="185" type="curve"/>
      <point x="242" y="185" type="line"/>
      <point x="242" y="164"/>
      <point x="234" y="153"/>
      <point x="219" y="153" type="curve" smooth="yes"/>
      <point x="205" y="153"/>
      <point x="198" y="164"/>
      <point x="198" y="185" type="curve" smooth="yes"/>
      <point x="198" y="520" type="line"/>
      <point x="10" y="520" type="line"/>
      <point x="10" y="144" type="line" smooth="yes"/>
      <point x="10" y="31"/>
      <point x="82" y="-8"/>
      <point x="152" y="-8" type="curve" smooth="yes"/>
    </contour>
    <contour>
      <point x="430" y="0" type="line"/>
      <point x="430" y="520" type="line"/>
      <point x="242" y="520" type="line"/>
      <point x="242" y="0" type="line"/>
    </contour>
    <contour>
      <point x="219" y="520" type="move" name="top"/>
    </contour>
  </outline>
</glyph>
<glyph name="v" format="1">
  <advance width="464"/>
  <unicode hex="0076"/>
  <outline>
    <contour>
      <point x="336" y="0" type="line"/>
      <point x="461" y="518" type="line"/>
      <point x="257" y="520" type="line"/>
      <point x="232" y="256" type="line"/>
      <point x="207" y="520" type="line"/>
      <point x="3" y="520" type="line"/>
      <point x="128" y="0" type="line"/>
    </contour>
  </outline>
</glyph>
<glyph name="w" format="1">
  <advance width="653"/>
  <unicode hex="0077"/>
  <outline>
    <contour>
      <point x="296" y="0" type="line"/>
      <point x="323" y="211" type="line"/>
      <point x="352" y="0" type="line"/>
      <point x="533" y="0" type="line"/>
      <point x="645" y="518" type="line"/>
      <point x="467" y="520" type="line"/>
      <point x="440" y="256" type="line"/>
      <point x="408" y="520" type="line"/>
      <point x="247" y="520" type="line"/>
      <point x="217" y="256" type="line"/>
      <point x="189" y="520" type="line"/>
      <point x="8" y="520" type="line"/>
      <point x="122" y="0" type="line"/>
    </contour>
  </outline>
</glyph>
<glyph name="x" format="1">
  <advance width="476"/>
  <unicode hex="0078"/>
  <outline>
    <contour>
      <point x="207" y="0" type="line"/>
      <point x="238" y="95" type="line"/>
      <point x="269" y="0" type="line"/>
      <point x="473" y="0" type="line"/>
      <point x="354" y="260" type="line"/>
      <point x="473" y="520" type="line"/>
      <point x="269" y="520" type="line"/>
      <point x="238" y="430" type="line"/>
      <point x="207" y="520" type="line"/>
      <point x="3" y="520" type="line"/>
      <point x="122" y="260" type="line"/>
      <point x="3" y="0" type="line"/>
    </contour>
  </outline>
</glyph>
<glyph name="y" format="1">
  <advance width="453"/>
  <unicode hex="0079"/>
  <outline>
    <contour>
      <point x="37" y="-199" type="line"/>
      <point x="244" y="-199"/>
      <point x="281" y="-140"/>
      <point x="320" y="-2" type="curve"/>
      <point x="450" y="518" type="line"/>
      <point x="248" y="520" type="line"/>
      <point x="227" y="252" type="line"/>
      <point x="204" y="520" type="line"/>
      <point x="3" y="520" type="line"/>
      <point x="132" y="0" type="line"/>
      <point x="140" y="-40"/>
      <point x="102" y="-45"/>
      <point x="34" y="-45" type="curve"/>
      <point x="25" y="-45" type="line"/>
      <point x="25" y="-199" type="line"/>
    </contour>
    <contour>
      <point x="226" y="520" type="move" name="top"/>
    </contour>
  </outline>
</glyph>
<glyph name="z" format="1">
  <advance width="377"/>
  <unicode hex="007A"/>
  <outline>
    <contour>
      <point x="371" y="0" type="line"/>
      <point x="371" y="170" type="line"/>
      <point x="220" y="170" type="line"/>
      <point x="362" y="350" type="line"/>
      <point x="362" y="520" type="line"/>
      <point x="13" y="520" type="line"/>
      <point x="13" y="350" type="line"/>
      <point x="138" y="350" type="line"/>
      <point x="6" y="170" type="line"/>
      <point x="6" y="0" type="line"/>
    </contour>
    <contour>
      <point x="187" y="533" type="move" name="top"/>
    </contour>
  </outline>
</glyph>
<glyph name="braceleft" format="1">
  <advance width="392"/>
  <unicode hex="007B"/>
  <outline>
    <contour>
      <point x="362" y="-164" type="line"/>
      <point x="362" y="-3" type="line"/>
      <point x="336" y="-3" type="line" smooth="yes"/>
      <point x="314" y="-3"/>
      <point x="292" y="23"/>
      <point x="292" y="53" type="curve" smooth="yes"/>
      <point x="292" y="195" type="line" smooth="yes"/>
      <point x="292" y="264"/>
      <point x="269" y="310"/>
      <point x="225" y="329" type="curve"/>
      <point x="269" y="348"/>
      <point x="292" y="393"/>
      <point x="292" y="462" type="curve" smooth="yes"/>
      <point x="292" y="601" type="line" smooth="yes"/>
      <point x="292" y="631"/>
      <point x="314" y="657"/>
      <point x="336" y="657" type="curve" smooth="yes"/>
      <point x="362" y="657" type="line"/>
      <point x="362" y="818" type="line"/>
      <point x="244" y="818" type="line" smooth="yes"/>
      <point x="158" y="818"/>
      <point x="104" y="767"/>
      <point x="104" y="688" type="curve" smooth="yes"/>
      <point x="104" y="491" type="line" smooth="yes"/>
      <point x="104" y="432"/>
      <point x="79" y="402"/>
      <point x="30" y="402" type="curve"/>
      <point x="30" y="256" type="line"/>
      <point x="79" y="256"/>
      <point x="104" y="225"/>
      <point x="104" y="166" type="curve" smooth="yes"/>
      <point x="104" y="-34" type="line" smooth="yes"/>
      <point x="104" y="-113"/>
      <point x="158" y="-164"/>
      <point x="244" y="-164" type="curve" smooth="yes"/>
    </contour>
  </outline>
</glyph>
<glyph name="bar" format="1">
  <advance width="214"/>
  <unicode hex="007C"/>
  <outline>
    <contour>
      <point x="201" y="-80" type="line"/>
      <point x="201" y="760" type="line"/>
      <point x="13" y="760" type="line"/>
      <point x="13" y="-80" type="line"/>
    </contour>
  </outline>
</glyph>
<glyph name="asciitilde" format="1">
  <advance width="497"/>
  <unicode hex="007E"/>
  <outline>
    <contour>
      <point x="398" y="182"/>
      <point x="456" y="251"/>
      <point x="485" y="317" type="curve"/>
      <point x="369" y="387" type="line"/>
      <point x="357" y="365"/>
      <point x="340" y="343"/>
      <point x="313" y="343" type="curve" smooth="yes"/>
      <point x="292" y="343"/>
      <point x="271" y="359"/>
      <point x="245" y="374" type="curve" smooth="yes"/>
      <point x="223" y="387"/>
      <point x="199" y="399"/>
      <point x="168" y="399" type="curve" smooth="yes"/>
      <point x="95" y="399"/>
      <point x="31" y="336"/>
      <point x="12" y="260" type="curve"/>
      <point x="121" y="194" type="line"/>
      <point x="133" y="216"/>
      <point x="160" y="238"/>
      <point x="186" y="238" type="curve" smooth="yes"/>
      <point x="209" y="238"/>
      <point x="229" y="221"/>
      <point x="256" y="205" type="curve" smooth="yes"/>
      <point x="276" y="193"/>
      <point x="298" y="182"/>
      <point x="327" y="182" type="curve" smooth="yes"/>
    </contour>
  </outline>
</glyph>
<glyph name="cent" format="1">
  <advance width="455"/>
  <unicode hex="00A2"/>
  <outline>
    <contour>
      <point x="300" y="487" type="line"/>
      <point x="307" y="608" type="line"/>
      <point x="150" y="608" type="line"/>
      <point x="157" y="487" type="line"/>
    </contour>
    <contour>
      <point x="307" y="-88" type="line"/>
      <point x="300" y="33" type="line"/>
      <point x="157" y="33" type="line"/>
      <point x="150" y="-88" type="line"/>
    </contour>
    <component base="c"/>
  </outline>
</glyph>
<glyph name="sterling" format="1">
  <advance width="526"/>
  <unicode hex="00A3"/>
  <outline>
    <contour>
      <point x="514" y="0" type="line"/>
      <point x="514" y="161" type="line"/>
      <point x="257" y="161" type="line"/>
      <point x="268" y="175"/>
      <point x="279" y="201"/>
      <point x="279" y="245" type="curve" smooth="yes"/>
      <point x="279" y="474" type="line" smooth="yes"/>
      <point x="279" y="516"/>
      <point x="284" y="547"/>
      <point x="300" y="547" type="curve" smooth="yes"/>
      <point x="313" y="547"/>
      <point x="323" y="528"/>
      <point x="327" y="490" type="curve"/>
      <point x="510" y="509" type="line"/>
      <point x="490" y="637"/>
      <point x="414" y="711"/>
      <point x="293" y="708" type="curve" smooth="yes"/>
      <point x="170" y="705"/>
      <point x="91" y="621"/>
      <point x="91" y="475" type="curve" smooth="yes"/>
      <point x="91" y="245" type="line" smooth="yes"/>
      <point x="91" y="208"/>
      <point x="88" y="187"/>
      <point x="63" y="161" type="curve"/>
      <point x="63" y="0" type="line"/>
    </contour>
    <contour>
      <point x="420" y="273" type="line"/>
      <point x="420" y="424" type="line"/>
      <point x="26" y="424" type="line"/>
      <point x="26" y="273" type="line"/>
    </contour>
  </outline>
</glyph>
<glyph name="currency" format="1">
  <advance width="604"/>
  <unicode hex="00A4"/>
  <outline>
    <contour>
      <point x="428" y="70"/>
      <point x="534" y="174"/>
      <point x="534" y="304" type="curve"/>
      <point x="534" y="433"/>
      <point x="428" y="538"/>
      <point x="299" y="538" type="curve" smooth="yes"/>
      <point x="169" y="538"/>
      <point x="63" y="433"/>
      <point x="63" y="304" type="curve" smooth="yes"/>
      <point x="63" y="175"/>
      <point x="169" y="70"/>
      <point x="299" y="70" type="curve" smooth="yes"/>
    </contour>
    <contour>
      <point x="303" y="189" type="line"/>
      <point x="183" y="294" type="line"/>
      <point x="12" y="124" type="line"/>
      <point x="132" y="19" type="line"/>
    </contour>
    <contour>
      <point x="295" y="419" type="line"/>
      <point x="126" y="588" type="line"/>
      <point x="6" y="483" type="line"/>
      <point x="183" y="307" type="line"/>
    </contour>
    <contour>
      <point x="258" y="228"/>
      <point x="223" y="263"/>
      <point x="223" y="304" type="curve" smooth="yes"/>
      <point x="223" y="346"/>
      <point x="258" y="380"/>
      <point x="299" y="380" type="curve"/>
      <point x="339" y="380"/>
      <point x="374" y="346"/>
      <point x="375" y="304" type="curve"/>
      <point x="374" y="262"/>
      <point x="340" y="228"/>
      <point x="299" y="228" type="curve" smooth="yes"/>
    </contour>
    <contour>
      <point x="592" y="124" type="line"/>
      <point x="417" y="298" type="line"/>
      <point x="300" y="189" type="line"/>
      <point x="472" y="19" type="line"/>
    </contour>
    <contour>
      <point x="598" y="483" type="line"/>
      <point x="478" y="588" type="line"/>
      <point x="303" y="414" type="line"/>
      <point x="419" y="305" type="line"/>
    </contour>
  </outline>
</glyph>
<glyph name="yen" format="1">
  <advance width="536"/>
  <unicode hex="00A5"/>
  <outline>
    <contour>
      <point x="47" y="231" type="line"/>
      <point x="483" y="231" type="line"/>
      <point x="483" y="332" type="line"/>
      <point x="47" y="332" type="line"/>
    </contour>
    <contour>
      <point x="47" y="100" type="line"/>
      <point x="483" y="100" type="line"/>
      <point x="483" y="201" type="line"/>
      <point x="47" y="201" type="line"/>
    </contour>
    <component base="Y" xOffset="14"/>
  </outline>
</glyph>
<glyph name="section" format="1">
  <advance width="478"/>
  <unicode hex="00A7"/>
  <outline>
    <contour>
      <point x="370" y="-201"/>
      <point x="460" y="-134"/>
      <point x="460" y="-25" type="curve" smooth="yes"/>
      <point x="460" y="41"/>
      <point x="427" y="75"/>
      <point x="373" y="120" type="curve"/>
      <point x="399" y="136"/>
      <point x="421" y="159"/>
      <point x="436" y="188" type="curve" smooth="yes"/>
      <point x="449" y="211"/>
      <point x="456" y="239"/>
      <point x="456" y="270" type="curve" smooth="yes"/>
      <point x="456" y="330"/>
      <point x="426" y="365"/>
      <point x="364" y="405" type="curve" smooth="yes"/>
      <point x="342" y="419"/>
      <point x="317" y="433"/>
      <point x="287" y="449" type="curve" smooth="yes"/>
      <point x="234" y="478"/>
      <point x="207" y="493"/>
      <point x="207" y="522" type="curve" smooth="yes"/>
      <point x="207" y="533"/>
      <point x="216" y="547"/>
      <point x="235" y="547" type="curve" smooth="yes"/>
      <point x="252" y="547"/>
      <point x="264" y="534"/>
      <point x="264" y="519" type="curve" smooth="yes"/>
      <point x="264" y="504" type="line"/>
      <point x="452" y="504" type="line"/>
      <point x="452" y="528" type="line" smooth="yes"/>
      <point x="452" y="637"/>
      <point x="364" y="708"/>
      <point x="236" y="708" type="curve" smooth="yes"/>
      <point x="106" y="708"/>
      <point x="18" y="634"/>
      <point x="18" y="533" type="curve" smooth="yes"/>
      <point x="18" y="469"/>
      <point x="54" y="430"/>
      <point x="103" y="382" type="curve"/>
      <point x="82" y="367"/>
      <point x="66" y="353"/>
      <point x="54" y="338" type="curve" smooth="yes"/>
      <point x="33" y="312"/>
      <point x="24" y="285"/>
      <point x="24" y="248" type="curve" smooth="yes"/>
      <point x="24" y="198"/>
      <point x="40" y="162"/>
      <point x="72" y="130" type="curve" smooth="yes"/>
      <point x="93" y="108"/>
      <point x="122" y="88"/>
      <point x="157" y="66" type="curve" smooth="yes"/>
      <point x="214" y="31"/>
      <point x="272" y="1"/>
      <point x="272" y="-22" type="curve" smooth="yes"/>
      <point x="272" y="-32"/>
      <point x="260" y="-41"/>
      <point x="245" y="-41" type="curve" smooth="yes"/>
      <point x="228" y="-41"/>
      <point x="216" y="-30"/>
      <point x="216" y="-18" type="curve" smooth="yes"/>
      <point x="216" y="0" type="line"/>
      <point x="28" y="0" type="line"/>
      <point x="28" y="-32" type="line" smooth="yes"/>
      <point x="28" y="-132"/>
      <point x="114" y="-201"/>
      <point x="243" y="-201" type="curve" smooth="yes"/>
    </contour>
    <contour>
      <point x="230" y="231"/>
      <point x="222" y="234"/>
      <point x="217" y="240" type="curve" smooth="yes"/>
      <point x="214" y="243"/>
      <point x="212" y="248"/>
      <point x="212" y="254" type="curve" smooth="yes"/>
      <point x="212" y="260"/>
      <point x="214" y="266"/>
      <point x="218" y="270" type="curve" smooth="yes"/>
      <point x="223" y="274"/>
      <point x="231" y="277"/>
      <point x="240" y="277" type="curve" smooth="yes"/>
      <point x="249" y="277"/>
      <point x="256" y="274"/>
      <point x="260" y="270" type="curve" smooth="yes"/>
      <point x="265" y="266"/>
      <point x="268" y="260"/>
      <point x="268" y="253" type="curve" smooth="yes"/>
      <point x="268" y="248"/>
      <point x="266" y="243"/>
      <point x="264" y="240" type="curve" smooth="yes"/>
      <point x="259" y="234"/>
      <point x="251" y="231"/>
      <point x="241" y="231" type="curve" smooth="yes"/>
    </contour>
  </outline>
</glyph>
<glyph name="copyright" format="1">
  <advance width="762"/>
  <unicode hex="00A9"/>
  <outline>
    <contour>
      <point x="589" y="-8"/>
      <point x="742" y="144"/>
      <point x="742" y="356" type="curve" smooth="yes"/>
      <point x="742" y="557"/>
      <point x="589" y="708"/>
      <point x="380" y="708" type="curve" smooth="yes"/>
      <point x="173" y="708"/>
      <point x="20" y="557"/>
      <point x="20" y="356" type="curve" smooth="yes"/>
      <point x="20" y="144"/>
      <point x="173" y="-8"/>
      <point x="380" y="-8" type="curve" smooth="yes"/>
    </contour>
    <contour>
      <point x="231" y="92"/>
      <point x="122" y="201"/>
      <point x="122" y="356" type="curve" smooth="yes"/>
      <point x="122" y="500"/>
      <point x="231" y="608"/>
      <point x="380" y="608" type="curve" smooth="yes"/>
      <point x="530" y="608"/>
      <point x="640" y="500"/>
      <point x="640" y="356" type="curve" smooth="yes"/>
      <point x="640" y="201"/>
      <point x="530" y="92"/>
      <point x="380" y="92" type="curve" smooth="yes"/>
    </contour>
    <contour>
      <point x="448" y="176"/>
      <point x="493" y="217"/>
      <point x="493" y="282" type="curve" smooth="yes"/>
      <point x="493" y="291" type="line"/>
      <point x="399" y="295" type="line"/>
      <point x="399" y="274" type="line" smooth="yes"/>
      <point x="399" y="263"/>
      <point x="393" y="256"/>
      <point x="383" y="256" type="curve" smooth="yes"/>
      <point x="374" y="256"/>
      <point x="368" y="263"/>
      <point x="368" y="274" type="curve" smooth="yes"/>
      <point x="368" y="426" type="line" smooth="yes"/>
      <point x="368" y="436"/>
      <point x="374" y="445"/>
      <point x="383" y="445" type="curve" smooth="yes"/>
      <point x="393" y="445"/>
      <point x="399" y="436"/>
      <point x="399" y="426" type="curve" smooth="yes"/>
      <point x="399" y="405" type="line"/>
      <point x="493" y="410" type="line"/>
      <point x="493" y="420" type="line" smooth="yes"/>
      <point x="493" y="485"/>
      <point x="448" y="524"/>
      <point x="383" y="524" type="curve" smooth="yes"/>
      <point x="317" y="524"/>
      <point x="274" y="485"/>
      <point x="274" y="420" type="curve" smooth="yes"/>
      <point x="274" y="282" type="line" smooth="yes"/>
      <point x="274" y="217"/>
      <point x="317" y="176"/>
      <point x="383" y="176" type="curve" smooth="yes"/>
    </contour>
  </outline>
</glyph>
<glyph name="ordfeminine" format="1">
  <advance width="303"/>
  <unicode hex="00AA"/>
  <outline>
    <contour>
      <point x="288" y="481" type="line"/>
      <point x="288" y="718" type="line" smooth="yes"/>
      <point x="288" y="785"/>
      <point x="230" y="828"/>
      <point x="148" y="828" type="curve" smooth="yes"/>
      <point x="68" y="828"/>
      <point x="13" y="780"/>
      <point x="14" y="714" type="curve"/>
      <point x="133" y="708" type="line"/>
      <point x="134" y="720"/>
      <point x="141" y="728"/>
      <point x="151" y="728" type="curve" smooth="yes"/>
      <point x="164" y="728"/>
      <point x="170" y="718"/>
      <point x="170" y="704" type="curve" smooth="yes"/>
      <point x="170" y="481" type="line"/>
    </contour>
    <contour>
      <point x="181" y="476"/>
      <point x="203" y="515"/>
      <point x="203" y="616" type="curve"/>
      <point x="203" y="688" type="line"/>
      <point x="150" y="688" type="line"/>
      <point x="69" y="688"/>
      <point x="6" y="675"/>
      <point x="6" y="586" type="curve" smooth="yes"/>
      <point x="6" y="490"/>
      <point x="78" y="476"/>
      <point x="121" y="476" type="curve" smooth="yes"/>
    </contour>
    <contour>
      <point x="133" y="570"/>
      <point x="126" y="573"/>
      <point x="126" y="583" type="curve" smooth="yes"/>
      <point x="126" y="592"/>
      <point x="136" y="597"/>
      <point x="150" y="597" type="curve"/>
      <point x="170" y="597" type="line"/>
      <point x="170" y="589" type="line" smooth="yes"/>
      <point x="170" y="577"/>
      <point x="159" y="570"/>
      <point x="145" y="570" type="curve" smooth="yes"/>
    </contour>
    <component base="minus" xOffset="-7" yOffset="244" xScale="0.72" yScale="0.5"/>
  </outline>
</glyph>
<glyph name="logicalnot" format="1">
  <advance width="437"/>
  <unicode hex="00AC"/>
  <outline>
    <contour>
      <point x="279" y="155" type="line"/>
      <point x="419" y="155" type="line"/>
      <point x="419" y="301" type="line"/>
      <point x="279" y="301" type="line"/>
    </contour>
    <component base="minus"/>
  </outline>
</glyph>
<glyph name="registered" format="1">
  <advance width="432"/>
  <unicode hex="00AE"/>
  <outline>
    <contour>
      <point x="336" y="296"/>
      <point x="424" y="383"/>
      <point x="424" y="507" type="curve" smooth="yes"/>
      <point x="424" y="622"/>
      <point x="336" y="708"/>
      <point x="216" y="708" type="curve" smooth="yes"/>
      <point x="96" y="708"/>
      <point x="8" y="622"/>
      <point x="8" y="507" type="curve" smooth="yes"/>
      <point x="8" y="383"/>
      <point x="96" y="296"/>
      <point x="216" y="296" type="curve" smooth="yes"/>
    </contour>
    <contour>
      <point x="290" y="411" type="line"/>
      <point x="261" y="500" type="line"/>
      <point x="204" y="501" type="line"/>
      <point x="230" y="411" type="line"/>
    </contour>
    <contour>
      <point x="136" y="364"/>
      <point x="78" y="422"/>
      <point x="78" y="507" type="curve" smooth="yes"/>
      <point x="78" y="583"/>
      <point x="136" y="640"/>
      <point x="216" y="640" type="curve" smooth="yes"/>
      <point x="296" y="640"/>
      <point x="355" y="583"/>
      <point x="355" y="507" type="curve" smooth="yes"/>
      <point x="355" y="422"/>
      <point x="296" y="364"/>
      <point x="216" y="364" type="curve" smooth="yes"/>
    </contour>
    <contour>
      <point x="208" y="411" type="line"/>
      <point x="208" y="551" type="line"/>
      <point x="220" y="551" type="line" smooth="yes"/>
      <point x="229" y="551"/>
      <point x="235" y="545"/>
      <point x="235" y="536" type="curve" smooth="yes"/>
      <point x="235" y="528"/>
      <point x="229" y="520"/>
      <point x="220" y="520" type="curve" smooth="yes"/>
      <point x="205" y="520" type="line"/>
      <point x="205" y="478" type="line"/>
      <point x="229" y="478" type="line" smooth="yes"/>
      <point x="267" y="478"/>
      <point x="292" y="499"/>
      <point x="292" y="537" type="curve" smooth="yes"/>
      <point x="292" y="572"/>
      <point x="267" y="599"/>
      <point x="229" y="599" type="curve" smooth="yes"/>
      <point x="151" y="599" type="line"/>
      <point x="151" y="411" type="line"/>
    </contour>
  </outline>
</glyph>
<glyph name="macron" format="1">
  <advance width="231"/>
  <unicode hex="00AF"/>
  <outline>
    <contour>
      <point x="0" y="572" type="line"/>
      <point x="231" y="572" type="line"/>
      <point x="231" y="697" type="line"/>
      <point x="0" y="697" type="line"/>
    </contour>
    <contour>
      <point x="121" y="520" type="move" name="_top"/>
    </contour>
  </outline>
</glyph>
<glyph name="degree" format="1">
  <advance width="359"/>
  <unicode hex="00B0"/>
  <outline>
    <contour>
      <point x="275" y="460"/>
      <point x="351" y="537"/>
      <point x="351" y="635" type="curve" smooth="yes"/>
      <point x="351" y="732"/>
      <point x="275" y="808"/>
      <point x="179" y="808" type="curve" smooth="yes"/>
      <point x="83" y="808"/>
      <point x="8" y="732"/>
      <point x="8" y="635" type="curve" smooth="yes"/>
      <point x="8" y="537"/>
      <point x="83" y="460"/>
      <point x="179" y="460" type="curve" smooth="yes"/>
    </contour>
    <contour>
      <point x="151" y="581"/>
      <point x="128" y="605"/>
      <point x="128" y="635" type="curve" smooth="yes"/>
      <point x="128" y="666"/>
      <point x="151" y="690"/>
      <point x="179" y="690" type="curve" smooth="yes"/>
      <point x="208" y="690"/>
      <point x="230" y="666"/>
      <point x="230" y="635" type="curve" smooth="yes"/>
      <point x="230" y="605"/>
      <point x="208" y="581"/>
      <point x="179" y="581" type="curve" smooth="yes"/>
    </contour>
  </outline>
</glyph>
<glyph name="micro" format="1">
  <advance width="464"/>
  <unicode hex="00B5"/>
  <outline>
    <contour>
      <point x="22" y="-200" type="line"/>
      <point x="210" y="-200" type="line"/>
      <point x="210" y="520" type="line"/>
      <point x="22" y="520" type="line"/>
    </contour>
    <component base="u" xOffset="2"/>
  </outline>
</glyph>
<glyph name="paragraph" format="1">
  <advance width="544"/>
  <unicode hex="00B6"/>
  <outline>
    <contour>
      <point x="170" y="-200" type="line"/>
      <point x="326" y="-200" type="line"/>
      <point x="326" y="549" type="line"/>
      <point x="362" y="549" type="line"/>
      <point x="362" y="-200" type="line"/>
      <point x="518" y="-200" type="line"/>
      <point x="518" y="700" type="line"/>
      <point x="222" y="700" type="line" smooth="yes"/>
      <point x="93" y="700"/>
      <point x="12" y="608"/>
      <point x="12" y="475" type="curve" smooth="yes"/>
      <point x="12" y="337"/>
      <point x="96" y="250"/>
      <point x="221" y="250" type="curve"/>
      <point x="170" y="280" type="line"/>
    </contour>
  </outline>
</glyph>
<glyph name="cedilla" format="1">
  <advance width="203"/>
  <unicode hex="00B8"/>
  <outline>
    <contour>
      <point x="151" y="-199"/>
      <point x="194" y="-165"/>
      <point x="194" y="-105" type="curve" smooth="yes"/>
      <point x="194" y="-79"/>
      <point x="186" y="-45"/>
      <point x="160" y="-25" type="curve" smooth="yes"/>
      <point x="139" y="-9"/>
      <point x="112" y="-6"/>
      <point x="85" y="-22" type="curve"/>
      <point x="105" y="17" type="line"/>
      <point x="46" y="22" type="line"/>
      <point x="13" y="-57" type="line"/>
      <point x="70" y="-107" type="line"/>
      <point x="75" y="-104"/>
      <point x="78" y="-97"/>
      <point x="88" y="-97" type="curve" smooth="yes"/>
      <point x="94" y="-97"/>
      <point x="98" y="-100"/>
      <point x="98" y="-106" type="curve" smooth="yes"/>
      <point x="98" y="-111"/>
      <point x="96" y="-118"/>
      <point x="84" y="-120" type="curve" smooth="yes"/>
      <point x="71" y="-122"/>
      <point x="62" y="-114"/>
      <point x="40" y="-95" type="curve"/>
      <point x="9" y="-167" type="line"/>
      <point x="33" y="-185"/>
      <point x="59" y="-199"/>
      <point x="95" y="-199" type="curve" smooth="yes"/>
    </contour>
    <contour>
      <point x="85" y="15" type="move" name="_bottom"/>
    </contour>
  </outline>
</glyph>
<glyph name="ordmasculine" format="1">
  <advance width="306"/>
  <unicode hex="00BA"/>
  <outline>
    <contour>
      <point x="239" y="455"/>
      <point x="289" y="497"/>
      <point x="289" y="571" type="curve" smooth="yes"/>
      <point x="289" y="587"/>
      <point x="289" y="615"/>
      <point x="289" y="631" type="curve" smooth="yes"/>
      <point x="289" y="647"/>
      <point x="289" y="676"/>
      <point x="289" y="692" type="curve" smooth="yes"/>
      <point x="289" y="761"/>
      <point x="239" y="808"/>
      <point x="152" y="808" type="curve" smooth="yes"/>
      <point x="64" y="808"/>
      <point x="14" y="761"/>
      <point x="14" y="692" type="curve" smooth="yes"/>
      <point x="14" y="676"/>
      <point x="14" y="647"/>
      <point x="14" y="631" type="curve" smooth="yes"/>
      <point x="14" y="615"/>
      <point x="14" y="587"/>
      <point x="14" y="571" type="curve" smooth="yes"/>
      <point x="14" y="497"/>
      <point x="64" y="455"/>
      <point x="152" y="455" type="curve" smooth="yes"/>
    </contour>
    <contour>
      <point x="140" y="556"/>
      <point x="132" y="566"/>
      <point x="132" y="580" type="curve" smooth="yes"/>
      <point x="132" y="597"/>
      <point x="132" y="614"/>
      <point x="132" y="631" type="curve"/>
      <point x="132" y="648"/>
      <point x="132" y="665"/>
      <point x="132" y="682" type="curve" smooth="yes"/>
      <point x="132" y="697"/>
      <point x="140" y="707"/>
      <point x="152" y="707" type="curve" smooth="yes"/>
      <point x="163" y="707"/>
      <point x="171" y="697"/>
      <point x="171" y="682" type="curve" smooth="yes"/>
      <point x="171" y="665"/>
      <point x="171" y="648"/>
      <point x="171" y="631" type="curve" smooth="yes"/>
      <point x="171" y="614"/>
      <point x="171" y="597"/>
      <point x="171" y="580" type="curve" smooth="yes"/>
      <point x="171" y="566"/>
      <point x="163" y="556"/>
      <point x="152" y="556" type="curve" smooth="yes"/>
    </contour>
    <component base="minus" xOffset="-4" yOffset="244" xScale="0.72" yScale="0.5"/>
  </outline>
</glyph>
<glyph name="AE" format="1">
  <advance width="793"/>
  <unicode hex="00C6"/>
  <outline>
    <contour>
      <point x="12" y="0" type="line"/>
      <point x="210" y="0" type="line"/>
      <point x="375" y="468" type="line"/>
      <point x="375" y="0" type="line"/>
      <point x="775" y="0" type="line"/>
      <point x="775" y="161" type="line"/>
      <point x="563" y="161" type="line"/>
      <point x="563" y="539" type="line"/>
      <point x="775" y="539" type="line"/>
      <point x="775" y="700" type="line"/>
      <point x="293" y="700" type="line"/>
    </contour>
    <contour>
      <point x="192" y="95" type="line"/>
      <point x="462" y="95" type="line"/>
      <point x="462" y="239" type="line"/>
      <point x="192" y="239" type="line"/>
    </contour>
    <contour>
      <point x="451" y="270" type="line"/>
      <point x="683" y="270" type="line"/>
      <point x="683" y="431" type="line"/>
      <point x="451" y="431" type="line"/>
    </contour>
  </outline>
</glyph>
<glyph name="Eth" format="1">
  <advance width="517"/>
  <unicode hex="00D0"/>
  <outline>
    <contour>
      <point x="26" y="314" type="line"/>
      <point x="279" y="314" type="line"/>
      <point x="279" y="419" type="line"/>
      <point x="26" y="419" type="line"/>
    </contour>
    <component base="D" xOffset="34"/>
  </outline>
</glyph>
<glyph name="multiply" format="1">
  <advance width="486"/>
  <unicode hex="00D7"/>
  <outline>
    <contour>
      <point x="243" y="206" type="line"/>
      <point x="354" y="95" type="line"/>
      <point x="468" y="208" type="line"/>
      <point x="356" y="320" type="line"/>
      <point x="468" y="431" type="line"/>
      <point x="354" y="545" type="line"/>
      <point x="243" y="433" type="line"/>
      <point x="131" y="545" type="line"/>
      <point x="18" y="431" type="line"/>
      <point x="129" y="320" type="line"/>
      <point x="18" y="208" type="line"/>
      <point x="131" y="95" type="line"/>
    </contour>
  </outline>
</glyph>
<glyph name="Oslash" format="1">
  <advance width="462"/>
  <unicode hex="00D8"/>
  <outline>
    <contour>
      <point x="39" y="0" type="line"/>
      <point x="101" y="-30" type="line"/>
      <point x="432" y="700" type="line"/>
      <point x="369" y="730" type="line"/>
    </contour>
    <component base="O" xOffset="-8"/>
  </outline>
</glyph>
<glyph name="Thorn" format="1">
  <advance width="480"/>
  <unicode hex="00DE"/>
  <outline>
    <contour>
      <point x="24" y="-183" type="line"/>
      <point x="212" y="-183" type="line"/>
      <point x="212" y="733" type="line"/>
      <point x="24" y="733" type="line"/>
    </contour>
    <contour>
      <point x="212" y="337" type="line"/>
      <point x="230" y="337" type="line" smooth="yes"/>
      <point x="259" y="337"/>
      <point x="280" y="315"/>
      <point x="280" y="269" type="curve" smooth="yes"/>
      <point x="280" y="224"/>
      <point x="259" y="203"/>
      <point x="230" y="203" type="curve" smooth="yes"/>
      <point x="212" y="203" type="line"/>
      <point x="212" y="57" type="line"/>
      <point x="273" y="57" type="line" smooth="yes"/>
      <point x="389" y="57"/>
      <point x="468" y="143"/>
      <point x="468" y="273" type="curve" smooth="yes"/>
      <point x="468" y="406"/>
      <point x="385" y="498"/>
      <point x="263" y="498" type="curve" smooth="yes"/>
      <point x="212" y="498" type="line"/>
    </contour>
  </outline>
</glyph>
<glyph name="germandbls" format="1">
  <advance width="481"/>
  <unicode hex="00DF"/>
  <outline>
    <contour>
      <point x="22" y="1" type="line"/>
      <point x="210" y="0" type="line"/>
      <point x="210" y="498" type="line"/>
      <point x="210" y="530"/>
      <point x="219" y="548"/>
      <point x="235" y="548" type="curve" smooth="yes"/>
      <point x="252" y="548"/>
      <point x="265" y="531"/>
      <point x="265" y="501" type="curve" smooth="yes"/>
      <point x="265" y="470"/>
      <point x="251" y="452"/>
      <point x="232" y="452" type="curve"/>
      <point x="234" y="452" type="line"/>
      <point x="234" y="306" type="line"/>
      <point x="235" y="306" type="line"/>
      <point x="261" y="306"/>
      <point x="279" y="280"/>
      <point x="279" y="233" type="curve" smooth="yes"/>
      <point x="279" y="186"/>
      <point x="261" y="160"/>
      <point x="235" y="160" type="curve"/>
      <point x="234" y="160" type="line"/>
      <point x="234" y="0" type="line"/>
      <point x="235" y="0" type="line"/>
      <point x="381" y="0"/>
      <point x="463" y="78"/>
      <point x="463" y="212" type="curve" smooth="yes"/>
      <point x="463" y="292"/>
      <point x="434" y="352"/>
      <point x="382" y="384" type="curve"/>
      <point x="424" y="412"/>
      <point x="449" y="449"/>
      <point x="449" y="515" type="curve" smooth="yes"/>
      <point x="449" y="631"/>
      <point x="369" y="708"/>
      <point x="233" y="708" type="curve" smooth="yes"/>
      <point x="99" y="708"/>
      <point x="22" y="621"/>
      <point x="22" y="467" type="curve"/>
    </contour>
  </outline>
</glyph>
<glyph name="ae" format="1">
  <advance width="719"/>
  <unicode hex="00E6"/>
  <outline>
    <contour>
      <point x="282" y="-8"/>
      <point x="353" y="22"/>
      <point x="359" y="47" type="curve"/>
      <point x="363" y="23"/>
      <point x="418" y="-8"/>
      <point x="504" y="-8" type="curve" smooth="yes"/>
      <point x="627" y="-8"/>
      <point x="693" y="55"/>
      <point x="696" y="171" type="curve"/>
      <point x="513" y="182" type="line"/>
      <point x="513" y="176"/>
      <point x="507" y="153"/>
      <point x="488" y="153" type="curve" smooth="yes"/>
      <point x="474" y="153"/>
      <point x="465" y="166"/>
      <point x="465" y="185" type="curve" smooth="yes"/>
      <point x="465" y="194"/>
      <point x="465" y="189"/>
      <point x="465" y="198" type="curve"/>
      <point x="698" y="198" type="line"/>
      <point x="698" y="244"/>
      <point x="698" y="304"/>
      <point x="698" y="350" type="curve" smooth="yes"/>
      <point x="698" y="456"/>
      <point x="619" y="528"/>
      <point x="495" y="528" type="curve" smooth="yes"/>
      <point x="436" y="528"/>
      <point x="392" y="512"/>
      <point x="359" y="489" type="curve"/>
      <point x="321" y="514"/>
      <point x="285" y="528"/>
      <point x="232" y="528" type="curve" smooth="yes"/>
      <point x="113" y="528"/>
      <point x="22" y="459"/>
      <point x="22" y="341" type="curve"/>
      <point x="211" y="337" type="line"/>
      <point x="211" y="355"/>
      <point x="222" y="367"/>
      <point x="238" y="367" type="curve" smooth="yes"/>
      <point x="254" y="367"/>
      <point x="266" y="355"/>
      <point x="266" y="337" type="curve" smooth="yes"/>
      <point x="266" y="305" type="line"/>
      <point x="226" y="305" type="line" smooth="yes"/>
      <point x="101" y="305"/>
      <point x="17" y="289"/>
      <point x="17" y="153" type="curve" smooth="yes"/>
      <point x="17" y="3"/>
      <point x="120" y="-8"/>
      <point x="184" y="-8" type="curve" smooth="yes"/>
    </contour>
    <contour>
      <point x="221" y="125"/>
      <point x="209" y="134"/>
      <point x="209" y="158" type="curve" smooth="yes"/>
      <point x="209" y="183"/>
      <point x="221" y="198"/>
      <point x="240" y="198" type="curve" smooth="yes"/>
      <point x="266" y="198" type="line"/>
      <point x="266" y="152" type="line" smooth="yes"/>
      <point x="266" y="135"/>
      <point x="248" y="125"/>
      <point x="234" y="125" type="curve" smooth="yes"/>
    </contour>
    <contour>
      <point x="465" y="315"/>
      <point x="465" y="325"/>
      <point x="465" y="335" type="curve" smooth="yes"/>
      <point x="465" y="354"/>
      <point x="474" y="367"/>
      <point x="488" y="367" type="curve" smooth="yes"/>
      <point x="501" y="367"/>
      <point x="510" y="354"/>
      <point x="510" y="335" type="curve" smooth="yes"/>
      <point x="510" y="325"/>
      <point x="510" y="315"/>
      <point x="510" y="305" type="curve"/>
      <point x="465" y="305" type="line"/>
    </contour>
  </outline>
</glyph>
<glyph name="eth" format="1">
  <advance width="461"/>
  <unicode hex="00F0"/>
  <outline>
    <contour>
      <point x="367" y="-8"/>
      <point x="443" y="57"/>
      <point x="443" y="170" type="curve" smooth="yes"/>
      <point x="443" y="193"/>
      <point x="443" y="217"/>
      <point x="443" y="240" type="curve" smooth="yes"/>
      <point x="443" y="263"/>
      <point x="443" y="287"/>
      <point x="443" y="310" type="curve" smooth="yes"/>
      <point x="443" y="435"/>
      <point x="403" y="550"/>
      <point x="299" y="700" type="curve"/>
      <point x="118" y="700" type="line"/>
      <point x="199" y="576"/>
      <point x="235" y="501"/>
      <point x="249" y="452" type="curve"/>
      <point x="261" y="452" type="line"/>
      <point x="253" y="465"/>
      <point x="253" y="488"/>
      <point x="197" y="488" type="curve" smooth="yes"/>
      <point x="99" y="488"/>
      <point x="18" y="416"/>
      <point x="18" y="310" type="curve" smooth="yes"/>
      <point x="18" y="287"/>
      <point x="18" y="263"/>
      <point x="18" y="240" type="curve" smooth="yes"/>
      <point x="18" y="217"/>
      <point x="18" y="193"/>
      <point x="18" y="170" type="curve" smooth="yes"/>
      <point x="18" y="57"/>
      <point x="95" y="-8"/>
      <point x="231" y="-8" type="curve" smooth="yes"/>
    </contour>
    <contour>
      <point x="216" y="153"/>
      <point x="206" y="166"/>
      <point x="206" y="185" type="curve" smooth="yes"/>
      <point x="206" y="210"/>
      <point x="206" y="215"/>
      <point x="206" y="240" type="curve" smooth="yes"/>
      <point x="206" y="265"/>
      <point x="206" y="270"/>
      <point x="206" y="295" type="curve" smooth="yes"/>
      <point x="206" y="314"/>
      <point x="216" y="327"/>
      <point x="231" y="327" type="curve" smooth="yes"/>
      <point x="245" y="327"/>
      <point x="255" y="314"/>
      <point x="255" y="295" type="curve" smooth="yes"/>
      <point x="255" y="270"/>
      <point x="255" y="265"/>
      <point x="255" y="240" type="curve" smooth="yes"/>
      <point x="255" y="215"/>
      <point x="255" y="210"/>
      <point x="255" y="185" type="curve" smooth="yes"/>
      <point x="255" y="166"/>
      <point x="245" y="153"/>
      <point x="231" y="153" type="curve" smooth="yes"/>
    </contour>
    <contour>
      <point x="441" y="582" type="line"/>
      <point x="424" y="661" type="line"/>
      <point x="104" y="585" type="line"/>
      <point x="123" y="510" type="line"/>
    </contour>
  </outline>
</glyph>
<glyph name="divide" format="1">
  <advance width="472"/>
  <unicode hex="00F7"/>
  <outline>
    <contour>
      <point x="454" y="232" type="line"/>
      <point x="454" y="372" type="line"/>
      <point x="18" y="372" type="line"/>
      <point x="18" y="232" type="line"/>
    </contour>
    <contour>
      <point x="279" y="48"/>
      <point x="315" y="84"/>
      <point x="315" y="128" type="curve" smooth="yes"/>
      <point x="315" y="171"/>
      <point x="279" y="207"/>
      <point x="236" y="207" type="curve" smooth="yes"/>
      <point x="192" y="207"/>
      <point x="156" y="171"/>
      <point x="156" y="128" type="curve" smooth="yes"/>
      <point x="156" y="84"/>
      <point x="192" y="48"/>
      <point x="236" y="48" type="curve" smooth="yes"/>
    </contour>
    <contour>
      <point x="279" y="402"/>
      <point x="315" y="438"/>
      <point x="315" y="482" type="curve" smooth="yes"/>
      <point x="315" y="525"/>
      <point x="279" y="561"/>
      <point x="236" y="561" type="curve" smooth="yes"/>
      <point x="192" y="561"/>
      <point x="156" y="525"/>
      <point x="156" y="482" type="curve" smooth="yes"/>
      <point x="156" y="438"/>
      <point x="192" y="402"/>
      <point x="236" y="402" type="curve" smooth="yes"/>
    </contour>
  </outline>
</glyph>
<glyph name="oslash" format="1">
  <advance width="445"/>
  <unicode hex="00F8"/>
  <outline>
    <contour>
      <point x="41" y="2" type="line"/>
      <point x="90" y="-33" type="line"/>
      <point x="405" y="518" type="line"/>
      <point x="356" y="553" type="line"/>
    </contour>
    <component base="o" xOffset="-4"/>
  </outline>
</glyph>
<glyph name="thorn" format="1">
  <advance width="459"/>
  <unicode hex="00FE"/>
  <outline>
    <contour>
      <point x="20" y="-200" type="line"/>
      <point x="208" y="-200" type="line"/>
      <point x="208" y="700" type="line"/>
      <point x="20" y="700" type="line"/>
    </contour>
    <component base="b.bowl" xOffset="174"/>
  </outline>
</glyph>
<glyph name="idotless" format="1">
  <advance width="233"/>
  <unicode hex="0131"/>
  <outline>
    <contour>
      <point x="209" y="0" type="line"/>
      <point x="209" y="520" type="line"/>
      <point x="21" y="520" type="line"/>
      <point x="21" y="0" type="line"/>
    </contour>
    <contour>
      <point x="115" y="533" type="move" name="top"/>
    </contour>
  </outline>
</glyph>
<glyph name="lslash" format="1">
  <advance width="228"/>
  <unicode hex="0142"/>
  <outline>
    <contour>
      <point x="348" y="391" type="line"/>
      <point x="282" y="511" type="line"/>
      <point x="-91" y="308" type="line"/>
      <point x="-29" y="189" type="line"/>
    </contour>
    <component base="l"/>
  </outline>
</glyph>
<glyph name="Eng" format="1">
  <advance width="528"/>
  <unicode hex="014A"/>
  <outline>
    <contour>
      <point x="231" y="-211" type="line"/>
      <point x="500" y="-220"/>
      <point x="502" y="-130"/>
      <point x="502" y="19" type="curve" smooth="yes"/>
      <point x="502" y="210" type="line"/>
      <point x="296" y="210" type="line"/>
      <point x="296" y="19" type="line" smooth="yes"/>
      <point x="296" y="-29"/>
      <point x="301" y="-59"/>
      <point x="230" y="-51" type="curve"/>
    </contour>
    <component base="N"/>
  </outline>
</glyph>
<glyph name="eng" format="1">
  <advance width="462"/>
  <unicode hex="014B"/>
  <outline>
    <contour>
      <point x="178" y="-201" type="line"/>
      <point x="457" y="-210"/>
      <point x="442" y="-100"/>
      <point x="442" y="29" type="curve" smooth="yes"/>
      <point x="442" y="220" type="line"/>
      <point x="254" y="220" type="line"/>
      <point x="254" y="29" type="line" smooth="yes"/>
      <point x="254" y="-19"/>
      <point x="259" y="-49"/>
      <point x="178" y="-44" type="curve"/>
    </contour>
    <component base="n"/>
  </outline>
</glyph>
<glyph name="OE" format="1">
  <advance width="694"/>
  <unicode hex="0152"/>
  <outline>
    <contour>
      <point x="296" y="-8"/>
      <point x="354" y="75"/>
      <point x="354" y="206" type="curve" smooth="yes"/>
      <point x="354" y="494" type="line" smooth="yes"/>
      <point x="354" y="625"/>
      <point x="296" y="708"/>
      <point x="192" y="708" type="curve" smooth="yes"/>
      <point x="107" y="708"/>
      <point x="20" y="625"/>
      <point x="20" y="494" type="curve" smooth="yes"/>
      <point x="20" y="206" type="line" smooth="yes"/>
      <point x="20" y="75"/>
      <point x="107" y="-8"/>
      <point x="192" y="-8" type="curve" smooth="yes"/>
    </contour>
    <contour>
      <point x="220" y="153"/>
      <point x="208" y="171"/>
      <point x="208" y="198" type="curve" smooth="yes"/>
      <point x="208" y="502" type="line" smooth="yes"/>
      <point x="208" y="529"/>
      <point x="220" y="547"/>
      <point x="242" y="547" type="curve" smooth="yes"/>
      <point x="264" y="547"/>
      <point x="276" y="529"/>
      <point x="276" y="502" type="curve" smooth="yes"/>
      <point x="276" y="198" type="line" smooth="yes"/>
      <point x="276" y="171"/>
      <point x="264" y="153"/>
      <point x="242" y="153" type="curve" smooth="yes"/>
    </contour>
    <contour>
      <point x="584" y="270" type="line"/>
      <point x="584" y="431" type="line"/>
      <point x="352" y="431" type="line"/>
      <point x="352" y="270" type="line"/>
    </contour>
    <contour>
      <point x="676" y="0" type="line"/>
      <point x="676" y="161" type="line"/>
      <point x="464" y="161" type="line"/>
      <point x="464" y="539" type="line"/>
      <point x="676" y="539" type="line"/>
      <point x="676" y="700" type="line"/>
      <point x="276" y="700" type="line"/>
      <point x="276" y="0" type="line"/>
    </contour>
    <contour>
      <point x="362" y="700" type="move" name="top"/>
    </contour>
  </outline>
</glyph>
<glyph name="oe" format="1">
  <advance width="714"/>
  <unicode hex="0153"/>
  <outline>
    <contour>
      <point x="367" y="-8"/>
      <point x="403" y="97"/>
      <point x="443" y="210" type="curve" smooth="yes"/>
      <point x="451" y="232"/>
      <point x="443" y="237"/>
      <point x="443" y="260" type="curve" smooth="yes"/>
      <point x="443" y="283"/>
      <point x="451" y="289"/>
      <point x="443" y="310" type="curve" smooth="yes"/>
      <point x="403" y="416"/>
      <point x="367" y="528"/>
      <point x="231" y="528" type="curve" smooth="yes"/>
      <point x="95" y="528"/>
      <point x="18" y="456"/>
      <point x="18" y="350" type="curve" smooth="yes"/>
      <point x="18" y="327"/>
      <point x="18" y="283"/>
      <point x="18" y="260" type="curve" smooth="yes"/>
      <point x="18" y="237"/>
      <point x="18" y="193"/>
      <point x="18" y="170" type="curve" smooth="yes"/>
      <point x="18" y="57"/>
      <point x="95" y="-8"/>
      <point x="231" y="-8" type="curve" smooth="yes"/>
    </contour>
    <contour>
      <point x="216" y="153"/>
      <point x="206" y="166"/>
      <point x="206" y="185" type="curve" smooth="yes"/>
      <point x="206" y="210"/>
      <point x="206" y="235"/>
      <point x="206" y="260" type="curve"/>
      <point x="206" y="285"/>
      <point x="206" y="310"/>
      <point x="206" y="335" type="curve" smooth="yes"/>
      <point x="206" y="354"/>
      <point x="216" y="367"/>
      <point x="231" y="367" type="curve" smooth="yes"/>
      <point x="245" y="367"/>
      <point x="255" y="354"/>
      <point x="255" y="335" type="curve" smooth="yes"/>
      <point x="255" y="310"/>
      <point x="255" y="285"/>
      <point x="255" y="260" type="curve" smooth="yes"/>
      <point x="255" y="235"/>
      <point x="255" y="210"/>
      <point x="255" y="185" type="curve" smooth="yes"/>
      <point x="255" y="166"/>
      <point x="245" y="153"/>
      <point x="231" y="153" type="curve" smooth="yes"/>
    </contour>
    <contour>
      <point x="629" y="-8"/>
      <point x="694" y="60"/>
      <point x="696" y="181" type="curve"/>
      <point x="513" y="192" type="line"/>
      <point x="513" y="176"/>
      <point x="507" y="153"/>
      <point x="488" y="153" type="curve" smooth="yes"/>
      <point x="474" y="153"/>
      <point x="465" y="166"/>
      <point x="465" y="185" type="curve" smooth="yes"/>
      <point x="465" y="210"/>
      <point x="465" y="235"/>
      <point x="465" y="260" type="curve" smooth="yes"/>
      <point x="465" y="285"/>
      <point x="465" y="310"/>
      <point x="465" y="335" type="curve" smooth="yes"/>
      <point x="465" y="354"/>
      <point x="474" y="367"/>
      <point x="488" y="367" type="curve" smooth="yes"/>
      <point x="501" y="367"/>
      <point x="510" y="354"/>
      <point x="510" y="335" type="curve" smooth="yes"/>
      <point x="510" y="316"/>
      <point x="510" y="298"/>
      <point x="510" y="279" type="curve"/>
      <point x="573" y="305" type="line"/>
      <point x="415" y="305" type="line"/>
      <point x="415" y="213" type="line"/>
      <point x="698" y="213" type="line"/>
      <point x="698" y="221"/>
      <point x="698" y="291"/>
      <point x="698" y="350" type="curve" smooth="yes"/>
      <point x="698" y="456"/>
      <point x="622" y="528"/>
      <point x="488" y="528" type="curve" smooth="yes"/>
      <point x="354" y="528"/>
      <point x="317" y="416"/>
      <point x="277" y="310" type="curve" smooth="yes"/>
      <point x="269" y="289"/>
      <point x="277" y="283"/>
      <point x="277" y="260" type="curve" smooth="yes"/>
      <point x="277" y="230"/>
      <point x="267" y="238"/>
      <point x="277" y="210" type="curve" smooth="yes"/>
      <point x="317" y="97"/>
      <point x="354" y="-8"/>
      <point x="488" y="-8" type="curve" smooth="yes"/>
    </contour>
  </outline>
</glyph>
<glyph name="florin" format="1">
  <advance width="443"/>
  <unicode hex="0192"/>
  <outline>
    <contour>
      <point x="19" y="-200" type="line" smooth="yes"/>
      <point x="161" y="-200"/>
      <point x="247" y="-183"/>
      <point x="267" y="-56" type="curve" smooth="yes"/>
      <point x="361" y="539" type="line" smooth="yes"/>
      <point x="364" y="557"/>
      <point x="379" y="572"/>
      <point x="404" y="575" type="curve"/>
      <point x="431" y="575" type="line"/>
      <point x="431" y="700" type="line"/>
      <point x="424" y="700" type="line" smooth="yes"/>
      <point x="282" y="700"/>
      <point x="196" y="683"/>
      <point x="176" y="556" type="curve" smooth="yes"/>
      <point x="82" y="-39" type="line" smooth="yes"/>
      <point x="79" y="-57"/>
      <point x="63" y="-72"/>
      <point x="39" y="-75" type="curve"/>
      <point x="12" y="-75" type="line"/>
      <point x="12" y="-200" type="line"/>
    </contour>
    <contour>
      <point x="415" y="280" type="line"/>
      <point x="415" y="430" type="line"/>
      <point x="78" y="430" type="line"/>
      <point x="78" y="280" type="line"/>
    </contour>
  </outline>
</glyph>
<glyph name="caron" format="1">
  <advance width="338"/>
  <unicode hex="02C7"/>
  <outline>
    <contour>
      <point x="81" y="565" type="line"/>
      <point x="255" y="565" type="line"/>
      <point x="338" y="694" type="line"/>
      <point x="205" y="694" type="line"/>
      <point x="174" y="632" type="line"/>
      <point x="141" y="694" type="line"/>
      <point x="0" y="694" type="line"/>
    </contour>
    <contour>
      <point x="174" y="520" type="move" name="_top"/>
    </contour>
  </outline>
</glyph>
<glyph name="breve" format="1">
  <advance width="262"/>
  <unicode hex="02D8"/>
  <outline>
    <contour>
      <point x="210" y="543"/>
      <point x="262" y="593"/>
      <point x="262" y="669" type="curve"/>
      <point x="167" y="669" type="line"/>
      <point x="167" y="640"/>
      <point x="153" y="621"/>
      <point x="131" y="621" type="curve" smooth="yes"/>
      <point x="109" y="621"/>
      <point x="95" y="640"/>
      <point x="95" y="669" type="curve"/>
      <point x="0" y="669" type="line"/>
      <point x="0" y="593"/>
      <point x="52" y="543"/>
      <point x="131" y="543" type="curve" smooth="yes"/>
    </contour>
    <contour>
      <point x="131" y="520" type="move" name="_top"/>
    </contour>
  </outline>
</glyph>
<glyph name="ogonek" format="1">
  <advance width="584"/>
  <unicode hex="02DB"/>
  <outline>
    <contour>
      <point x="347" y="-92" type="line"/>
      <point x="333" y="-100"/>
      <point x="317" y="-97"/>
      <point x="312" y="-79" type="curve" smooth="yes"/>
      <point x="307" y="-59"/>
      <point x="326" y="-31"/>
      <point x="366" y="0" type="curve"/>
      <point x="244" y="0" type="line"/>
      <point x="201" y="-41"/>
      <point x="186" y="-87"/>
      <point x="197" y="-131" type="curve" smooth="yes"/>
      <point x="220" y="-222"/>
      <point x="335" y="-192"/>
      <point x="358" y="-182" type="curve"/>
    </contour>
    <contour>
      <point x="291" y="0" type="move" name="_ogo"/>
    </contour>
  </outline>
</glyph>
<glyph name="gravecomb" format="1">
  <advance width="250"/>
  <unicode hex="0300"/>
  <outline>
    <component base="acutecomb" xScale="-1" xOffset="250"/>
    <contour>
      <point x="173" y="520" type="move" name="_top"/>
    </contour>
  </outline>
</glyph>
<glyph name="acutecomb" format="1">
  <advance width="250"/>
  <unicode hex="0301"/>
  <outline>
    <contour>
      <point x="151" y="561" type="line"/>
      <point x="250" y="682" type="line"/>
      <point x="72" y="682" type="line"/>
      <point x="0" y="561" type="line"/>
    </contour>
    <contour>
      <point x="96" y="520" type="move" name="_top"/>
    </contour>
  </outline>
</glyph>
<glyph name="circumflexcomb" format="1">
  <advance width="318"/>
  <unicode hex="0302"/>
  <outline>
    <contour>
      <point x="121" y="565" type="line"/>
      <point x="159" y="627" type="line"/>
      <point x="195" y="565" type="line"/>
      <point x="318" y="565" type="line"/>
      <point x="227" y="694" type="line"/>
      <point x="89" y="694" type="line"/>
      <point x="0" y="565" type="line"/>
    </contour>
    <contour>
      <point x="159" y="520" type="move" name="_top"/>
    </contour>
  </outline>
</glyph>
<glyph name="tildecomb" format="1">
  <advance width="316"/>
  <unicode hex="0303"/>
  <outline>
    <contour>
      <point x="259" y="554"/>
      <point x="292" y="585"/>
      <point x="316" y="646" type="curve"/>
      <point x="236" y="698" type="line"/>
      <point x="229" y="676"/>
      <point x="219" y="665"/>
      <point x="207" y="665" type="curve" smooth="yes"/>
      <point x="193" y="665"/>
      <point x="178" y="671"/>
      <point x="162" y="684" type="curve" smooth="yes"/>
      <point x="142" y="700"/>
      <point x="122" y="708"/>
      <point x="104" y="708" type="curve" smooth="yes"/>
      <point x="51" y="708"/>
      <point x="15" y="676"/>
      <point x="0" y="615" type="curve"/>
      <point x="78" y="563" type="line"/>
      <point x="87" y="585"/>
      <point x="99" y="597"/>
      <point x="113" y="597" type="curve" smooth="yes"/>
      <point x="124" y="597"/>
      <point x="136" y="591"/>
      <point x="151" y="578" type="curve" smooth="yes"/>
      <point x="170" y="562"/>
      <point x="193" y="554"/>
      <point x="216" y="554" type="curve" smooth="yes"/>
    </contour>
    <contour>
      <point x="136" y="520" type="move" name="_top"/>
    </contour>
  </outline>
</glyph>
<glyph name="macroncomb" format="1">
  <advance width="231"/>
  <unicode hex="0304"/>
  <outline>
    <contour>
      <point x="231" y="572" type="line"/>
      <point x="231" y="697" type="line"/>
      <point x="0" y="697" type="line"/>
      <point x="0" y="572" type="line"/>
    </contour>
    <contour>
      <point x="121" y="520" type="move" name="_top"/>
    </contour>
  </outline>
</glyph>
<glyph name="brevecomb" format="1">
  <advance width="278"/>
  <unicode hex="0306"/>
  <outline>
    <contour>
      <point x="139" y="543" type="curve" smooth="yes"/>
      <point x="218" y="543"/>
      <point x="270" y="593"/>
      <point x="270" y="669" type="curve"/>
      <point x="175" y="669" type="line"/>
      <point x="175" y="640"/>
      <point x="161" y="621"/>
      <point x="139" y="621" type="curve" smooth="yes"/>
      <point x="117" y="621"/>
      <point x="103" y="640"/>
      <point x="103" y="669" type="curve"/>
      <point x="8" y="669" type="line"/>
      <point x="8" y="593"/>
      <point x="60" y="543"/>
    </contour>
    <contour>
      <point x="139" y="520" type="move" name="_top"/>
    </contour>
  </outline>
</glyph>
<glyph name="dotaccentcomb" format="1">
  <advance width="155"/>
  <unicode hex="0307"/>
  <outline>
    <contour>
      <point x="78" y="551" type="curve" smooth="yes"/>
      <point x="125" y="551"/>
      <point x="155" y="583"/>
      <point x="155" y="630" type="curve" smooth="yes"/>
      <point x="155" y="678"/>
      <point x="125" y="709"/>
      <point x="78" y="709" type="curve" smooth="yes"/>
      <point x="31" y="709"/>
      <point x="0" y="678"/>
      <point x="0" y="630" type="curve" smooth="yes"/>
      <point x="0" y="583"/>
      <point x="31" y="551"/>
    </contour>
    <contour>
      <point x="78" y="520" type="move" name="_top"/>
    </contour>
  </outline>
</glyph>
<glyph name="dieresiscomb" format="1">
  <advance width="366"/>
  <unicode hex="0308"/>
  <outline>
    <contour>
      <point x="332" y="551"/>
      <point x="366" y="586"/>
      <point x="366" y="638" type="curve" smooth="yes"/>
      <point x="366" y="690"/>
      <point x="332" y="725"/>
      <point x="280" y="725" type="curve" smooth="yes"/>
      <point x="228" y="725"/>
      <point x="194" y="690"/>
      <point x="194" y="638" type="curve" smooth="yes"/>
      <point x="194" y="586"/>
      <point x="228" y="551"/>
      <point x="280" y="551" type="curve" smooth="yes"/>
    </contour>
    <contour>
      <point x="138" y="551"/>
      <point x="172" y="586"/>
      <point x="172" y="638" type="curve" smooth="yes"/>
      <point x="172" y="690"/>
      <point x="138" y="725"/>
      <point x="87" y="725" type="curve" smooth="yes"/>
      <point x="36" y="725"/>
      <point x="0" y="690"/>
      <point x="0" y="638" type="curve" smooth="yes"/>
      <point x="0" y="586"/>
      <point x="36" y="551"/>
      <point x="87" y="551" type="curve" smooth="yes"/>
    </contour>
    <contour>
      <point x="181" y="520" type="move" name="_top"/>
    </contour>
  </outline>
</glyph>
<glyph name="ringcomb" format="1">
  <advance width="234"/>
  <unicode hex="030A"/>
  <outline>
    <contour>
      <point x="183" y="546"/>
      <point x="234" y="597"/>
      <point x="234" y="663" type="curve" smooth="yes"/>
      <point x="234" y="728"/>
      <point x="183" y="779"/>
      <point x="117" y="779" type="curve" smooth="yes"/>
      <point x="51" y="779"/>
      <point x="0" y="728"/>
      <point x="0" y="663" type="curve" smooth="yes"/>
      <point x="0" y="597"/>
      <point x="51" y="546"/>
      <point x="117" y="546" type="curve" smooth="yes"/>
    </contour>
    <contour>
      <point x="97" y="627"/>
      <point x="81" y="643"/>
      <point x="81" y="663" type="curve" smooth="yes"/>
      <point x="81" y="684"/>
      <point x="97" y="700"/>
      <point x="117" y="700" type="curve" smooth="yes"/>
      <point x="137" y="700"/>
      <point x="153" y="684"/>
      <point x="153" y="663" type="curve" smooth="yes"/>
      <point x="153" y="643"/>
      <point x="137" y="627"/>
      <point x="117" y="627" type="curve" smooth="yes"/>
    </contour>
    <contour>
      <point x="117" y="520" type="move" name="_top"/>
    </contour>
  </outline>
</glyph>
<glyph name="hungarumlautcomb" format="1">
  <advance width="409"/>
  <unicode hex="030B"/>
  <outline>
    <contour>
      <point x="160" y="569" type="line"/>
      <point x="221" y="690" type="line"/>
      <point x="61" y="690" type="line"/>
      <point x="8" y="569" type="line"/>
    </contour>
    <contour>
      <point x="340" y="569" type="line"/>
      <point x="401" y="690" type="line"/>
      <point x="250" y="690" type="line"/>
      <point x="188" y="569" type="line"/>
    </contour>
    <contour>
      <point x="165" y="520" type="move" name="_top"/>
    </contour>
  </outline>
</glyph>
<glyph name="caroncomb" format="1">
  <advance width="354"/>
  <unicode hex="030C"/>
  <outline>
    <contour>
      <point x="263" y="565" type="line"/>
      <point x="346" y="694" type="line"/>
      <point x="213" y="694" type="line"/>
      <point x="182" y="632" type="line"/>
      <point x="149" y="694" type="line"/>
      <point x="8" y="694" type="line"/>
      <point x="89" y="565" type="line"/>
    </contour>
    <contour>
      <point x="182" y="520" type="move" name="_top"/>
    </contour>
  </outline>
</glyph>
<glyph name="commaaccentcomb" format="1">
  <advance width="233"/>
  <unicode hex="0326"/>
  <outline>
    <contour>
      <point x="146" y="-301" type="line"/>
      <point x="209" y="-30" type="line"/>
      <point x="41" y="-30" type="line"/>
      <point x="24" y="-301" type="line"/>
    </contour>
    <contour>
      <point x="151" y="0" type="move" name="_bottom"/>
    </contour>
  </outline>
</glyph>
<glyph name="ogonekcomb" format="1">
  <advance width="172"/>
  <unicode hex="0328"/>
  <outline>
    <contour>
      <point x="153" y="-92" type="line"/>
      <point x="139" y="-100"/>
      <point x="123" y="-97"/>
      <point x="118" y="-79" type="curve" smooth="yes"/>
      <point x="113" y="-59"/>
      <point x="132" y="-31"/>
      <point x="172" y="0" type="curve"/>
      <point x="50" y="0" type="line"/>
      <point x="7" y="-41"/>
      <point x="-8" y="-87"/>
      <point x="3" y="-131" type="curve" smooth="yes"/>
      <point x="26" y="-222"/>
      <point x="141" y="-192"/>
      <point x="164" y="-182" type="curve"/>
    </contour>
    <contour>
      <point x="97" y="-10" type="move" name="_bottom"/>
    </contour>
  </outline>
</glyph>
<glyph name="strokeshortcomb" format="1">
  <advance width="316"/>
  <unicode hex="0335"/>
  <outline>
    <contour>
      <point x="0" y="657" type="line"/>
      <point x="0" y="547" type="line"/>
      <point x="316" y="547" type="line"/>
      <point x="316" y="657" type="line"/>
    </contour>
    <contour>
      <point x="158" y="547" type="move" name="_shortstroke"/>
    </contour>
  </outline>
</glyph>
<glyph name="strokelongcomb" format="1">
  <advance width="529"/>
  <unicode hex="0336"/>
  <outline>
    <contour>
      <point x="0" y="505" type="line"/>
      <point x="529" y="505" type="line"/>
      <point x="529" y="630" type="line"/>
      <point x="0" y="630" type="line"/>
    </contour>
    <contour>
      <point x="264" y="505" type="move" name="_strokelong"/>
    </contour>
  </outline>
</glyph>
<glyph name="slashshortcomb" format="1">
  <advance width="364"/>
  <unicode hex="0337"/>
  <outline>
    <contour>
      <point x="-8" y="111" type="line"/>
      <point x="417" y="484" type="line"/>
      <point x="325" y="590" type="line"/>
      <point x="-100" y="217" type="line"/>
    </contour>
  </outline>
</glyph>
<glyph name="slashlongcomb" format="1">
  <advance width="421"/>
  <unicode hex="0338"/>
  <outline>
    <contour>
      <point x="0" y="-30" type="line"/>
      <point x="76" y="-30" type="line"/>
      <point x="421" y="730" type="line"/>
      <point x="344" y="730" type="line"/>
    </contour>
  </outline>
</glyph>
<glyph name="Delta" format="1">
  <advance width="568"/>
  <unicode hex="0394"/>
  <outline>
    <contour>
      <point x="556" y="0" type="line"/>
      <point x="556" y="159" type="line"/>
      <point x="349" y="700" type="line"/>
      <point x="218" y="700" type="line"/>
      <point x="12" y="160" type="line"/>
      <point x="12" y="0" type="line"/>
    </contour>
    <contour>
      <point x="284" y="460" type="line"/>
      <point x="373" y="162" type="line"/>
      <point x="195" y="162" type="line"/>
    </contour>
  </outline>
</glyph>
<glyph name="Omega" format="1">
  <advance width="506"/>
  <unicode hex="03A9"/>
  <outline>
    <contour>
      <point x="243" y="0" type="line"/>
      <point x="243" y="162" type="line"/>
      <point x="228" y="166"/>
      <point x="220" y="183"/>
      <point x="220" y="205" type="curve" smooth="yes"/>
      <point x="220" y="502" type="line" smooth="yes"/>
      <point x="220" y="529"/>
      <point x="232" y="547"/>
      <point x="254" y="547" type="curve" smooth="yes"/>
      <point x="276" y="547"/>
      <point x="288" y="529"/>
      <point x="288" y="502" type="curve" smooth="yes"/>
      <point x="288" y="205" type="line" smooth="yes"/>
      <point x="288" y="182"/>
      <point x="279" y="165"/>
      <point x="264" y="161" type="curve"/>
      <point x="264" y="0" type="line"/>
      <point x="486" y="0" type="line"/>
      <point x="486" y="161" type="line"/>
      <point x="445" y="161" type="line"/>
      <point x="465" y="192"/>
      <point x="476" y="230"/>
      <point x="476" y="276" type="curve" smooth="yes"/>
      <point x="476" y="494" type="line" smooth="yes"/>
      <point x="476" y="625"/>
      <point x="388" y="708"/>
      <point x="254" y="708" type="curve" smooth="yes"/>
      <point x="119" y="708"/>
      <point x="32" y="625"/>
      <point x="32" y="494" type="curve" smooth="yes"/>
      <point x="32" y="276" type="line" smooth="yes"/>
      <point x="32" y="230"/>
      <point x="43" y="192"/>
      <point x="62" y="161" type="curve"/>
      <point x="20" y="161" type="line"/>
      <point x="20" y="0" type="line"/>
    </contour>
  </outline>
</glyph>
<glyph name="pi" format="1">
  <advance width="467"/>
  <unicode hex="03C0"/>
  <outline>
    <contour>
      <point x="472" y="159" type="line"/>
      <point x="455" y="157"/>
      <point x="427" y="141"/>
      <point x="427" y="223" type="curve"/>
      <point x="427" y="520" type="line"/>
      <point x="238" y="520" type="line"/>
      <point x="238" y="116" type="line"/>
      <point x="236" y="-36"/>
      <point x="402" y="-1"/>
      <point x="472" y="0" type="curve"/>
    </contour>
    <contour>
      <point x="197" y="0" type="line"/>
      <point x="197" y="520" type="line"/>
      <point x="9" y="520" type="line"/>
      <point x="9" y="0" type="line"/>
    </contour>
    <contour>
      <point x="480" y="360" type="line"/>
      <point x="480" y="520" type="line"/>
      <point x="-42" y="520" type="line"/>
      <point x="-42" y="360" type="line"/>
    </contour>
  </outline>
</glyph>
<glyph name="endash" format="1">
  <advance width="386"/>
  <unicode hex="2013"/>
  <outline>
    <contour>
      <point x="368" y="204" type="line"/>
      <point x="368" y="365" type="line"/>
      <point x="18" y="365" type="line"/>
      <point x="18" y="204" type="line"/>
    </contour>
  </outline>
</glyph>
<glyph name="emdash" format="1">
  <advance width="593"/>
  <unicode hex="2014"/>
  <outline>
    <contour>
      <point x="575" y="205" type="line"/>
      <point x="575" y="365" type="line"/>
      <point x="18" y="365" type="line"/>
      <point x="18" y="205" type="line"/>
    </contour>
  </outline>
</glyph>
<glyph name="quoteleft" format="1">
  <advance width="231"/>
  <unicode hex="2018"/>
  <outline>
    <contour>
      <point x="83" y="700" type="line"/>
      <point x="0" y="460" type="line"/>
      <point x="188" y="460" type="line"/>
      <point x="231" y="700" type="line"/>
    </contour>
  </outline>
</glyph>
<glyph name="quotedblleft" format="1">
  <advance width="421"/>
  <unicode hex="201C"/>
  <outline>
    <contour>
      <point x="0" y="460" type="line"/>
      <point x="181" y="460" type="line"/>
      <point x="224" y="700" type="line"/>
      <point x="82" y="700" type="line"/>
    </contour>
    <contour>
      <point x="199" y="460" type="line"/>
      <point x="380" y="460" type="line"/>
      <point x="421" y="700" type="line"/>
      <point x="279" y="700" type="line"/>
    </contour>
  </outline>
</glyph>
<glyph name="dagger" format="1">
  <advance width="386"/>
  <unicode hex="2020"/>
  <outline>
    <contour>
      <point x="287" y="-200" type="line"/>
      <point x="287" y="700" type="line"/>
      <point x="99" y="700" type="line"/>
      <point x="99" y="-200" type="line"/>
    </contour>
    <contour>
      <point x="368" y="320" type="line"/>
      <point x="368" y="460" type="line"/>
      <point x="18" y="460" type="line"/>
      <point x="18" y="320" type="line"/>
    </contour>
  </outline>
</glyph>
<glyph name="daggerdbl" format="1">
  <advance width="386"/>
  <unicode hex="2021"/>
  <outline>
    <contour>
      <point x="99" y="-200" type="line"/>
      <point x="287" y="-200" type="line"/>
      <point x="287" y="700" type="line"/>
      <point x="99" y="700" type="line"/>
    </contour>
    <contour>
      <point x="18" y="40" type="line"/>
      <point x="368" y="40" type="line"/>
      <point x="368" y="180" type="line"/>
      <point x="18" y="180" type="line"/>
    </contour>
    <contour>
      <point x="18" y="320" type="line"/>
      <point x="368" y="320" type="line"/>
      <point x="368" y="460" type="line"/>
      <point x="18" y="460" type="line"/>
    </contour>
  </outline>
</glyph>
<glyph name="bullet" format="1">
  <advance width="314"/>
  <unicode hex="2022"/>
  <outline>
    <contour>
      <point x="158" y="143" type="curve" smooth="yes"/>
      <point x="234" y="143"/>
      <point x="296" y="206"/>
      <point x="296" y="283" type="curve" smooth="yes"/>
      <point x="296" y="361"/>
      <point x="234" y="422"/>
      <point x="158" y="422" type="curve" smooth="yes"/>
      <point x="80" y="422"/>
      <point x="18" y="361"/>
      <point x="18" y="283" type="curve" smooth="yes"/>
      <point x="18" y="206"/>
      <point x="80" y="143"/>
    </contour>
  </outline>
</glyph>
<glyph name="guilsinglright" format="1">
  <advance width="280"/>
  <unicode hex="203A"/>
  <outline>
    <contour>
      <point x="180" y="107" type="line"/>
      <point x="254" y="281" type="line"/>
      <point x="180" y="455" type="line"/>
      <point x="26" y="455" type="line"/>
      <point x="105" y="281" type="line"/>
      <point x="26" y="107" type="line"/>
    </contour>
  </outline>
</glyph>
<glyph name="fraction" format="1">
  <advance width="236"/>
  <unicode hex="2044"/>
  <outline>
    <contour>
      <point x="386" y="700" type="line"/>
      <point x="254" y="700" type="line"/>
      <point x="-153" y="0" type="line"/>
      <point x="-21" y="0" type="line"/>
    </contour>
  </outline>
</glyph>
<glyph name="euro" format="1">
  <advance width="510"/>
  <unicode hex="20AC"/>
  <outline>
    <contour>
      <point x="397" y="-8"/>
      <point x="473" y="55"/>
      <point x="490" y="159" type="curve"/>
      <point x="306" y="186" type="line"/>
      <point x="305" y="166"/>
      <point x="300" y="153"/>
      <point x="289" y="153" type="curve" smooth="yes"/>
      <point x="278" y="153"/>
      <point x="272" y="167"/>
      <point x="272" y="189" type="curve" smooth="yes"/>
      <point x="272" y="510" type="line" smooth="yes"/>
      <point x="272" y="532"/>
      <point x="278" y="547"/>
      <point x="289" y="547" type="curve" smooth="yes"/>
      <point x="300" y="547"/>
      <point x="306" y="532"/>
      <point x="306" y="511" type="curve"/>
      <point x="492" y="532" type="line"/>
      <point x="478" y="642"/>
      <point x="401" y="708"/>
      <point x="289" y="708" type="curve" smooth="yes"/>
      <point x="165" y="708"/>
      <point x="84" y="627"/>
      <point x="84" y="497" type="curve" smooth="yes"/>
      <point x="84" y="205" type="line" smooth="yes"/>
      <point x="84" y="75"/>
      <point x="165" y="-8"/>
      <point x="289" y="-8" type="curve" smooth="yes"/>
    </contour>
    <contour>
      <point x="355" y="247" type="line"/>
      <point x="382" y="341" type="line"/>
      <point x="20" y="341" type="line"/>
      <point x="20" y="247" type="line"/>
    </contour>
    <contour>
      <point x="387" y="358" type="line"/>
      <point x="413" y="452" type="line"/>
      <point x="20" y="452" type="line"/>
      <point x="20" y="358" type="line"/>
    </contour>
    <contour>
      <point x="289" y="708" type="move" name="top"/>
    </contour>
  </outline>
</glyph>
<glyph name="uni20BA" format="1">
  <advance width="592"/>
  <unicode hex="20BA"/>
  <outline>
    <contour>
      <point x="50" y="236" type="line"/>
      <point x="480" y="365" type="line"/>
      <point x="450" y="465" type="line"/>
      <point x="20" y="336" type="line"/>
    </contour>
    <contour>
      <point x="50" y="386" type="line"/>
      <point x="480" y="515" type="line"/>
      <point x="450" y="615" type="line"/>
      <point x="20" y="486" type="line"/>
    </contour>
    <contour>
      <point x="112" y="0" type="line"/>
      <point x="166" y="0"/>
      <point x="219" y="0"/>
      <point x="272" y="0" type="curve" smooth="yes"/>
      <point x="492" y="0"/>
      <point x="579" y="125"/>
      <point x="574" y="291" type="curve"/>
      <point x="386" y="291" type="line"/>
      <point x="391" y="197"/>
      <point x="372" y="168"/>
      <point x="300" y="161" type="curve"/>
      <point x="300" y="700" type="line"/>
      <point x="112" y="700" type="line"/>
    </contour>
  </outline>
</glyph>
<glyph name="uni2113" format="1">
  <advance width="440"/>
  <unicode hex="2113"/>
  <outline>
    <contour>
      <point x="256" y="-8" type="curve"/>
      <point x="338" y="-8"/>
      <point x="379" y="14"/>
      <point x="420" y="68" type="curve"/>
      <point x="319" y="169" type="line"/>
      <point x="310" y="150"/>
      <point x="292" y="132"/>
      <point x="271" y="132" type="curve"/>
      <point x="255" y="132"/>
      <point x="236" y="149"/>
      <point x="236" y="205" type="curve" smooth="yes"/>
      <point x="235" y="473" type="line" smooth="yes"/>
      <point x="234" y="564"/>
      <point x="243" y="576"/>
      <point x="257" y="577" type="curve"/>
      <point x="275" y="576"/>
      <point x="276" y="558"/>
      <point x="276" y="532" type="curve"/>
      <point x="276" y="434"/>
      <point x="150" y="339"/>
      <point x="20" y="268" type="curve"/>
      <point x="56" y="145" type="line"/>
      <point x="239" y="249"/>
      <point x="412" y="366"/>
      <point x="412" y="549" type="curve"/>
      <point x="412" y="642"/>
      <point x="354" y="707"/>
      <point x="261" y="707" type="curve" smooth="yes"/>
      <point x="131" y="707"/>
      <point x="83" y="582"/>
      <point x="83" y="503" type="curve"/>
      <point x="84" y="175" type="line"/>
      <point x="84" y="61"/>
      <point x="150" y="-8"/>
    </contour>
  </outline>
</glyph>
<glyph name="trademark" format="1">
  <advance width="560"/>
  <unicode hex="2122"/>
  <outline>
    <contour>
      <point x="282" y="349" type="line"/>
      <point x="380" y="349" type="line"/>
      <point x="380" y="565" type="line"/>
      <point x="415" y="512" type="line"/>
      <point x="416" y="512" type="line"/>
      <point x="451" y="563" type="line"/>
      <point x="451" y="349" type="line"/>
      <point x="549" y="349" type="line"/>
      <point x="549" y="700" type="line"/>
      <point x="454" y="700" type="line"/>
      <point x="416" y="642" type="line"/>
      <point x="378" y="700" type="line"/>
      <point x="282" y="700" type="line"/>
    </contour>
    <contour>
      <point x="84" y="349" type="line"/>
      <point x="182" y="349" type="line"/>
      <point x="182" y="695" type="line"/>
      <point x="84" y="695" type="line"/>
    </contour>
    <contour>
      <point x="9" y="616" type="line"/>
      <point x="259" y="616" type="line"/>
      <point x="259" y="700" type="line"/>
      <point x="9" y="700" type="line"/>
    </contour>
  </outline>
</glyph>
<glyph name="partialdiff" format="1">
  <advance width="562"/>
  <unicode hex="2202"/>
  <outline>
    <contour>
      <point x="446" y="-8"/>
      <point x="540" y="102"/>
      <point x="540" y="322" type="curve" smooth="yes"/>
      <point x="540" y="447"/>
      <point x="510" y="547"/>
      <point x="444" y="616" type="curve" smooth="yes"/>
      <point x="392" y="671"/>
      <point x="319" y="702"/>
      <point x="255" y="704" type="curve" smooth="yes"/>
      <point x="206" y="706"/>
      <point x="140" y="692"/>
      <point x="62" y="653" type="curve"/>
      <point x="126" y="487" type="line"/>
      <point x="159" y="520"/>
      <point x="214" y="526"/>
      <point x="242" y="524" type="curve" smooth="yes"/>
      <point x="272" y="522"/>
      <point x="291" y="508"/>
      <point x="305" y="491" type="curve" smooth="yes"/>
      <point x="336" y="453"/>
      <point x="346" y="394"/>
      <point x="348" y="338" type="curve" smooth="yes"/>
      <point x="352" y="216"/>
      <point x="317" y="153"/>
      <point x="272" y="153" type="curve" smooth="yes"/>
      <point x="240" y="153"/>
      <point x="206" y="175"/>
      <point x="206" y="229" type="curve" smooth="yes"/>
      <point x="206" y="284"/>
      <point x="241" y="303"/>
      <point x="270" y="306" type="curve" smooth="yes"/>
      <point x="299" y="309"/>
      <point x="345" y="289"/>
      <point x="360" y="246" type="curve"/>
      <point x="491" y="311" type="line"/>
      <point x="461" y="400"/>
      <point x="348" y="455"/>
      <point x="254" y="458" type="curve" smooth="yes"/>
      <point x="153" y="462"/>
      <point x="18" y="409"/>
      <point x="18" y="223" type="curve" smooth="yes"/>
      <point x="18" y="56"/>
      <point x="127" y="-8"/>
      <point x="265" y="-8" type="curve" smooth="yes"/>
    </contour>
  </outline>
</glyph>
<glyph name="increment" format="1">
  <advance width="568"/>
  <unicode hex="2206"/>
  <outline>
    <contour>
      <point x="556" y="0" type="line"/>
      <point x="556" y="158" type="line"/>
      <point x="349" y="700" type="line"/>
      <point x="218" y="700" type="line"/>
      <point x="12" y="159" type="line"/>
      <point x="12" y="0" type="line"/>
    </contour>
    <contour>
      <point x="284" y="460" type="line"/>
      <point x="373" y="161" type="line"/>
      <point x="195" y="161" type="line"/>
    </contour>
  </outline>
</glyph>
<glyph name="product" format="1">
  <advance width="487"/>
  <unicode hex="220F"/>
  <outline>
    <contour>
      <point x="273" y="-200" type="line"/>
      <point x="461" y="-200" type="line"/>
      <point x="461" y="800" type="line"/>
      <point x="273" y="800" type="line"/>
    </contour>
    <contour>
      <point x="26" y="-200" type="line"/>
      <point x="214" y="-200" type="line"/>
      <point x="214" y="800" type="line"/>
      <point x="26" y="800" type="line"/>
    </contour>
    <contour>
      <point x="26" y="639" type="line"/>
      <point x="461" y="639" type="line"/>
      <point x="461" y="800" type="line"/>
      <point x="26" y="800" type="line"/>
    </contour>
  </outline>
</glyph>
<glyph name="minus" format="1">
  <advance width="427"/>
  <unicode hex="2212"/>
  <outline>
    <contour>
      <point x="409" y="252" type="line"/>
      <point x="409" y="392" type="line"/>
      <point x="18" y="392" type="line"/>
      <point x="18" y="252" type="line"/>
    </contour>
  </outline>
</glyph>
<glyph name="divisionslash" format="1">
  <advance width="488"/>
  <unicode hex="2215"/>
  <outline>
    <contour>
      <point x="181" y="0" type="line"/>
      <point x="480" y="700" type="line"/>
      <point x="308" y="700" type="line"/>
      <point x="8" y="0" type="line"/>
    </contour>
  </outline>
</glyph>
<glyph name="bulletoperator" format="1">
  <advance width="314"/>
  <unicode hex="2219"/>
  <outline>
    <contour>
      <point x="158" y="148" type="curve" smooth="yes"/>
      <point x="234" y="148"/>
      <point x="296" y="211"/>
      <point x="296" y="288" type="curve" smooth="yes"/>
      <point x="296" y="366"/>
      <point x="234" y="427"/>
      <point x="158" y="427" type="curve" smooth="yes"/>
      <point x="80" y="427"/>
      <point x="18" y="366"/>
      <point x="18" y="288" type="curve" smooth="yes"/>
      <point x="18" y="211"/>
      <point x="80" y="148"/>
    </contour>
  </outline>
</glyph>
<glyph name="radical" format="1">
  <advance width="781"/>
  <unicode hex="221A"/>
  <outline>
    <contour>
      <point x="341" y="-200" type="line"/>
      <point x="530" y="637" type="line"/>
      <point x="759" y="637" type="line"/>
      <point x="759" y="798" type="line"/>
      <point x="386" y="798" type="line"/>
      <point x="237" y="101" type="line"/>
      <point x="184" y="291" type="line"/>
      <point x="8" y="233" type="line"/>
      <point x="158" y="-200" type="line"/>
    </contour>
  </outline>
</glyph>
<glyph name="infinity" format="1">
  <advance width="671"/>
  <unicode hex="221E"/>
  <outline>
    <contour>
      <point x="577" y="117"/>
      <point x="653" y="203"/>
      <point x="653" y="319" type="curve" smooth="yes"/>
      <point x="653" y="434"/>
      <point x="578" y="522"/>
      <point x="473" y="522" type="curve" smooth="yes"/>
      <point x="374" y="522"/>
      <point x="322" y="436"/>
      <point x="271" y="353" type="curve" smooth="yes"/>
      <point x="226" y="279"/>
      <point x="214" y="261"/>
      <point x="195" y="261" type="curve" smooth="yes"/>
      <point x="175" y="261"/>
      <point x="161" y="286"/>
      <point x="161" y="321" type="curve" smooth="yes"/>
      <point x="161" y="355"/>
      <point x="175" y="378"/>
      <point x="197" y="378" type="curve" smooth="yes"/>
      <point x="222" y="378"/>
      <point x="230" y="357"/>
      <point x="271" y="288" type="curve" smooth="yes"/>
      <point x="333" y="183"/>
      <point x="383" y="117"/>
      <point x="470" y="117" type="curve" smooth="yes"/>
    </contour>
    <contour>
      <point x="297" y="117"/>
      <point x="354" y="225"/>
      <point x="389" y="287" type="curve" smooth="yes"/>
      <point x="432" y="363"/>
      <point x="455" y="378"/>
      <point x="476" y="378" type="curve" smooth="yes"/>
      <point x="496" y="378"/>
      <point x="510" y="355"/>
      <point x="510" y="319" type="curve" smooth="yes"/>
      <point x="510" y="283"/>
      <point x="496" y="261"/>
      <point x="473" y="261" type="curve" smooth="yes"/>
      <point x="452" y="261"/>
      <point x="436" y="270"/>
      <point x="390" y="352" type="curve" smooth="yes"/>
      <point x="353" y="418"/>
      <point x="301" y="522"/>
      <point x="195" y="522" type="curve" smooth="yes"/>
      <point x="95" y="522"/>
      <point x="18" y="435"/>
      <point x="18" y="321" type="curve" smooth="yes"/>
      <point x="18" y="207"/>
      <point x="95" y="117"/>
      <point x="193" y="117" type="curve" smooth="yes"/>
    </contour>
  </outline>
</glyph>
<glyph name="integral" format="1">
  <advance width="342"/>
  <unicode hex="222B"/>
  <outline>
    <contour>
      <point x="206" y="-200"/>
      <point x="265" y="-174"/>
      <point x="265" y="-56" type="curve" smooth="yes"/>
      <point x="265" y="539" type="line" smooth="yes"/>
      <point x="265" y="557"/>
      <point x="278" y="572"/>
      <point x="303" y="575" type="curve"/>
      <point x="330" y="575" type="line"/>
      <point x="330" y="700" type="line"/>
      <point x="137" y="700"/>
      <point x="78" y="674"/>
      <point x="77" y="556" type="curve" smooth="yes"/>
      <point x="77" y="-39" type="line" smooth="yes"/>
      <point x="77" y="-57"/>
      <point x="63" y="-72"/>
      <point x="40" y="-75" type="curve"/>
      <point x="13" y="-75" type="line"/>
      <point x="12" y="-200" type="line"/>
    </contour>
  </outline>
</glyph>
<glyph name="notequal" format="1">
  <advance width="436"/>
  <unicode hex="2260"/>
  <outline>
    <contour>
      <point x="368" y="543" type="line"/>
      <point x="258" y="543" type="line"/>
      <point x="66" y="59" type="line"/>
      <point x="176" y="59" type="line"/>
    </contour>
    <component base="equal" yOffset="1"/>
  </outline>
</glyph>
<glyph name="lozenge" format="1">
  <advance width="469"/>
  <unicode hex="25CA"/>
  <outline>
    <contour>
      <point x="173" y="-60" type="line"/>
      <point x="297" y="-60" type="line"/>
      <point x="451" y="350" type="line"/>
      <point x="296" y="760" type="line"/>
      <point x="174" y="760" type="line"/>
      <point x="18" y="350" type="line"/>
    </contour>
    <contour>
      <point x="235" y="129" type="line"/>
      <point x="163" y="350" type="line"/>
      <point x="235" y="561" type="line"/>
      <point x="307" y="350" type="line"/>
    </contour>
  </outline>
</glyph>
<glyph name=".notdef" format="1">
  <advance width="446"/>
  <outline>
    <contour>
      <point x="0" y="0" type="line"/>
      <point x="0" y="700" type="line"/>
      <point x="446" y="700" type="line"/>
      <point x="446" y="0" type="line"/>
    </contour>
    <component base="question" xScale="0.714" yScale="0.714" xOffset="56" yOffset="90"/>
  </outline>
</glyph>
<glyph name="a.alt" format="1">
  <advance width="439"/>
  <outline>
    <contour>
      <point x="430" y="0" type="line"/>
      <point x="430" y="520" type="line"/>
      <point x="242" y="520" type="line"/>
      <point x="242" y="0" type="line"/>
    </contour>
    <component base="b.bowl" xOffset="276" xScale="-1"/>
    <contour>
      <point x="224" y="520" type="move" name="top"/>
    </contour>
  </outline>
</glyph>
<glyph name="a.sc" format="1">
  <advance width="512"/>
  <outline>
    <contour>
      <point x="10" y="0" type="line"/>
      <point x="198" y="0" type="line"/>
      <point x="260" y="347" type="line"/>
      <point x="309" y="0" type="line"/>
      <point x="502" y="0" type="line"/>
      <point x="361" y="578" type="line"/>
      <point x="151" y="578" type="line"/>
    </contour>
    <contour>
      <point x="125" y="66" type="line"/>
      <point x="384" y="66" type="line"/>
      <point x="384" y="210" type="line"/>
      <point x="125" y="210" type="line"/>
    </contour>
    <contour>
      <point x="256" y="578" type="move" name="top"/>
    </contour>
  </outline>
</glyph>
<glyph name="ae.sc" format="1">
  <advance width="760"/>
  <outline>
    <contour>
      <point x="208" y="0" type="line"/>
      <point x="358" y="372" type="line"/>
      <point x="358" y="0" type="line"/>
      <point x="745" y="0" type="line"/>
      <point x="745" y="161" type="line"/>
      <point x="546" y="161" type="line"/>
      <point x="546" y="441" type="line"/>
      <point x="745" y="441" type="line"/>
      <point x="745" y="602" type="line"/>
      <point x="275" y="602" type="line"/>
      <point x="10" y="0" type="line"/>
    </contour>
    <contour>
      <point x="445" y="72" type="line"/>
      <point x="444" y="216" type="line"/>
      <point x="187" y="216" type="line"/>
      <point x="187" y="72" type="line"/>
    </contour>
    <contour>
      <point x="656" y="221" type="line"/>
      <point x="656" y="382" type="line"/>
      <point x="434" y="382" type="line"/>
      <point x="434" y="221" type="line"/>
    </contour>
  </outline>
</glyph>
<glyph name="b.bowl" format="1">
  <advance width="267"/>
  <outline>
    <contour>
      <point x="230" y="-8"/>
      <point x="267" y="60"/>
      <point x="267" y="170" type="curve" smooth="yes"/>
      <point x="267" y="166"/>
      <point x="267" y="235"/>
      <point x="267" y="260" type="curve"/>
      <point x="267" y="284"/>
      <point x="267" y="350"/>
      <point x="267" y="350" type="curve" smooth="yes"/>
      <point x="267" y="466"/>
      <point x="226" y="528"/>
      <point x="130" y="528" type="curve" smooth="yes"/>
      <point x="100" y="528"/>
      <point x="9" y="522"/>
      <point x="1" y="350" type="curve" smooth="yes"/>
      <point x="0" y="345"/>
      <point x="0" y="313"/>
      <point x="0" y="260" type="curve"/>
      <point x="0" y="241"/>
      <point x="0" y="175"/>
      <point x="0" y="170" type="curve" smooth="yes"/>
      <point x="0" y="-2"/>
      <point x="100" y="-8"/>
      <point x="130" y="-8" type="curve" smooth="yes"/>
    </contour>
    <contour>
      <point x="44" y="153"/>
      <point x="35" y="166"/>
      <point x="35" y="185" type="curve" smooth="yes"/>
      <point x="35" y="210"/>
      <point x="35" y="235"/>
      <point x="35" y="260" type="curve"/>
      <point x="35" y="285"/>
      <point x="35" y="310"/>
      <point x="35" y="335" type="curve" smooth="yes"/>
      <point x="35" y="354"/>
      <point x="44" y="367"/>
      <point x="58" y="367" type="curve" smooth="yes"/>
      <point x="71" y="367"/>
      <point x="79" y="354"/>
      <point x="79" y="335" type="curve" smooth="yes"/>
      <point x="79" y="310"/>
      <point x="79" y="285"/>
      <point x="79" y="260" type="curve" smooth="yes"/>
      <point x="79" y="235"/>
      <point x="79" y="210"/>
      <point x="79" y="185" type="curve" smooth="yes"/>
      <point x="79" y="166"/>
      <point x="71" y="153"/>
      <point x="58" y="153" type="curve" smooth="yes"/>
    </contour>
  </outline>
</glyph>
<glyph name="b.sc" format="1">
  <advance width="463"/>
  <outline>
    <contour>
      <point x="21" y="0" type="line"/>
      <point x="241" y="0" type="line" smooth="yes"/>
      <point x="355" y="0"/>
      <point x="451" y="53"/>
      <point x="449" y="169" type="curve" smooth="yes"/>
      <point x="446" y="316"/>
      <point x="303" y="344"/>
      <point x="177" y="344" type="curve"/>
      <point x="21" y="344" type="line"/>
    </contour>
    <contour>
      <point x="209" y="161" type="line"/>
      <point x="209" y="231" type="line"/>
      <point x="227" y="231" type="line" smooth="yes"/>
      <point x="247" y="231"/>
      <point x="262" y="215"/>
      <point x="262" y="194" type="curve" smooth="yes"/>
      <point x="262" y="170"/>
      <point x="246" y="161"/>
      <point x="226" y="161" type="curve" smooth="yes"/>
    </contour>
    <contour>
      <point x="21" y="267" type="line"/>
      <point x="179" y="267" type="line" smooth="yes"/>
      <point x="350" y="267"/>
      <point x="436" y="296"/>
      <point x="436" y="411" type="curve" smooth="yes"/>
      <point x="436" y="529"/>
      <point x="345" y="578"/>
      <point x="211" y="578" type="curve"/>
      <point x="21" y="578" type="line"/>
    </contour>
    <contour>
      <point x="209" y="355" type="line"/>
      <point x="209" y="417" type="line"/>
      <point x="218" y="417" type="line"/>
      <point x="243" y="417"/>
      <point x="256" y="409"/>
      <point x="256" y="387" type="curve" smooth="yes"/>
      <point x="256" y="364"/>
      <point x="243" y="355"/>
      <point x="218" y="355" type="curve"/>
    </contour>
  </outline>
</glyph>
<glyph name="c.sc" format="1">
  <advance width="457"/>
  <outline>
    <contour>
      <point x="356" y="-7"/>
      <point x="442" y="68"/>
      <point x="442" y="195" type="curve" smooth="yes"/>
      <point x="442" y="210" type="line"/>
      <point x="254" y="217" type="line"/>
      <point x="254" y="179" type="line" smooth="yes"/>
      <point x="254" y="160"/>
      <point x="244" y="154"/>
      <point x="229" y="154" type="curve" smooth="yes"/>
      <point x="214" y="154"/>
      <point x="205" y="160"/>
      <point x="205" y="179" type="curve" smooth="yes"/>
      <point x="205" y="422" type="line" smooth="yes"/>
      <point x="205" y="441"/>
      <point x="214" y="448"/>
      <point x="229" y="448" type="curve" smooth="yes"/>
      <point x="244" y="448"/>
      <point x="254" y="441"/>
      <point x="254" y="422" type="curve" smooth="yes"/>
      <point x="254" y="386" type="line"/>
      <point x="442" y="393" type="line"/>
      <point x="442" y="408" type="line" smooth="yes"/>
      <point x="442" y="536"/>
      <point x="356" y="609"/>
      <point x="229" y="609" type="curve" smooth="yes"/>
      <point x="101" y="609"/>
      <point x="17" y="536"/>
      <point x="17" y="408" type="curve" smooth="yes"/>
      <point x="17" y="195" type="line" smooth="yes"/>
      <point x="17" y="68"/>
      <point x="101" y="-7"/>
      <point x="229" y="-7" type="curve" smooth="yes"/>
    </contour>
    <contour>
      <point x="229" y="609" type="move" name="top"/>
    </contour>
    <contour>
      <point x="229" y="-7" type="move" name="bottom"/>
    </contour>
  </outline>
</glyph>
<glyph name="d.sc" format="1">
  <advance width="460"/>
  <outline>
    <contour>
      <point x="226" y="0" type="line" smooth="yes"/>
      <point x="356" y="0"/>
      <point x="443" y="71"/>
      <point x="443" y="175" type="curve" smooth="yes"/>
      <point x="443" y="427" type="line" smooth="yes"/>
      <point x="443" y="531"/>
      <point x="356" y="602"/>
      <point x="226" y="602" type="curve" smooth="yes"/>
      <point x="21" y="602" type="line"/>
      <point x="21" y="0" type="line"/>
    </contour>
    <contour>
      <point x="209" y="441" type="line"/>
      <point x="221" y="441" type="line" smooth="yes"/>
      <point x="241" y="441"/>
      <point x="255" y="430"/>
      <point x="255" y="415" type="curve"/>
      <point x="255" y="189" type="line"/>
      <point x="253" y="174"/>
      <point x="239" y="163"/>
      <point x="222" y="162" type="curve" smooth="yes"/>
      <point x="209" y="161" type="line"/>
    </contour>
    <contour>
      <point x="223" y="606" type="move" name="top"/>
    </contour>
  </outline>
</glyph>
<glyph name="e.alt" format="1">
  <advance width="455"/>
  <outline>
    <contour>
      <point x="374" y="-8"/>
      <point x="439" y="57"/>
      <point x="439" y="191" type="curve"/>
      <point x="251" y="191" type="line"/>
      <point x="251" y="167"/>
      <point x="243" y="153"/>
      <point x="229" y="153" type="curve" smooth="yes"/>
      <point x="216" y="153"/>
      <point x="206" y="166"/>
      <point x="206" y="185" type="curve" smooth="yes"/>
      <point x="206" y="210"/>
      <point x="206" y="235"/>
      <point x="206" y="260" type="curve" smooth="yes"/>
      <point x="206" y="285"/>
      <point x="206" y="310"/>
      <point x="206" y="335" type="curve" smooth="yes"/>
      <point x="206" y="354"/>
      <point x="216" y="367"/>
      <point x="229" y="367" type="curve" smooth="yes"/>
      <point x="241" y="367"/>
      <point x="251" y="354"/>
      <point x="251" y="335" type="curve" smooth="yes"/>
      <point x="251" y="301"/>
      <point x="251" y="267"/>
      <point x="251" y="233" type="curve"/>
      <point x="323" y="305" type="line"/>
      <point x="161" y="305" type="line"/>
      <point x="161" y="213" type="line"/>
      <point x="439" y="213" type="line"/>
      <point x="439" y="231"/>
      <point x="439" y="249"/>
      <point x="439" y="350" type="curve" smooth="yes"/>
      <point x="439" y="456"/>
      <point x="363" y="528"/>
      <point x="229" y="528" type="curve" smooth="yes"/>
      <point x="95" y="528"/>
      <point x="18" y="456"/>
      <point x="18" y="350" type="curve" smooth="yes"/>
      <point x="18" y="327"/>
      <point x="18" y="283"/>
      <point x="18" y="260" type="curve" smooth="yes"/>
      <point x="18" y="230"/>
      <point x="18" y="200"/>
      <point x="18" y="170" type="curve" smooth="yes"/>
      <point x="18" y="57"/>
      <point x="95" y="-8"/>
      <point x="229" y="-8" type="curve" smooth="yes"/>
    </contour>
    <contour>
      <point x="306" y="39" type="move" name="ogo"/>
    </contour>
    <contour>
      <point x="227" y="528" type="move" name="top"/>
    </contour>
  </outline>
</glyph>
<glyph name="e.sc" format="1">
  <advance width="423"/>
  <outline>
    <contour>
      <point x="408" y="0" type="line"/>
      <point x="408" y="161" type="line"/>
      <point x="209" y="161" type="line"/>
      <point x="209" y="441" type="line"/>
      <point x="408" y="441" type="line"/>
      <point x="408" y="602" type="line"/>
      <point x="21" y="602" type="line"/>
      <point x="21" y="0" type="line"/>
    </contour>
    <contour>
      <point x="319" y="221" type="line"/>
      <point x="319" y="382" type="line"/>
      <point x="97" y="382" type="line"/>
      <point x="97" y="221" type="line"/>
    </contour>
    <contour>
      <point x="214" y="614" type="move" name="top"/>
    </contour>
    <contour>
      <point x="206" y="0" type="move" name="bottom"/>
    </contour>
  </outline>
</glyph>
<glyph name="eight.dnom" format="1">
  <advance width="273"/>
  <outline>
    <contour>
      <point x="192" y="-5"/>
      <point x="235" y="25"/>
      <point x="254" y="70" type="curve" smooth="yes"/>
      <point x="260" y="85"/>
      <point x="265" y="103"/>
      <point x="265" y="125" type="curve" smooth="yes"/>
      <point x="265" y="145"/>
      <point x="261" y="164"/>
      <point x="254" y="180" type="curve" smooth="yes"/>
      <point x="233" y="228"/>
      <point x="188" y="227"/>
      <point x="136" y="240" type="curve"/>
      <point x="82" y="227"/>
      <point x="37" y="225"/>
      <point x="18" y="180" type="curve" smooth="yes"/>
      <point x="11" y="164"/>
      <point x="8" y="145"/>
      <point x="8" y="125" type="curve" smooth="yes"/>
      <point x="8" y="106"/>
      <point x="11" y="87"/>
      <point x="18" y="70" type="curve" smooth="yes"/>
      <point x="37" y="23"/>
      <point x="82" y="-5"/>
      <point x="136" y="-5" type="curve" smooth="yes"/>
    </contour>
    <contour>
      <point x="129" y="96"/>
      <point x="124" y="102"/>
      <point x="124" y="114" type="curve" smooth="yes"/>
      <point x="124" y="120"/>
      <point x="124" y="128"/>
      <point x="124" y="134" type="curve"/>
      <point x="124" y="140"/>
      <point x="124" y="146"/>
      <point x="124" y="152" type="curve" smooth="yes"/>
      <point x="124" y="165"/>
      <point x="129" y="170"/>
      <point x="136" y="170" type="curve"/>
      <point x="144" y="170"/>
      <point x="148" y="165"/>
      <point x="148" y="152" type="curve" smooth="yes"/>
      <point x="148" y="146"/>
      <point x="148" y="138"/>
      <point x="148" y="132" type="curve"/>
      <point x="148" y="127"/>
      <point x="148" y="119"/>
      <point x="148" y="114" type="curve" smooth="yes"/>
      <point x="148" y="102"/>
      <point x="144" y="96"/>
      <point x="136" y="96" type="curve" smooth="yes"/>
    </contour>
    <contour>
      <point x="129" y="259"/>
      <point x="124" y="265"/>
      <point x="124" y="278" type="curve" smooth="yes"/>
      <point x="124" y="283"/>
      <point x="124" y="290"/>
      <point x="124" y="296" type="curve"/>
      <point x="124" y="300"/>
      <point x="124" y="305"/>
      <point x="124" y="310" type="curve" smooth="yes"/>
      <point x="124" y="322"/>
      <point x="129" y="328"/>
      <point x="136" y="328" type="curve" smooth="yes"/>
      <point x="144" y="328"/>
      <point x="148" y="321"/>
      <point x="148" y="310" type="curve" smooth="yes"/>
      <point x="148" y="306"/>
      <point x="148" y="299"/>
      <point x="148" y="294" type="curve"/>
      <point x="148" y="290"/>
      <point x="148" y="283"/>
      <point x="148" y="278" type="curve" smooth="yes"/>
      <point x="148" y="265"/>
      <point x="144" y="259"/>
      <point x="136" y="259" type="curve" smooth="yes"/>
    </contour>
    <contour>
      <point x="192" y="196"/>
      <point x="236" y="212"/>
      <point x="254" y="254" type="curve" smooth="yes"/>
      <point x="260" y="268"/>
      <point x="265" y="286"/>
      <point x="265" y="307" type="curve" smooth="yes"/>
      <point x="265" y="327"/>
      <point x="261" y="344"/>
      <point x="254" y="360" type="curve" smooth="yes"/>
      <point x="234" y="406"/>
      <point x="188" y="429"/>
      <point x="136" y="429" type="curve" smooth="yes"/>
      <point x="82" y="429"/>
      <point x="37" y="403"/>
      <point x="18" y="360" type="curve" smooth="yes"/>
      <point x="11" y="344"/>
      <point x="8" y="327"/>
      <point x="8" y="307" type="curve" smooth="yes"/>
      <point x="8" y="289"/>
      <point x="11" y="270"/>
      <point x="18" y="254" type="curve" smooth="yes"/>
      <point x="37" y="210"/>
      <point x="82" y="196"/>
      <point x="136" y="190" type="curve"/>
    </contour>
  </outline>
</glyph>
<glyph name="eng.sc" format="1">
  <advance width="505"/>
  <outline>
    <contour>
      <point x="482" y="-203"/>
      <point x="484" y="-120"/>
      <point x="484" y="19" type="curve" smooth="yes"/>
      <point x="484" y="122" type="line"/>
      <point x="278" y="122" type="line"/>
      <point x="278" y="19" type="line" smooth="yes"/>
      <point x="278" y="-19"/>
      <point x="283" y="-42"/>
      <point x="215" y="-34" type="curve"/>
      <point x="216" y="-194" type="line"/>
    </contour>
    <component base="n.sc"/>
  </outline>
</glyph>
<glyph name="f.sc" format="1">
  <advance width="413"/>
  <outline>
    <contour>
      <point x="21" y="0" type="line"/>
      <point x="209" y="0" type="line"/>
      <point x="209" y="417" type="line"/>
      <point x="408" y="417" type="line"/>
      <point x="408" y="578" type="line"/>
      <point x="21" y="578" type="line"/>
    </contour>
    <contour>
      <point x="97" y="209" type="line"/>
      <point x="320" y="209" type="line"/>
      <point x="320" y="370" type="line"/>
      <point x="97" y="370" type="line"/>
    </contour>
  </outline>
</glyph>
<glyph name="four.dnom" format="1">
  <advance width="323"/>
  <outline>
    <contour>
      <point x="319" y="99" type="line"/>
      <point x="319" y="206" type="line"/>
      <point x="141" y="206" type="line"/>
      <point x="203" y="420" type="line"/>
      <point x="80" y="420" type="line"/>
      <point x="4" y="184" type="line"/>
      <point x="4" y="99" type="line"/>
    </contour>
    <contour>
      <point x="289" y="0" type="line"/>
      <point x="289" y="256" type="line"/>
      <point x="171" y="256" type="line"/>
      <point x="171" y="0" type="line"/>
    </contour>
  </outline>
</glyph>
<glyph name="g.sc" format="1">
  <advance width="457"/>
  <outline>
    <contour>
      <point x="356" y="-7"/>
      <point x="442" y="65"/>
      <point x="442" y="177" type="curve" smooth="yes"/>
      <point x="442" y="350" type="line"/>
      <point x="231" y="350" type="line"/>
      <point x="231" y="205" type="line"/>
      <point x="254" y="205" type="line"/>
      <point x="254" y="176" type="line" smooth="yes"/>
      <point x="254" y="163"/>
      <point x="244" y="154"/>
      <point x="229" y="154" type="curve" smooth="yes"/>
      <point x="214" y="154"/>
      <point x="205" y="163"/>
      <point x="205" y="176" type="curve" smooth="yes"/>
      <point x="205" y="426" type="line" smooth="yes"/>
      <point x="205" y="439"/>
      <point x="214" y="448"/>
      <point x="229" y="448" type="curve" smooth="yes"/>
      <point x="244" y="448"/>
      <point x="254" y="439"/>
      <point x="254" y="426" type="curve" smooth="yes"/>
      <point x="254" y="384" type="line"/>
      <point x="442" y="384" type="line"/>
      <point x="442" y="424" type="line" smooth="yes"/>
      <point x="442" y="537"/>
      <point x="356" y="609"/>
      <point x="229" y="609" type="curve" smooth="yes"/>
      <point x="101" y="609"/>
      <point x="17" y="538"/>
      <point x="17" y="426" type="curve" smooth="yes"/>
      <point x="17" y="177" type="line" smooth="yes"/>
      <point x="17" y="65"/>
      <point x="101" y="-7"/>
      <point x="229" y="-7" type="curve" smooth="yes"/>
    </contour>
    <contour>
      <point x="229" y="609" type="move" name="top"/>
    </contour>
    <contour>
      <point x="226" y="-7" type="move" name="bottom"/>
    </contour>
  </outline>
</glyph>
<glyph name="h.sc" format="1">
  <advance width="463"/>
  <outline>
    <contour>
      <point x="442" y="0" type="line"/>
      <point x="442" y="602" type="line"/>
      <point x="254" y="602" type="line"/>
      <point x="254" y="0" type="line"/>
    </contour>
    <contour>
      <point x="209" y="0" type="line"/>
      <point x="209" y="602" type="line"/>
      <point x="21" y="602" type="line"/>
      <point x="21" y="0" type="line"/>
    </contour>
    <contour>
      <point x="344" y="221" type="line"/>
      <point x="344" y="382" type="line"/>
      <point x="122" y="382" type="line"/>
      <point x="122" y="221" type="line"/>
    </contour>
    <contour>
      <point x="231" y="436" type="move" name="strokelong"/>
    </contour>
  </outline>
</glyph>
<glyph name="i.sc" format="1">
  <advance width="230"/>
  <outline>
    <contour>
      <point x="21" y="0" type="line"/>
      <point x="209" y="0" type="line"/>
      <point x="209" y="578" type="line"/>
      <point x="21" y="578" type="line"/>
    </contour>
    <contour>
      <point x="115" y="590" type="move" name="top"/>
    </contour>
  </outline>
</glyph>
<glyph name="j.sc" format="1">
  <advance width="450"/>
  <outline>
    <contour>
      <point x="344" y="-7"/>
      <point x="429" y="65"/>
      <point x="429" y="172" type="curve" smooth="yes"/>
      <point x="429" y="602" type="line"/>
      <point x="241" y="602" type="line"/>
      <point x="241" y="170" type="line" smooth="yes"/>
      <point x="241" y="161"/>
      <point x="231" y="154"/>
      <point x="216" y="154" type="curve" smooth="yes"/>
      <point x="203" y="154"/>
      <point x="194" y="161"/>
      <point x="194" y="170" type="curve" smooth="yes"/>
      <point x="194" y="230" type="line"/>
      <point x="6" y="230" type="line"/>
      <point x="6" y="172" type="line" smooth="yes"/>
      <point x="6" y="65"/>
      <point x="90" y="-7"/>
      <point x="216" y="-7" type="curve" smooth="yes"/>
    </contour>
  </outline>
</glyph>
<glyph name="k.sc" format="1">
  <advance width="496"/>
  <outline>
    <contour>
      <point x="209" y="0" type="line"/>
      <point x="209" y="143" type="line"/>
      <point x="227" y="184" type="line"/>
      <point x="293" y="0" type="line"/>
      <point x="491" y="0" type="line"/>
      <point x="358" y="342" type="line"/>
      <point x="490" y="602" type="line"/>
      <point x="292" y="602" type="line"/>
      <point x="209" y="424" type="line"/>
      <point x="209" y="602" type="line"/>
      <point x="21" y="602" type="line"/>
      <point x="21" y="0" type="line"/>
    </contour>
    <contour>
      <point x="264" y="0" type="move" name="bottom"/>
    </contour>
  </outline>
</glyph>
<glyph name="l.sc" format="1">
  <advance width="428"/>
  <outline>
    <contour>
      <point x="21" y="0" type="line"/>
      <point x="412" y="0" type="line"/>
      <point x="412" y="161" type="line"/>
      <point x="209" y="161" type="line"/>
      <point x="209" y="578" type="line"/>
      <point x="21" y="578" type="line"/>
    </contour>
    <contour>
      <point x="197" y="0" type="move" name="bottom"/>
    </contour>
    <contour>
      <point x="119" y="578" type="move" name="top"/>
    </contour>
  </outline>
</glyph>
<glyph name="m.sc" format="1">
  <advance width="523"/>
  <outline>
    <contour>
      <point x="209" y="0" type="line"/>
      <point x="209" y="354" type="line"/>
      <point x="261" y="263" type="line"/>
      <point x="261" y="263" type="line"/>
      <point x="314" y="351" type="line"/>
      <point x="314" y="0" type="line"/>
      <point x="502" y="0" type="line"/>
      <point x="502" y="602" type="line"/>
      <point x="319" y="602" type="line"/>
      <point x="262" y="514" type="line"/>
      <point x="204" y="602" type="line"/>
      <point x="21" y="602" type="line"/>
      <point x="21" y="0" type="line"/>
    </contour>
  </outline>
</glyph>
<glyph name="n.curve" format="1">
  <advance width="268"/>
  <outline>
    <contour>
      <point x="268" y="0" type="line"/>
      <point x="268" y="348" type="line" smooth="yes"/>
      <point x="268" y="459"/>
      <point x="227" y="528"/>
      <point x="126" y="528" type="curve" smooth="yes"/>
      <point x="89" y="528"/>
      <point x="-1" y="515"/>
      <point x="0" y="335" type="curve"/>
      <point x="36" y="335" type="line"/>
      <point x="36" y="356"/>
      <point x="44" y="367"/>
      <point x="59" y="367" type="curve" smooth="yes"/>
      <point x="73" y="367"/>
      <point x="80" y="356"/>
      <point x="80" y="335" type="curve" smooth="yes"/>
      <point x="80" y="0" type="line"/>
    </contour>
  </outline>
</glyph>
<glyph name="n.sc" format="1">
  <advance width="505"/>
  <outline>
    <contour>
      <point x="207" y="0" type="line"/>
      <point x="205" y="235" type="line"/>
      <point x="298" y="0" type="line"/>
      <point x="484" y="0" type="line"/>
      <point x="484" y="578" type="line"/>
      <point x="298" y="578" type="line"/>
      <point x="299" y="345" type="line"/>
      <point x="205" y="578" type="line"/>
      <point x="21" y="578" type="line"/>
      <point x="21" y="0" type="line"/>
    </contour>
    <contour>
      <point x="250" y="590" type="move" name="top"/>
    </contour>
    <contour>
      <point x="262" y="0" type="move" name="bottom"/>
    </contour>
  </outline>
</glyph>
<glyph name="o.sc" format="1">
  <advance width="463"/>
  <outline>
    <contour>
      <point x="362" y="-7"/>
      <point x="446" y="68"/>
      <point x="446" y="196" type="curve" smooth="yes"/>
      <point x="446" y="406" type="line" smooth="yes"/>
      <point x="446" y="535"/>
      <point x="362" y="609"/>
      <point x="232" y="609" type="curve" smooth="yes"/>
      <point x="101" y="609"/>
      <point x="17" y="535"/>
      <point x="17" y="406" type="curve" smooth="yes"/>
      <point x="17" y="196" type="line" smooth="yes"/>
      <point x="17" y="68"/>
      <point x="101" y="-7"/>
      <point x="232" y="-7" type="curve" smooth="yes"/>
    </contour>
    <contour>
      <point x="214" y="154"/>
      <point x="205" y="163"/>
      <point x="205" y="188" type="curve" smooth="yes"/>
      <point x="205" y="414" type="line" smooth="yes"/>
      <point x="205" y="439"/>
      <point x="214" y="448"/>
      <point x="232" y="448" type="curve" smooth="yes"/>
      <point x="250" y="448"/>
      <point x="258" y="439"/>
      <point x="258" y="414" type="curve" smooth="yes"/>
      <point x="258" y="188" type="line" smooth="yes"/>
      <point x="258" y="163"/>
      <point x="250" y="154"/>
      <point x="232" y="154" type="curve" smooth="yes"/>
    </contour>
    <contour>
      <point x="232" y="610" type="move" name="top"/>
    </contour>
  </outline>
</glyph>
<glyph name="oe.sc" format="1">
  <advance width="660"/>
  <outline>
    <contour>
      <point x="281" y="-7"/>
      <point x="336" y="68"/>
      <point x="336" y="196" type="curve" smooth="yes"/>
      <point x="336" y="406" type="line" smooth="yes"/>
      <point x="336" y="535"/>
      <point x="281" y="609"/>
      <point x="182" y="609" type="curve" smooth="yes"/>
      <point x="101" y="609"/>
      <point x="17" y="535"/>
      <point x="17" y="406" type="curve" smooth="yes"/>
      <point x="17" y="196" type="line" smooth="yes"/>
      <point x="17" y="68"/>
      <point x="101" y="-7"/>
      <point x="182" y="-7" type="curve" smooth="yes"/>
    </contour>
    <contour>
      <point x="214" y="154"/>
      <point x="205" y="163"/>
      <point x="205" y="188" type="curve" smooth="yes"/>
      <point x="205" y="414" type="line" smooth="yes"/>
      <point x="205" y="439"/>
      <point x="214" y="448"/>
      <point x="232" y="448" type="curve" smooth="yes"/>
      <point x="250" y="448"/>
      <point x="258" y="439"/>
      <point x="258" y="414" type="curve" smooth="yes"/>
      <point x="258" y="188" type="line" smooth="yes"/>
      <point x="258" y="163"/>
      <point x="250" y="154"/>
      <point x="232" y="154" type="curve" smooth="yes"/>
    </contour>
    <contour>
      <point x="558" y="221" type="line"/>
      <point x="558" y="382" type="line"/>
      <point x="334" y="382" type="line"/>
      <point x="334" y="221" type="line"/>
    </contour>
    <contour>
      <point x="645" y="0" type="line"/>
      <point x="645" y="161" type="line"/>
      <point x="446" y="161" type="line"/>
      <point x="446" y="441" type="line"/>
      <point x="645" y="441" type="line"/>
      <point x="645" y="602" type="line"/>
      <point x="258" y="602" type="line"/>
      <point x="258" y="0" type="line"/>
    </contour>
    <contour>
      <point x="344" y="602" type="move" name="top"/>
    </contour>
  </outline>
</glyph>
<glyph name="one.dnom" format="1">
  <advance width="165"/>
  <outline>
    <contour>
      <point x="155" y="0" type="line"/>
      <point x="155" y="420" type="line"/>
      <point x="37" y="420" type="line"/>
      <point x="37" y="0" type="line"/>
    </contour>
    <contour>
      <point x="37" y="420" type="line"/>
      <point x="9" y="404" type="line"/>
      <point x="9" y="320" type="line"/>
      <point x="37" y="319" type="line"/>
    </contour>
  </outline>
</glyph>
<glyph name="p.sc" format="1">
  <advance width="461"/>
  <outline>
    <contour>
      <point x="207" y="0" type="line"/>
      <point x="207" y="441" type="line"/>
      <point x="219" y="441" type="line" smooth="yes"/>
      <point x="244" y="441"/>
      <point x="263" y="429"/>
      <point x="263" y="397" type="curve" smooth="yes"/>
      <point x="263" y="367"/>
      <point x="244" y="355"/>
      <point x="219" y="355" type="curve" smooth="yes"/>
      <point x="191" y="355" type="line"/>
      <point x="191" y="211" type="line"/>
      <point x="262" y="211" type="line" smooth="yes"/>
      <point x="374" y="211"/>
      <point x="451" y="286"/>
      <point x="451" y="401" type="curve" smooth="yes"/>
      <point x="451" y="520"/>
      <point x="370" y="602"/>
      <point x="252" y="602" type="curve" smooth="yes"/>
      <point x="19" y="602" type="line"/>
      <point x="19" y="0" type="line"/>
    </contour>
  </outline>
</glyph>
<glyph name="q.sc" format="1">
  <advance width="454"/>
  <outline>
    <contour>
      <point x="354" y="-7"/>
      <point x="437" y="73"/>
      <point x="437" y="205" type="curve" smooth="yes"/>
      <point x="437" y="397" type="line" smooth="yes"/>
      <point x="437" y="529"/>
      <point x="354" y="609"/>
      <point x="226" y="609" type="curve" smooth="yes"/>
      <point x="100" y="609"/>
      <point x="17" y="529"/>
      <point x="17" y="397" type="curve" smooth="yes"/>
      <point x="17" y="205" type="line" smooth="yes"/>
      <point x="17" y="73"/>
      <point x="100" y="-7"/>
      <point x="226" y="-7" type="curve" smooth="yes"/>
    </contour>
    <contour>
      <point x="320" y="-68" type="line"/>
      <point x="320" y="115" type="line"/>
      <point x="132" y="115" type="line"/>
      <point x="132" y="-68" type="line"/>
    </contour>
    <contour>
      <point x="213" y="154"/>
      <point x="205" y="162"/>
      <point x="205" y="185" type="curve" smooth="yes"/>
      <point x="205" y="417" type="line" smooth="yes"/>
      <point x="205" y="440"/>
      <point x="213" y="448"/>
      <point x="226" y="448" type="curve" smooth="yes"/>
      <point x="240" y="448"/>
      <point x="249" y="440"/>
      <point x="249" y="417" type="curve" smooth="yes"/>
      <point x="249" y="185" type="line" smooth="yes"/>
      <point x="249" y="162"/>
      <point x="240" y="154"/>
      <point x="226" y="154" type="curve" smooth="yes"/>
    </contour>
  </outline>
</glyph>
<glyph name="r.sc" format="1">
  <advance width="470"/>
  <outline>
    <contour>
      <point x="209" y="0" type="line"/>
      <point x="209" y="441" type="line"/>
      <point x="221" y="441" type="line" smooth="yes"/>
      <point x="246" y="441"/>
      <point x="265" y="430"/>
      <point x="265" y="401" type="curve" smooth="yes"/>
      <point x="265" y="374"/>
      <point x="246" y="362"/>
      <point x="221" y="362" type="curve" smooth="yes"/>
      <point x="193" y="362" type="line"/>
      <point x="193" y="219" type="line"/>
      <point x="264" y="219" type="line" smooth="yes"/>
      <point x="376" y="219"/>
      <point x="453" y="293"/>
      <point x="453" y="403" type="curve" smooth="yes"/>
      <point x="453" y="519"/>
      <point x="372" y="602"/>
      <point x="254" y="602" type="curve" smooth="yes"/>
      <point x="21" y="602" type="line"/>
      <point x="21" y="0" type="line"/>
    </contour>
    <contour>
      <point x="462" y="0" type="line"/>
      <point x="369" y="300" type="line"/>
      <point x="190" y="301" type="line"/>
      <point x="268" y="0" type="line"/>
    </contour>
    <contour>
      <point x="222" y="602" type="move" name="top"/>
    </contour>
    <contour>
      <point x="234" y="0" type="move" name="bottom"/>
    </contour>
  </outline>
</glyph>
<glyph name="s.sc" format="1">
  <advance width="448"/>
  <outline>
    <contour>
      <point x="348" y="-7"/>
      <point x="433" y="60"/>
      <point x="433" y="168" type="curve" smooth="yes"/>
      <point x="433" y="259"/>
      <point x="374" y="301"/>
      <point x="273" y="367" type="curve" smooth="yes"/>
      <point x="215" y="406"/>
      <point x="200" y="418"/>
      <point x="200" y="432" type="curve" smooth="yes"/>
      <point x="200" y="440"/>
      <point x="208" y="448"/>
      <point x="221" y="448" type="curve" smooth="yes"/>
      <point x="235" y="448"/>
      <point x="244" y="443"/>
      <point x="244" y="438" type="curve" smooth="yes"/>
      <point x="244" y="401" type="line"/>
      <point x="429" y="401" type="line"/>
      <point x="429" y="434" type="line" smooth="yes"/>
      <point x="429" y="538"/>
      <point x="347" y="609"/>
      <point x="221" y="609" type="curve" smooth="yes"/>
      <point x="97" y="609"/>
      <point x="15" y="536"/>
      <point x="15" y="431" type="curve" smooth="yes"/>
      <point x="15" y="321"/>
      <point x="104" y="262"/>
      <point x="171" y="221" type="curve" smooth="yes"/>
      <point x="233" y="184"/>
      <point x="248" y="173"/>
      <point x="248" y="163" type="curve" smooth="yes"/>
      <point x="248" y="158"/>
      <point x="239" y="154"/>
      <point x="226" y="154" type="curve" smooth="yes"/>
      <point x="214" y="154"/>
      <point x="205" y="159"/>
      <point x="205" y="166" type="curve" smooth="yes"/>
      <point x="205" y="203" type="line"/>
      <point x="19" y="203" type="line"/>
      <point x="19" y="157" type="line" smooth="yes"/>
      <point x="19" y="62"/>
      <point x="100" y="-7"/>
      <point x="225" y="-7" type="curve" smooth="yes"/>
    </contour>
    <contour>
      <point x="221" y="609" type="move" name="top"/>
    </contour>
    <contour>
      <point x="225" y="-7" type="move" name="bottom"/>
    </contour>
  </outline>
</glyph>
<glyph name="seven.dnom" format="1">
  <advance width="264"/>
  <outline>
    <contour>
      <point x="161" y="0" type="line"/>
      <point x="261" y="319" type="line"/>
      <point x="261" y="420" type="line"/>
      <point x="4" y="420" type="line"/>
      <point x="3" y="289" type="line"/>
      <point x="98" y="289" type="line"/>
      <point x="98" y="319" type="line"/>
      <point x="137" y="319" type="line"/>
      <point x="38" y="0" type="line"/>
    </contour>
  </outline>
</glyph>
<glyph name="six.dnom" format="1">
  <advance width="278"/>
  <outline>
    <contour>
      <point x="219" y="-5"/>
      <point x="271" y="35"/>
      <point x="271" y="104" type="curve" smooth="yes"/>
      <point x="271" y="114"/>
      <point x="271" y="123"/>
      <point x="271" y="133" type="curve" smooth="yes"/>
      <point x="271" y="141"/>
      <point x="271" y="147"/>
      <point x="271" y="155" type="curve" smooth="yes"/>
      <point x="271" y="225"/>
      <point x="236" y="267"/>
      <point x="178" y="267" type="curve" smooth="yes"/>
      <point x="144" y="267"/>
      <point x="110" y="241"/>
      <point x="110" y="211" type="curve"/>
      <point x="127" y="206" type="line"/>
      <point x="127" y="306" type="line" smooth="yes"/>
      <point x="127" y="315"/>
      <point x="131" y="321"/>
      <point x="138" y="321" type="curve" smooth="yes"/>
      <point x="142" y="321"/>
      <point x="147" y="315"/>
      <point x="147" y="306" type="curve" smooth="yes"/>
      <point x="147" y="280" type="line"/>
      <point x="266" y="280" type="line"/>
      <point x="266" y="314" type="line" smooth="yes"/>
      <point x="266" y="383"/>
      <point x="213" y="425"/>
      <point x="138" y="425" type="curve" smooth="yes"/>
      <point x="61" y="425"/>
      <point x="8" y="383"/>
      <point x="9" y="314" type="curve" smooth="yes"/>
      <point x="10" y="123" type="line"/>
      <point x="10" y="114"/>
      <point x="10" y="107"/>
      <point x="11" y="100" type="curve" smooth="yes"/>
      <point x="20" y="28"/>
      <point x="68" y="-5"/>
      <point x="140" y="-5" type="curve" smooth="yes"/>
    </contour>
    <contour>
      <point x="132" y="96"/>
      <point x="127" y="102"/>
      <point x="127" y="112" type="curve" smooth="yes"/>
      <point x="127" y="128"/>
      <point x="127" y="135"/>
      <point x="127" y="142" type="curve" smooth="yes"/>
      <point x="127" y="145"/>
      <point x="127" y="152"/>
      <point x="127" y="168" type="curve" smooth="yes"/>
      <point x="127" y="178"/>
      <point x="132" y="184"/>
      <point x="139" y="184" type="curve" smooth="yes"/>
      <point x="146" y="184"/>
      <point x="151" y="178"/>
      <point x="151" y="168" type="curve" smooth="yes"/>
      <point x="151" y="153"/>
      <point x="151" y="144"/>
      <point x="151" y="142" type="curve" smooth="yes"/>
      <point x="151" y="135"/>
      <point x="151" y="127"/>
      <point x="151" y="112" type="curve" smooth="yes"/>
      <point x="151" y="102"/>
      <point x="146" y="96"/>
      <point x="139" y="96" type="curve" smooth="yes"/>
    </contour>
  </outline>
</glyph>
<glyph name="t.sc" format="1">
  <advance width="468"/>
  <outline>
    <contour>
      <point x="327" y="0" type="line"/>
      <point x="327" y="593" type="line"/>
      <point x="139" y="593" type="line"/>
      <point x="139" y="0" type="line"/>
    </contour>
    <contour>
      <point x="458" y="441" type="line"/>
      <point x="458" y="602" type="line"/>
      <point x="10" y="602" type="line"/>
      <point x="10" y="441" type="line"/>
    </contour>
    <contour>
      <point x="237" y="602" type="move" name="top"/>
    </contour>
    <contour>
      <point x="228" y="1" type="move" name="bottom"/>
    </contour>
  </outline>
</glyph>
<glyph name="thorn.sc" format="1">
  <advance width="460"/>
  <outline>
    <contour>
      <point x="207" y="0" type="line"/>
      <point x="207" y="602" type="line"/>
      <point x="19" y="602" type="line"/>
      <point x="19" y="0" type="line"/>
    </contour>
    <contour>
      <point x="261" y="104" type="line" smooth="yes"/>
      <point x="373" y="104"/>
      <point x="450" y="180"/>
      <point x="450" y="297" type="curve" smooth="yes"/>
      <point x="450" y="415"/>
      <point x="369" y="497"/>
      <point x="251" y="497" type="curve" smooth="yes"/>
      <point x="207" y="497" type="line"/>
      <point x="207" y="336" type="line"/>
      <point x="218" y="336" type="line" smooth="yes"/>
      <point x="243" y="336"/>
      <point x="262" y="324"/>
      <point x="262" y="293" type="curve" smooth="yes"/>
      <point x="262" y="262"/>
      <point x="243" y="251"/>
      <point x="218" y="251" type="curve" smooth="yes"/>
      <point x="207" y="251" type="line"/>
      <point x="207" y="104" type="line"/>
    </contour>
  </outline>
</glyph>
<glyph name="three.dnom" format="1">
  <advance width="295"/>
  <outline>
    <contour>
      <point x="238" y="-5"/>
      <point x="288" y="40"/>
      <point x="287" y="105" type="curve" smooth="yes"/>
      <point x="287" y="115"/>
      <point x="287" y="126"/>
      <point x="287" y="138" type="curve" smooth="yes"/>
      <point x="287" y="148"/>
      <point x="287" y="155"/>
      <point x="287" y="165" type="curve" smooth="yes"/>
      <point x="287" y="224"/>
      <point x="245" y="292"/>
      <point x="186" y="271" type="curve"/>
      <point x="186" y="216" type="line"/>
      <point x="284" y="320" type="line"/>
      <point x="284" y="420" type="line"/>
      <point x="41" y="420" type="line"/>
      <point x="41" y="320" type="line"/>
      <point x="151" y="320" type="line"/>
      <point x="73" y="250" type="line"/>
      <point x="135" y="184" type="line"/>
      <point x="143" y="195"/>
      <point x="153" y="202"/>
      <point x="163" y="202" type="curve" smooth="yes"/>
      <point x="175" y="202"/>
      <point x="178" y="193"/>
      <point x="178" y="179" type="curve" smooth="yes"/>
      <point x="178" y="169"/>
      <point x="178" y="162"/>
      <point x="178" y="151" type="curve" smooth="yes"/>
      <point x="178" y="138"/>
      <point x="178" y="134"/>
      <point x="178" y="122" type="curve" smooth="yes"/>
      <point x="178" y="106"/>
      <point x="175" y="96"/>
      <point x="163" y="96" type="curve" smooth="yes"/>
      <point x="152" y="96"/>
      <point x="147" y="106"/>
      <point x="147" y="122" type="curve" smooth="yes"/>
      <point x="147" y="130"/>
      <point x="147" y="132"/>
      <point x="147" y="140" type="curve"/>
      <point x="31" y="140" type="line"/>
      <point x="31" y="128"/>
      <point x="31" y="116"/>
      <point x="31" y="105" type="curve" smooth="yes"/>
      <point x="31" y="40"/>
      <point x="85" y="-5"/>
      <point x="163" y="-5" type="curve" smooth="yes"/>
    </contour>
  </outline>
</glyph>
<glyph name="two.dnom" format="1">
  <advance width="280"/>
  <outline>
    <contour>
      <point x="275" y="0" type="line"/>
      <point x="275" y="101" type="line"/>
      <point x="171" y="101" type="line"/>
      <point x="206" y="145"/>
      <point x="231" y="171"/>
      <point x="247" y="197" type="curve" smooth="yes"/>
      <point x="263" y="224"/>
      <point x="272" y="250"/>
      <point x="272" y="294" type="curve" smooth="yes"/>
      <point x="272" y="392"/>
      <point x="216" y="425"/>
      <point x="143" y="425" type="curve" smooth="yes"/>
      <point x="63" y="425"/>
      <point x="12" y="385"/>
      <point x="7" y="311" type="curve"/>
      <point x="7" y="272" type="line"/>
      <point x="126" y="272" type="line"/>
      <point x="126" y="306" type="line"/>
      <point x="126" y="317"/>
      <point x="132" y="324"/>
      <point x="140" y="324" type="curve" smooth="yes"/>
      <point x="147" y="324"/>
      <point x="153" y="319"/>
      <point x="153" y="301" type="curve" smooth="yes"/>
      <point x="153" y="279"/>
      <point x="143" y="257"/>
      <point x="126" y="233" type="curve" smooth="yes"/>
      <point x="99" y="195"/>
      <point x="54" y="151"/>
      <point x="10" y="101" type="curve"/>
      <point x="10" y="0" type="line"/>
    </contour>
  </outline>
</glyph>
<glyph name="w.sc" format="1">
  <advance width="692"/>
  <outline>
    <contour>
      <point x="312" y="0" type="line"/>
      <point x="346" y="240" type="line"/>
      <point x="388" y="0" type="line"/>
      <point x="554" y="0" type="line"/>
      <point x="682" y="578" type="line"/>
      <point x="492" y="578" type="line"/>
      <point x="465" y="334" type="line"/>
      <point x="423" y="578" type="line"/>
      <point x="273" y="578" type="line"/>
      <point x="236" y="334" type="line"/>
      <point x="204" y="578" type="line"/>
      <point x="10" y="578" type="line"/>
      <point x="145" y="0" type="line"/>
    </contour>
    <contour>
      <point x="341" y="578" type="move" name="top"/>
    </contour>
  </outline>
</glyph>
